<svg width="1024" height="1024" viewBox="0 0 1024 1024" fill="none" xmlns="http://www.w3.org/2000/svg">
<g clip-path="url(#clip0_10_10308)">
<rect width="1024" height="1024" fill="white"/>
<rect width="1024" height="1024" fill="#252525" fill-opacity="0.68"/>
<rect width="1024" height="1024" fill="#FFFCEA"/>
<rect opacity="0.3" x="2" width="1024" height="1024" fill="url(#paint0_linear_10_10308)"/>
<g style="mix-blend-mode:color-burn" opacity="0.48">
<path fill-rule="evenodd" clip-rule="evenodd" d="M528.963 777.813L528.963 550.987L497.467 550.987L497.467 777.813L528.963 777.813ZM465.958 777.813L465.958 550.987L434.461 550.987L434.461 777.813L465.958 777.813ZM397.896 786.193L171.073 786.193L171.073 817.701L397.896 817.702L397.896 786.193ZM397.905 723.186L171.081 723.186L171.073 754.685L397.896 754.685L397.905 723.186ZM172.911 237.249L399.734 237.249L399.734 205.741L172.911 205.741L172.911 237.249ZM629.706 363.337L856.529 363.337L856.52 331.838L629.697 331.838L629.706 363.337ZM853.288 660.332L626.465 660.332L626.457 691.832L853.28 691.832L853.288 660.332ZM853.28 723.34L626.457 723.34L626.465 754.84L853.288 754.84L853.28 723.34ZM591.969 335.146L591.969 246.931L560.473 246.931L560.473 335.146L591.969 335.146ZM591.969 473.755L591.969 385.553L560.473 385.553L560.473 473.755L591.969 473.755ZM528.964 335.146L528.964 246.931L497.467 246.931L497.467 335.146L528.964 335.146ZM528.964 473.755L528.964 385.553L497.467 385.553L497.467 473.755L528.964 473.755ZM465.958 335.146L465.958 246.931L434.462 246.931L434.462 335.146L465.958 335.146ZM465.958 473.755L465.958 385.553L434.462 385.553L434.462 473.755L465.958 473.755ZM722.349 487.175L722.349 398.959L690.84 398.959L690.84 487.174L722.349 487.175ZM722.349 537.569L690.84 537.569L690.84 625.784L722.349 625.784L722.349 537.569ZM765.074 817.846L853.28 817.846L853.288 786.347L765.074 786.338L765.074 817.846ZM626.456 817.846L714.67 817.855L714.67 786.347L626.465 786.347L626.456 817.846ZM311.529 363.263L399.735 363.263L399.735 331.755L311.529 331.755L311.529 363.263ZM172.911 363.263L261.116 363.263L261.116 331.755L172.911 331.755L172.911 363.263ZM717.91 205.815L629.696 205.823L629.704 237.323L717.91 237.323L717.91 205.815ZM856.519 205.823L768.314 205.823L768.314 237.331L856.528 237.323L856.519 205.823ZM311.52 300.256L399.743 300.256L399.734 268.756L311.529 268.756L311.52 300.256ZM172.911 300.247L261.125 300.255L261.125 268.747L172.911 268.756L172.911 300.247ZM717.909 268.831L629.704 268.831L629.695 300.33L717.909 300.339L717.909 268.831ZM856.528 268.831L768.314 268.822L768.314 300.33L856.519 300.33L856.528 268.831ZM259.284 660.187L171.07 660.179L171.07 691.687L259.284 691.678L259.284 660.187ZM397.894 660.178L397.894 691.687L309.689 691.687L309.689 660.178L397.894 660.178ZM272.587 487.175L241.09 487.175L241.09 398.96L272.587 398.96L272.587 487.175ZM272.587 537.569L272.587 625.784L241.09 625.784L241.09 537.569L272.587 537.569ZM398.609 487.174L398.609 398.959L367.101 398.959L367.101 487.174L398.609 487.174ZM398.609 625.783L398.609 537.568L367.101 537.568L367.101 625.783L398.609 625.783ZM335.604 625.783L335.604 398.958L304.095 398.958L304.095 625.783L335.604 625.783ZM753.845 398.958L753.845 625.783L785.354 625.783L785.354 398.958L753.845 398.958ZM627.834 398.958L627.834 625.783L659.343 625.783L659.343 398.958L627.834 398.958ZM591.971 550.986L560.475 550.986L560.475 777.811L591.971 777.811L591.971 550.986Z" fill="url(#paint1_radial_10_10308)"/>
</g>
<g style="mix-blend-mode:color-burn" opacity="0.48">
<path fill-rule="evenodd" clip-rule="evenodd" d="M682.425 718.096L549.101 534.591L523.62 553.104L656.944 736.61L682.425 718.096ZM631.453 755.13L498.129 571.625L472.647 590.138L605.972 773.643L631.453 755.13ZM581.316 801.916L397.812 935.239L416.332 960.73L599.836 827.407L581.316 801.916ZM544.288 750.937L360.784 884.26L379.292 909.749L562.796 776.425L544.288 750.937ZM76.6383 490.053L260.142 356.73L241.622 331.239L58.1183 464.563L76.6383 490.053ZM520.305 323.564L703.809 190.24L685.287 164.762L501.783 298.085L520.305 323.564ZM875.757 432.419L692.253 565.743L710.761 591.231L894.265 457.908L875.757 432.419ZM912.785 483.399L729.281 616.722L747.803 642.201L931.307 508.877L912.785 483.399ZM473.206 322.938L421.354 251.57L395.873 270.083L447.725 341.451L473.206 322.938ZM554.678 435.075L502.834 363.717L477.353 382.23L529.197 453.588L554.678 435.075ZM422.233 359.971L370.382 288.604L344.9 307.117L396.752 378.485L422.233 359.971ZM503.706 472.108L451.861 400.751L426.38 419.264L478.224 490.622L503.706 472.108ZM371.261 397.005L319.409 325.638L293.928 344.151L345.779 415.518L371.261 397.005ZM452.733 509.142L400.889 437.785L375.408 456.298L427.252 527.655L452.733 509.142ZM668.045 369.296L616.193 297.929L590.702 316.449L642.554 387.817L668.045 369.296ZM697.666 410.066L672.175 428.586L724.026 499.954L749.517 481.433L697.666 410.066ZM896.975 611.702L968.334 559.856L949.826 534.367L878.455 586.211L896.975 611.702ZM784.83 693.179L856.202 641.335L837.682 615.845L766.322 667.691L784.83 693.179ZM262.852 510.523L334.212 458.677L315.692 433.187L244.332 485.033L262.852 510.523ZM150.707 592.001L222.067 540.155L203.547 514.665L132.187 566.511L150.707 592.001ZM499.074 144.28L427.713 196.138L446.235 221.617L517.594 169.771L499.074 144.28ZM611.217 62.8144L539.857 114.66L558.378 140.151L629.739 88.2929L611.217 62.8144ZM225.81 459.554L297.183 407.698L278.661 382.22L207.302 434.066L225.81 459.554ZM113.667 541.02L185.039 489.176L166.519 463.685L95.157 515.543L113.667 541.02ZM536.114 195.262L464.755 247.108L483.262 272.596L554.634 220.752L536.114 195.262ZM648.259 113.784L576.887 165.628L595.407 191.118L666.767 139.272L648.259 113.784ZM395.112 781.449L323.741 833.293L342.261 858.783L413.622 806.925L395.112 781.449ZM507.245 699.969L525.765 725.459L454.405 777.305L435.885 751.815L507.245 699.969ZM304.18 633.66L278.699 652.173L226.847 580.806L252.329 562.293L304.18 633.66ZM333.801 674.43L385.653 745.797L360.171 764.31L308.32 692.943L333.801 674.43ZM406.134 559.585L354.283 488.217L328.791 506.738L380.643 578.105L406.134 559.585ZM487.606 671.722L435.755 600.355L410.264 618.875L462.115 690.242L487.606 671.722ZM436.634 708.756L303.309 525.25L277.818 543.771L411.143 727.276L436.634 708.756ZM641.674 279.414L774.998 462.92L800.489 444.399L667.165 260.894L641.674 279.414ZM539.729 353.482L673.053 536.987L698.544 518.467L565.22 334.961L539.729 353.482ZM600.075 497.555L574.594 516.068L707.918 699.573L733.399 681.06L600.075 497.555Z" fill="url(#paint2_radial_10_10308)"/>
</g>
<g style="mix-blend-mode:color-burn" opacity="0.48">
<path fill-rule="evenodd" clip-rule="evenodd" d="M771.478 579.581L555.755 509.488L546.022 539.444L761.745 609.536L771.478 579.581ZM752.008 639.503L536.285 569.41L526.552 599.365L742.275 669.458L752.008 639.503ZM738.947 706.824L668.855 922.545L698.821 932.282L768.913 716.56L738.947 706.824ZM679.026 687.345L608.933 903.067L638.888 912.809L708.981 697.087L679.026 687.345ZM147.346 751.163L217.438 535.442L187.472 525.705L117.38 741.427L147.346 751.163ZM408.42 355.69L478.512 139.968L448.551 130.242L378.459 345.964L408.42 355.69ZM759.97 234.826L689.878 450.548L719.833 460.29L789.925 244.569L759.97 234.826ZM819.891 254.305L749.799 470.027L779.759 479.752L849.852 264.031L819.891 254.305ZM369.947 382.867L286.05 355.608L276.317 385.563L360.214 412.822L369.947 382.867ZM501.772 425.7L417.887 398.444L408.154 428.399L492.04 455.655L501.772 425.7ZM350.478 442.789L266.58 415.529L256.847 445.484L340.745 472.744L350.478 442.789ZM482.303 485.622L398.417 458.366L388.684 488.321L472.57 515.577L482.303 485.622ZM331.008 502.711L247.11 475.451L237.377 505.406L321.275 532.666L331.008 502.711ZM462.833 545.544L378.947 518.287L369.214 548.243L453.1 575.499L462.833 545.544ZM554.824 305.849L470.927 278.589L461.19 308.556L545.088 335.815L554.824 305.849ZM602.752 321.421L593.015 351.388L676.913 378.648L686.649 348.681L602.752 321.421ZM882.515 367.397L909.772 283.509L879.817 273.767L852.549 357.661L882.515 367.397ZM839.679 499.231L866.947 415.337L836.981 405.601L809.724 489.489L839.679 499.231ZM310.028 658.27L337.285 574.382L307.319 564.645L280.062 648.534L310.028 658.27ZM267.192 790.104L294.449 706.216L264.483 696.479L237.226 780.368L267.192 790.104ZM285.863 223.125L258.612 307.025L288.572 316.75L315.829 232.862L285.863 223.125ZM328.704 91.3024L301.447 175.191L331.413 184.927L358.665 101.028L328.704 91.3024ZM250.101 638.808L277.363 554.904L247.403 545.178L220.146 629.066L250.101 638.808ZM207.26 770.631L234.528 686.737L204.562 677.001L177.31 760.9L207.26 770.631ZM345.795 242.599L318.538 326.487L348.494 336.229L375.762 252.335L345.795 242.599ZM388.631 110.765L361.363 194.659L391.329 204.395L418.586 120.507L388.631 110.765ZM576.274 799.713L549.007 883.607L578.973 893.343L606.224 809.444L576.274 799.713ZM619.099 667.884L649.065 677.621L621.808 761.509L591.842 751.773L619.099 667.884ZM415.841 733.598L406.108 763.553L322.21 736.293L331.943 706.338L415.841 733.598ZM463.769 749.17L547.666 776.43L537.933 806.386L454.036 779.126L463.769 749.17ZM454.783 613.743L370.885 586.483L361.149 616.45L445.046 643.71L454.783 613.743ZM586.608 656.575L502.711 629.316L492.974 659.282L576.871 686.542L586.608 656.575ZM567.138 716.497L351.415 646.404L341.678 676.371L557.402 746.464L567.138 716.497ZM480.658 248.634L696.382 318.726L706.119 288.76L490.395 218.667L480.658 248.634ZM441.719 368.477L657.442 438.57L667.179 408.603L451.456 338.51L441.719 368.477ZM575.224 449.564L565.491 479.519L781.215 549.612L790.948 519.657L575.224 449.564Z" fill="url(#paint3_radial_10_10308)"/>
</g>
<g style="mix-blend-mode:color-burn" opacity="0.48">
<path fill-rule="evenodd" clip-rule="evenodd" d="M762.108 415.174L546.384 485.267L556.117 515.222L771.841 445.129L762.108 415.174ZM781.577 475.096L565.854 545.189L575.587 575.144L791.31 505.051L781.577 475.096ZM810.58 537.237L880.672 752.959L910.638 743.222L840.546 527.5L810.58 537.237ZM750.654 556.699L820.746 772.421L850.706 762.695L780.614 546.974L750.654 556.699ZM358.027 920.843L287.935 705.121L257.969 714.858L328.061 930.58L358.027 920.843ZM336.787 447.443L266.695 231.721L236.74 241.463L306.832 457.185L336.787 447.443ZM550.155 143.026L620.247 358.748L650.208 349.022L580.116 133.301L550.155 143.026ZM610.082 123.564L680.174 339.286L710.129 329.544L640.037 113.822L610.082 123.564ZM321.637 492.043L237.739 519.303L247.472 549.258L331.37 521.998L321.637 492.043ZM453.462 449.211L369.576 476.467L379.309 506.422L463.195 479.166L453.462 449.211ZM341.107 551.965L257.209 579.225L266.942 609.18L350.84 581.92L341.107 551.965ZM472.932 509.133L389.046 536.389L398.779 566.344L482.665 539.088L472.932 509.133ZM360.576 611.887L276.679 639.147L286.412 669.102L370.309 641.842L360.576 611.887ZM492.401 569.054L408.516 596.31L418.249 626.266L502.134 599.009L492.401 569.054ZM425.935 321.066L342.038 348.326L351.774 378.293L435.672 351.033L425.935 321.066ZM473.863 305.493L483.599 335.46L567.497 308.2L557.76 278.233L473.863 305.493ZM727.219 178.248L699.962 94.3599L670.002 104.086L697.253 187.985L727.219 178.248ZM770.055 310.082L742.803 226.183L712.837 235.919L740.094 319.808L770.055 310.082ZM435.039 750.069L407.782 666.181L377.816 675.917L405.072 759.805L435.039 750.069ZM477.874 881.903L450.617 798.015L420.651 807.751L447.908 891.64L477.874 881.903ZM159.717 412.233L186.985 496.127L216.94 486.384L189.683 402.496L159.717 412.233ZM116.893 280.404L144.15 364.293L174.116 354.556L146.848 270.662L116.893 280.404ZM375.117 769.548L347.855 685.643L317.9 695.385L345.157 779.274L375.117 769.548ZM417.942 901.376L390.69 817.477L360.724 827.214L387.992 911.107L417.942 901.376ZM219.65 392.76L246.907 476.648L276.867 466.923L249.616 383.023L219.65 392.76ZM176.814 260.926L204.066 344.825L234.032 335.088L206.775 251.2L176.814 260.926ZM733.574 708.002L760.826 791.902L790.792 782.165L763.524 698.271L733.574 708.002ZM690.733 576.179L720.699 566.443L747.956 650.331L717.99 660.068L690.733 576.179ZM564.919 748.815L574.652 778.77L490.755 806.03L481.022 776.075L564.919 748.815ZM612.847 733.242L696.745 705.982L706.478 735.937L622.58 763.197L612.847 733.242ZM525.975 628.96L442.078 656.22L451.815 686.187L535.712 658.927L525.975 628.96ZM657.8 586.128L573.903 613.388L583.64 643.354L667.537 616.095L657.8 586.128ZM677.27 646.05L461.547 716.142L471.284 746.109L687.007 676.016L677.27 646.05ZM332.303 318.372L548.027 248.279L538.29 218.312L322.566 288.405L332.303 318.372ZM371.243 438.215L586.966 368.122L577.229 338.155L361.506 408.248L371.243 438.215ZM526.912 425.343L536.645 455.298L752.369 385.206L742.636 355.251L526.912 425.343Z" fill="url(#paint4_radial_10_10308)"/>
</g>
<g style="mix-blend-mode:color-burn" opacity="0.48">
<path fill-rule="evenodd" clip-rule="evenodd" d="M657.89 287.676L524.566 471.181L550.047 489.694L683.372 306.189L657.89 287.676ZM708.863 324.71L575.539 508.215L601.02 526.728L734.344 343.223L708.863 324.71ZM768.852 357.935L952.356 491.258L970.876 465.768L787.372 332.444L768.852 357.935ZM731.81 408.904L915.314 542.228L933.836 516.749L750.332 383.426L731.81 408.904ZM628.207 934.283L444.704 800.959L426.184 826.45L609.687 959.773L628.207 934.283ZM332.766 563.779L149.262 430.455L130.754 455.944L314.258 589.267L332.766 563.779ZM326.453 192.086L509.957 325.409L528.478 299.93L344.975 166.607L326.453 192.086ZM363.495 141.116L546.999 274.44L565.507 248.951L382.003 115.628L363.495 141.116ZM346.725 608.766L294.873 680.134L320.355 698.647L372.206 627.279L346.725 608.766ZM428.197 496.629L376.353 567.987L401.834 586.5L453.678 515.142L428.197 496.629ZM397.697 645.8L345.846 717.167L371.327 735.681L423.179 664.313L397.697 645.8ZM479.17 533.663L427.325 605.02L452.807 623.534L504.651 552.176L479.17 533.663ZM448.67 682.834L396.818 754.201L422.3 772.714L474.151 701.347L448.67 682.834ZM530.142 570.697L478.298 642.054L503.779 660.567L555.623 589.21L530.142 570.697ZM330.606 409.138L278.754 480.505L304.245 499.026L356.097 427.658L330.606 409.138ZM360.227 368.368L385.718 386.889L437.569 315.521L412.078 297.001L360.227 368.368ZM490.404 116.505L419.044 64.6594L400.522 90.138L471.884 141.996L490.404 116.505ZM602.548 197.983L531.187 146.125L512.667 171.616L584.026 223.462L602.548 197.983ZM590.132 750.858L518.773 699.012L500.253 724.502L571.612 776.348L590.132 750.858ZM702.277 832.336L630.917 780.49L612.397 805.98L683.757 857.826L702.277 832.336ZM168.818 639.372L240.189 691.216L258.697 665.727L187.338 613.881L168.818 639.372ZM56.685 557.892L128.045 609.738L146.565 584.247L75.193 532.403L56.685 557.892ZM553.105 801.837L481.731 749.981L463.223 775.47L534.583 827.316L553.105 801.837ZM665.237 883.317L593.875 831.459L575.355 856.95L646.727 908.794L665.237 883.317ZM205.858 588.391L277.218 640.237L295.74 614.758L224.378 562.9L205.858 588.391ZM93.7132 506.913L165.075 558.771L183.595 533.28L112.235 481.434L93.7132 506.913ZM806.927 541.35L878.288 593.208L896.808 567.717L825.437 515.873L806.927 541.35ZM694.784 459.884L713.304 434.394L784.664 486.239L766.144 511.73L694.784 459.884ZM694.471 673.501L719.952 692.014L668.101 763.381L642.62 744.868L694.471 673.501ZM724.092 632.731L775.943 561.364L801.425 579.877L749.573 651.244L724.092 632.731ZM592.516 599.427L540.664 670.795L566.156 689.315L618.007 617.948L592.516 599.427ZM673.988 487.29L622.137 558.658L647.628 577.178L699.479 505.811L673.988 487.29ZM724.961 524.324L591.636 707.829L617.128 726.35L750.452 542.844L724.961 524.324ZM253.272 461.993L386.597 278.488L361.106 259.968L227.781 443.473L253.272 461.993ZM355.217 536.061L488.541 352.555L463.05 334.035L329.726 517.54L355.217 536.061ZM473.591 434.147L499.072 452.66L632.396 269.155L606.915 250.642L473.591 434.147Z" fill="url(#paint5_radial_10_10308)"/>
</g>
<g style="mix-blend-mode:color-burn" opacity="0.48">
<path fill-rule="evenodd" clip-rule="evenodd" d="M498.636 245.784L498.636 472.609L530.132 472.609L530.132 245.784L498.636 245.784ZM561.641 245.784L561.641 472.609L593.138 472.609L593.138 245.784L561.641 245.784ZM629.703 237.403L856.526 237.403L856.526 205.895L629.703 205.895L629.703 237.403ZM629.694 300.411L856.518 300.411L856.526 268.911L629.703 268.911L629.694 300.411ZM854.687 786.347L627.864 786.347L627.864 817.855L854.687 817.855L854.687 786.347ZM397.893 660.259L171.07 660.259L171.079 691.759L397.902 691.759L397.893 660.259ZM174.31 363.264L401.134 363.264L401.142 331.765L174.319 331.765L174.31 363.264ZM174.319 300.256L401.142 300.256L401.134 268.757L174.31 268.757L174.319 300.256ZM435.629 688.45L435.629 776.665L467.126 776.665L467.126 688.45L435.629 688.45ZM435.629 549.841L435.629 638.044L467.126 638.044L467.126 549.841L435.629 549.841ZM498.635 688.45L498.635 776.665L530.132 776.665L530.132 688.45L498.635 688.45ZM498.635 549.841L498.635 638.044L530.132 638.044L530.132 549.841L498.635 549.841ZM561.64 688.45L561.64 776.665L593.137 776.665L593.137 688.45L561.64 688.45ZM561.64 549.841L561.64 638.044L593.137 638.044L593.137 549.841L561.64 549.841ZM305.25 536.422L305.25 624.637L336.759 624.637L336.759 536.422L305.25 536.422ZM305.25 486.028L336.759 486.028L336.759 397.813L305.25 397.813L305.25 486.028ZM262.524 205.75L174.319 205.75L174.31 237.25L262.524 237.258L262.524 205.75ZM401.143 205.75L312.929 205.742L312.929 237.25L401.134 237.25L401.143 205.75ZM716.069 660.333L627.864 660.333L627.864 691.841L716.069 691.841L716.069 660.333ZM854.688 660.333L766.482 660.333L766.482 691.841L854.688 691.841L854.688 660.333ZM309.689 817.782L397.903 817.773L397.894 786.274L309.689 786.274L309.689 817.782ZM171.079 817.773L259.285 817.773L259.285 786.265L171.071 786.274L171.079 817.773ZM716.078 723.341L627.856 723.341L627.864 754.84L716.07 754.84L716.078 723.341ZM854.688 723.35L766.474 723.341L766.474 754.849L854.688 754.84L854.688 723.35ZM309.689 754.766L397.895 754.766L397.903 723.266L309.689 723.257L309.689 754.766ZM171.071 754.766L259.285 754.774L259.285 723.266L171.08 723.266L171.071 754.766ZM768.314 363.409L856.528 363.418L856.528 331.91L768.314 331.918L768.314 363.409ZM629.705 363.418L629.705 331.91L717.91 331.91L717.91 363.418L629.705 363.418ZM755.012 536.421L786.509 536.421L786.509 624.636L755.012 624.636L755.012 536.421ZM755.012 486.027L755.012 397.812L786.509 397.812L786.509 486.027L755.012 486.027ZM628.989 536.422L628.989 624.637L660.498 624.637L660.498 536.422L628.989 536.422ZM628.989 397.813L628.989 486.028L660.498 486.028L660.498 397.813L628.989 397.813ZM691.995 397.813L691.995 624.638L723.504 624.638L723.504 397.813L691.995 397.813ZM273.754 624.638L273.754 397.813L242.245 397.813L242.245 624.638L273.754 624.638ZM399.765 624.638L399.765 397.813L368.256 397.813L368.256 624.638L399.765 624.638ZM435.628 472.61L467.124 472.61L467.124 245.785L435.628 245.785L435.628 472.61Z" fill="url(#paint6_radial_10_10308)"/>
</g>
<g style="mix-blend-mode:color-burn" opacity="0.48">
<path fill-rule="evenodd" clip-rule="evenodd" d="M345.172 305.502L478.496 489.007L503.978 470.494L370.653 286.988L345.172 305.502ZM396.145 268.468L529.469 451.973L554.95 433.46L421.626 249.955L396.145 268.468ZM446.282 221.682L629.785 88.3586L611.265 62.868L427.762 196.191L446.282 221.682ZM483.31 272.661L666.814 139.338L648.306 113.849L464.802 247.173L483.31 272.661ZM950.959 533.544L767.455 666.868L785.975 692.358L969.479 559.035L950.959 533.544ZM507.292 700.034L323.788 833.357L342.31 858.836L525.814 725.513L507.292 700.034ZM151.841 591.179L335.344 457.855L316.836 432.367L133.333 565.69L151.841 591.179ZM114.813 540.199L298.316 406.876L279.795 381.397L96.2906 514.721L114.813 540.199ZM554.392 700.66L606.243 772.028L631.724 753.515L579.873 682.147L554.392 700.66ZM472.919 588.523L524.764 659.881L550.245 641.367L498.401 570.01L472.919 588.523ZM605.364 663.627L657.216 734.994L682.697 716.481L630.846 645.113L605.364 663.627ZM523.892 551.489L575.736 622.847L601.218 604.334L549.373 532.976L523.892 551.489ZM656.337 626.593L708.188 697.96L733.67 679.447L681.818 608.08L656.337 626.593ZM574.864 514.456L626.709 585.813L652.19 567.3L600.346 495.942L574.864 514.456ZM359.553 654.302L411.404 725.669L436.895 707.149L385.044 635.781L359.553 654.302ZM329.932 613.532L355.423 595.012L303.572 523.644L278.08 542.165L329.932 613.532ZM130.623 411.896L59.2632 463.742L77.7712 489.231L149.143 437.387L130.623 411.896ZM242.768 330.418L171.396 382.262L189.916 407.753L261.276 355.907L242.768 330.418ZM764.746 513.075L693.386 564.92L711.906 590.411L783.266 538.565L764.746 513.075ZM876.89 431.597L805.531 483.443L824.051 508.933L895.41 457.087L876.89 431.597ZM528.523 879.318L599.885 827.46L581.363 801.981L510.003 853.827L528.523 879.318ZM416.38 960.783L487.74 908.938L469.22 883.447L397.858 935.305L416.38 960.783ZM801.788 564.044L730.414 615.9L748.936 641.378L820.296 589.532L801.788 564.044ZM913.931 482.578L842.559 534.422L861.079 559.913L932.441 508.055L913.931 482.578ZM491.483 828.336L562.843 776.49L544.335 751.002L472.963 802.846L491.483 828.336ZM379.339 909.814L450.71 857.97L432.19 832.48L360.831 884.325L379.339 909.814ZM632.485 242.149L703.857 190.305L685.337 164.815L613.975 216.673L632.485 242.149ZM520.353 323.629L501.833 298.138L573.192 246.293L591.712 271.783L520.353 323.629ZM723.417 389.938L748.899 371.425L800.75 442.792L775.269 461.305L723.417 389.938ZM693.796 349.168L641.945 277.801L667.426 259.288L719.278 330.655L693.796 349.168ZM621.464 464.013L673.315 535.38L698.806 516.86L646.955 445.493L621.464 464.013ZM539.991 351.876L591.843 423.243L617.334 404.723L565.482 333.356L539.991 351.876ZM590.964 314.842L724.288 498.348L749.779 479.827L616.455 296.322L590.964 314.842ZM385.924 744.183L252.6 560.678L227.108 579.199L360.433 762.704L385.924 744.183ZM487.869 670.116L354.544 486.611L329.053 505.131L462.378 688.637L487.869 670.116ZM427.523 526.043L453.004 507.53L319.68 324.025L294.198 342.538L427.523 526.043Z" fill="url(#paint7_radial_10_10308)"/>
</g>
<g style="mix-blend-mode:color-burn" opacity="0.48">
<path fill-rule="evenodd" clip-rule="evenodd" d="M256.118 444.018L471.841 514.11L481.574 484.155L265.851 414.063L256.118 444.018ZM275.588 384.096L491.311 454.189L501.044 424.234L285.321 354.141L275.588 384.096ZM288.649 316.775L358.742 101.054L328.776 91.3171L258.683 307.039L288.649 316.775ZM348.571 336.254L418.663 120.532L388.708 110.79L318.615 326.512L348.571 336.254ZM880.25 272.436L810.158 488.157L840.124 497.894L910.216 282.172L880.25 272.436ZM619.176 667.909L549.084 883.631L579.045 893.357L649.137 677.635L619.176 667.909ZM267.626 788.773L337.719 573.051L307.763 563.309L237.671 779.03L267.626 788.773ZM207.705 769.294L277.797 553.572L247.837 543.847L177.745 759.568L207.705 769.294ZM657.649 640.732L741.546 667.991L751.279 638.036L667.382 610.777L657.649 640.732ZM525.824 597.899L609.709 625.155L619.442 595.2L535.557 567.944L525.824 597.899ZM677.119 580.81L761.016 608.07L770.749 578.115L686.852 550.855L677.119 580.81ZM545.293 537.977L629.179 565.233L638.912 535.278L555.026 508.022L545.293 537.977ZM696.588 520.888L780.486 548.148L790.219 518.193L706.321 490.933L696.588 520.888ZM564.763 478.055L648.649 505.312L658.382 475.356L574.496 448.1L564.763 478.055ZM472.772 717.75L556.669 745.01L566.406 715.043L482.509 687.784L472.772 717.75ZM424.844 702.178L434.581 672.211L350.684 644.951L340.947 674.918L424.844 702.178ZM145.081 656.202L117.824 740.09L147.78 749.832L175.047 665.938L145.081 656.202ZM187.917 524.368L160.649 608.262L190.615 617.998L217.872 534.11L187.917 524.368ZM717.568 365.329L690.311 449.217L720.278 458.954L747.534 375.065L717.568 365.329ZM760.404 233.495L733.147 317.383L763.113 327.12L790.37 243.231L760.404 233.495ZM741.733 800.474L768.984 716.574L739.024 706.849L711.767 790.737L741.733 800.474ZM698.892 932.297L726.149 848.408L696.183 838.672L668.931 922.571L698.892 932.297ZM777.495 384.791L750.233 468.695L780.193 478.421L807.45 394.533L777.495 384.791ZM820.336 252.968L793.068 336.861L823.034 346.598L850.286 262.699L820.336 252.968ZM681.801 781L709.058 697.112L679.103 687.37L651.835 771.264L681.801 781ZM638.965 912.834L666.233 828.94L636.267 819.204L609.01 903.092L638.965 912.834ZM451.322 223.886L478.59 139.992L448.624 130.256L421.372 214.155L451.322 223.886ZM408.497 355.715L378.531 345.978L405.788 262.09L435.754 271.826L408.497 355.715ZM611.755 290.001L621.488 260.046L705.386 287.306L695.653 317.261L611.755 290.001ZM563.828 274.428L479.93 247.168L489.663 217.213L573.561 244.473L563.828 274.428ZM572.813 409.856L656.711 437.116L666.447 407.149L582.55 379.889L572.813 409.856ZM440.988 367.023L524.885 394.283L534.622 364.317L450.725 337.057L440.988 367.023ZM460.458 307.102L676.181 377.195L685.918 347.228L470.195 277.135L460.458 307.102ZM546.938 774.965L331.214 704.873L321.478 734.839L537.201 804.932L546.938 774.965ZM585.877 655.122L370.154 585.029L360.417 614.996L576.14 685.089L585.877 655.122ZM452.372 574.035L462.105 544.08L246.382 473.987L236.649 503.942L452.372 574.035Z" fill="url(#paint8_radial_10_10308)"/>
</g>
<g style="mix-blend-mode:color-burn" opacity="0.48">
<path fill-rule="evenodd" clip-rule="evenodd" d="M265.49 608.424L481.214 538.331L471.481 508.376L255.757 578.468L265.49 608.424ZM246.02 548.502L461.744 478.409L452.011 448.454L236.287 518.547L246.02 548.502ZM217.018 486.361L146.925 270.639L116.959 280.376L187.051 496.098L217.018 486.361ZM276.944 466.899L206.852 251.177L176.891 260.903L246.984 476.624L276.944 466.899ZM669.57 102.755L739.663 318.476L769.629 308.74L699.536 93.0183L669.57 102.755ZM690.811 576.155L760.903 791.877L790.858 782.135L720.766 566.413L690.811 576.155ZM477.442 880.572L407.35 664.85L377.39 674.576L447.482 890.297L477.442 880.572ZM417.516 900.034L347.424 684.312L317.469 694.054L387.561 909.776L417.516 900.034ZM705.961 531.554L789.858 504.295L780.125 474.34L696.228 501.6L705.961 531.554ZM574.136 574.387L658.022 547.131L648.289 517.176L564.403 544.432L574.136 574.387ZM686.491 471.633L770.389 444.373L760.656 414.418L676.758 441.678L686.491 471.633ZM554.666 514.465L638.552 487.209L628.819 457.254L544.933 484.51L554.666 514.465ZM667.021 411.711L750.919 384.451L741.186 354.496L657.288 381.756L667.021 411.711ZM535.196 454.544L619.082 427.287L609.349 397.332L525.463 424.588L535.196 454.544ZM601.663 702.532L685.56 675.272L675.823 645.305L591.926 672.565L601.663 702.532ZM553.735 718.104L543.998 688.138L460.101 715.398L469.838 745.364L553.735 718.104ZM300.378 845.35L327.635 929.238L357.596 919.512L330.344 835.613L300.378 845.35ZM257.543 713.516L284.794 797.415L314.76 787.678L287.503 703.79L257.543 713.516ZM592.559 273.529L619.816 357.417L649.782 347.681L622.525 263.792L592.559 273.529ZM549.724 141.695L576.981 225.583L606.947 215.847L579.69 131.958L549.724 141.695ZM867.88 611.365L840.612 527.471L810.657 537.213L837.914 621.102L867.88 611.365ZM910.705 743.194L883.448 659.305L853.482 669.042L880.75 752.936L910.705 743.194ZM652.48 254.05L679.743 337.955L709.698 328.213L682.441 244.324L652.48 254.05ZM609.656 122.222L636.907 206.121L666.873 196.384L639.606 112.49L609.656 122.222ZM807.948 630.838L780.691 546.95L750.731 556.675L777.982 640.575L807.948 630.838ZM850.783 762.672L823.532 678.773L793.566 688.509L820.823 772.398L850.783 762.672ZM294.023 315.596L266.772 231.696L236.806 241.433L264.074 325.327L294.023 315.596ZM336.864 447.419L306.898 457.155L279.641 373.267L309.607 363.53L336.864 447.419ZM462.678 274.783L452.945 244.828L536.843 217.568L546.576 247.523L462.678 274.783ZM414.75 290.356L330.853 317.616L321.12 287.661L405.017 260.401L414.75 290.356ZM501.622 394.637L585.52 367.378L575.783 337.411L491.886 364.671L501.622 394.637ZM369.797 437.47L453.695 410.21L443.958 380.243L360.06 407.503L369.797 437.47ZM350.327 377.548L566.051 307.455L556.314 277.489L340.591 347.582L350.327 377.548ZM695.294 705.226L479.571 775.319L489.308 805.286L705.031 735.193L695.294 705.226ZM656.355 585.383L440.632 655.476L450.368 685.442L666.092 615.35L656.355 585.383ZM500.685 598.255L490.952 568.299L275.229 638.392L284.962 668.347L500.685 598.255Z" fill="url(#paint9_radial_10_10308)"/>
</g>
<g style="mix-blend-mode:color-burn" opacity="0.48">
<path fill-rule="evenodd" clip-rule="evenodd" d="M369.708 735.922L503.032 552.417L477.551 533.904L344.226 717.409L369.708 735.922ZM318.735 698.889L452.06 515.383L426.578 496.87L293.254 680.375L318.735 698.889ZM258.746 665.663L75.2421 532.34L56.722 557.83L240.226 691.154L258.746 665.663ZM295.788 614.694L112.284 481.37L93.7621 506.849L277.266 640.172L295.788 614.694ZM399.391 89.3155L582.895 222.639L601.415 197.148L417.911 63.8248L399.391 89.3155ZM694.832 459.82L878.336 593.143L896.844 567.654L713.34 434.331L694.832 459.82ZM701.145 831.512L517.641 698.189L499.12 723.668L682.623 856.991L701.145 831.512ZM664.103 882.482L480.6 749.158L462.092 774.647L645.595 907.97L664.103 882.482ZM680.873 414.832L732.725 343.464L707.244 324.951L655.392 396.319L680.873 414.832ZM599.401 526.969L651.245 455.611L625.764 437.098L573.92 508.456L599.401 526.969ZM629.901 377.798L681.752 306.431L656.271 287.917L604.42 359.285L629.901 377.798ZM548.429 489.935L600.273 418.578L574.791 400.064L522.947 471.422L548.429 489.935ZM578.928 340.764L630.78 269.397L605.298 250.884L553.447 322.251L578.928 340.764ZM497.456 452.902L549.3 381.544L523.819 363.031L471.975 434.388L497.456 452.902ZM696.992 614.46L748.844 543.093L723.353 524.572L671.501 595.94L696.992 614.46ZM667.371 655.23L641.88 636.71L590.029 708.077L615.52 726.597L667.371 655.23ZM537.194 907.093L608.554 958.939L627.076 933.46L555.714 881.602L537.194 907.093ZM425.05 825.615L496.411 877.473L514.931 851.982L443.572 800.136L425.05 825.615ZM437.466 272.741L508.826 324.586L527.346 299.096L455.986 247.25L437.466 272.741ZM325.321 191.263L396.681 243.109L415.201 217.618L343.841 165.772L325.321 191.263ZM858.78 384.226L787.409 332.382L768.901 357.871L840.26 409.717L858.78 384.226ZM970.913 465.706L899.553 413.86L881.033 439.351L952.405 491.195L970.913 465.706ZM474.494 221.761L545.867 273.617L564.375 248.128L493.015 196.282L474.494 221.761ZM362.361 140.281L433.723 192.139L452.243 166.648L380.871 114.805L362.361 140.281ZM821.74 435.207L750.38 383.362L731.859 408.84L803.22 460.698L821.74 435.207ZM933.885 516.685L862.523 464.827L844.003 490.318L915.363 542.164L933.885 516.685ZM220.671 482.248L149.31 430.39L130.79 455.881L202.161 507.725L220.671 482.248ZM332.814 563.714L314.294 589.205L242.934 537.359L261.455 511.868L332.814 563.714ZM333.127 350.097L307.646 331.584L359.497 260.217L384.979 278.73L333.127 350.097ZM303.506 390.867L251.655 462.235L226.173 443.721L278.025 372.354L303.506 390.867ZM435.082 424.171L486.934 352.803L461.443 334.283L409.591 405.65L435.082 424.171ZM353.61 536.308L405.461 464.941L379.97 446.42L328.119 517.787L353.61 536.308ZM302.637 499.274L435.962 315.769L410.471 297.248L277.146 480.754L302.637 499.274ZM774.326 561.605L641.001 745.11L666.493 763.63L799.817 580.125L774.326 561.605ZM672.381 487.538L539.057 671.043L564.548 689.563L697.872 506.058L672.381 487.538ZM554.007 589.451L528.526 570.938L395.202 754.443L420.683 772.956L554.007 589.451Z" fill="url(#paint10_radial_10_10308)"/>
</g>
</g>
<defs>
<linearGradient id="paint0_linear_10_10308" x1="123" y1="259.5" x2="1026" y2="1024" gradientUnits="userSpaceOnUse">
<stop stop-color="#FED546"/>
<stop offset="0.380208" stop-color="#94EFEF"/>
<stop offset="1" stop-color="#9721DF"/>
</linearGradient>
<radialGradient id="paint1_radial_10_10308" cx="0" cy="0" r="1" gradientUnits="userSpaceOnUse" gradientTransform="translate(514.588 511.798) rotate(-180) scale(476.861 425.837)">
<stop stop-color="#1DC6E2"/>
<stop offset="1" stop-color="#C7198F"/>
</radialGradient>
<radialGradient id="paint2_radial_10_10308" cx="0" cy="0" r="1" gradientUnits="userSpaceOnUse" gradientTransform="translate(514.436 511.336) rotate(144) scale(476.861 425.837)">
<stop stop-color="#1DC6E2"/>
<stop offset="1" stop-color="#C7198F"/>
</radialGradient>
<radialGradient id="paint3_radial_10_10308" cx="0" cy="0" r="1" gradientUnits="userSpaceOnUse" gradientTransform="translate(514.041 511.05) rotate(108) scale(476.861 425.837)">
<stop stop-color="#1DC6E2"/>
<stop offset="1" stop-color="#C7198F"/>
</radialGradient>
<radialGradient id="paint4_radial_10_10308" cx="0" cy="0" r="1" gradientUnits="userSpaceOnUse" gradientTransform="translate(513.555 511.049) rotate(72) scale(476.861 425.837)">
<stop stop-color="#1DC6E2"/>
<stop offset="1" stop-color="#C7198F"/>
</radialGradient>
<radialGradient id="paint5_radial_10_10308" cx="0" cy="0" r="1" gradientUnits="userSpaceOnUse" gradientTransform="translate(513.161 511.336) rotate(36) scale(476.861 425.837)">
<stop stop-color="#1DC6E2"/>
<stop offset="1" stop-color="#C7198F"/>
</radialGradient>
<radialGradient id="paint6_radial_10_10308" cx="0" cy="0" r="1" gradientUnits="userSpaceOnUse" gradientTransform="translate(513.011 511.798) scale(476.861 425.837)">
<stop stop-color="#1DC6E2"/>
<stop offset="1" stop-color="#C7198F"/>
</radialGradient>
<radialGradient id="paint7_radial_10_10308" cx="0" cy="0" r="1" gradientUnits="userSpaceOnUse" gradientTransform="translate(513.161 512.262) rotate(-36) scale(476.861 425.837)">
<stop stop-color="#1DC6E2"/>
<stop offset="1" stop-color="#C7198F"/>
</radialGradient>
<radialGradient id="paint8_radial_10_10308" cx="0" cy="0" r="1" gradientUnits="userSpaceOnUse" gradientTransform="translate(513.555 512.549) rotate(-72) scale(476.861 425.837)">
<stop stop-color="#1DC6E2"/>
<stop offset="1" stop-color="#C7198F"/>
</radialGradient>
<radialGradient id="paint9_radial_10_10308" cx="0" cy="0" r="1" gradientUnits="userSpaceOnUse" gradientTransform="translate(514.043 512.549) rotate(-108) scale(476.861 425.837)">
<stop stop-color="#1DC6E2"/>
<stop offset="1" stop-color="#C7198F"/>
</radialGradient>
<radialGradient id="paint10_radial_10_10308" cx="0" cy="0" r="1" gradientUnits="userSpaceOnUse" gradientTransform="translate(514.437 512.262) rotate(-144) scale(476.861 425.837)">
<stop stop-color="#1DC6E2"/>
<stop offset="1" stop-color="#C7198F"/>
</radialGradient>
<clipPath id="clip0_10_10308">
<rect width="1024" height="1024" fill="white"/>
</clipPath>
</defs>
</svg>
