<svg xmlns="http://www.w3.org/2000/svg" xmlns:xlink="http://www.w3.org/1999/xlink" xml:space="preserve" version="1.1" style="shape-rendering:geometricPrecision;text-rendering:geometricPrecision;image-rendering:optimizeQuality;" viewBox="0 0 60000 75000" x="0px" y="0px" fill-rule="evenodd" clip-rule="evenodd"><defs><style type="text/css">
   
    .fil0 {fill:black;fill-rule:nonzero}
   
  </style></defs><g><path class="fil0" d="M30000 4635c7004,0 13345,2839 17936,7429 4590,4590 7429,10931 7429,17936 0,7004 -2839,13345 -7429,17936 -4590,4590 -10931,7429 -17936,7429 -7004,0 -13345,-2839 -17936,-7429 -4590,-4590 -7429,-10931 -7429,-17936 0,-7004 2839,-13345 7429,-17936 4590,-4590 10931,-7429 17936,-7429zm17370 7995c-4165,-4165 -9818,-6841 -16094,-7162 4923,3675 8358,7755 10564,11969 2710,5176 3562,10550 3038,15621 -524,5070 -2424,9837 -5220,13803 -2204,3127 -4968,5758 -8057,7651 6146,-395 11676,-3051 15769,-7143 4445,-4445 7195,-10587 7195,-17370 0,-6783 -2750,-12925 -7195,-17370zm-34740 34740c4093,4093 9623,6748 15769,7143 -3089,-1893 -5852,-4525 -8057,-7651 -2796,-3967 -4696,-8734 -5220,-13803 -524,-5072 328,-10445 3038,-15621 2206,-4214 5641,-8295 10564,-11969 -6276,321 -11929,2997 -16094,7162 -4445,4445 -7195,10587 -7195,17370 0,6783 2750,12925 7195,17370zm8365 -968c2422,3436 5534,6254 9005,8112 3471,-1858 6582,-4676 9005,-8112 2176,-3086 3793,-6668 4615,-10499 -749,1725 -1815,3280 -3126,4590 -2686,2686 -6396,4347 -10494,4347 -4098,0 -7808,-1661 -10494,-4347 -1311,-1311 -2377,-2866 -3126,-4590 822,3831 2439,7413 4615,10499zm-2129 -28597c-991,1892 -1726,3812 -2230,5733 728,-1503 1702,-2865 2870,-4033 2686,-2686 6396,-4347 10494,-4347 4098,0 7808,1661 10494,4347 1168,1168 2142,2530 2870,4033 -504,-1921 -1239,-3840 -2230,-5733 -2269,-4335 -5881,-8531 -11134,-12281 -5253,3750 -8865,7946 -11134,12281zm21062 2266c-2541,-2541 -6051,-4112 -9928,-4112 -3877,0 -7388,1572 -9928,4112 -2361,2361 -3884,5558 -4089,9109 2048,-2604 4299,-4452 6620,-5667 3047,-1595 6210,-2097 9196,-1789 2984,308 5788,1426 8122,3071 1615,1138 3006,2531 4076,4085 -271,-3431 -1774,-6515 -4068,-8809zm0 19857c1984,-1984 3377,-4560 3893,-7440 -1045,1453 -2372,2758 -3900,3835 -2333,1645 -5138,2763 -8122,3071 -2986,309 -6149,-193 -9196,-1789 -2271,-1189 -4474,-2983 -6486,-5498 457,3033 1884,5749 3955,7820 2541,2541 6051,4112 9928,4112 3877,0 7388,-1572 9928,-4112zm4096 -9240c4,-80 7,-160 9,-241 -1070,-1923 -2653,-3646 -4572,-4999 -1486,-1048 -3172,-1871 -4973,-2391 641,374 1230,829 1752,1351 1556,1556 2518,3706 2518,6080 0,2374 -962,4524 -2518,6080 -661,661 -1429,1215 -2276,1633 1999,-504 3868,-1383 5498,-2532 1913,-1349 3493,-3066 4562,-4982zm-28055 -164c1,25 2,49 3,74 2144,2965 4534,5010 7000,6301 1122,587 2260,1018 3398,1310 -852,-419 -1626,-976 -2290,-1640 -1556,-1556 -2518,-3706 -2518,-6080 0,-2374 962,-4524 2518,-6080 522,-522 1111,-977 1753,-1352 -959,283 -1916,667 -2861,1162 -2467,1291 -4858,3338 -7003,6305zm19705 -5550c-1048,-1048 -2394,-1799 -3899,-2116 1162,1034 2019,2145 2614,3285 922,1767 1213,3601 1034,5332 -178,1729 -825,3354 -1777,4709 -507,721 -1102,1367 -1759,1911 1460,-330 2765,-1070 3787,-2092 1411,-1411 2284,-3361 2284,-5514 0,-2154 -873,-4103 -2284,-5514zm-5367 -2283c-49,-1 -98,-2 -148,-2 -34,0 -69,0 -103,1 -1580,1179 -2678,2481 -3377,3821 -73,140 -142,281 -206,422 21,-22 43,-44 65,-66 927,-927 2207,-1500 3621,-1500 1414,0 2695,573 3621,1500 51,51 100,102 149,155 -76,-171 -158,-341 -247,-511 -699,-1340 -1796,-2641 -3376,-3820zm-148 15596c18,0 35,0 53,0 1069,-604 2028,-1491 2781,-2562 402,-571 744,-1195 1013,-1855 -73,83 -148,163 -226,241 -927,927 -2207,1500 -3621,1500 -1414,0 -2695,-573 -3621,-1500 -49,-49 -98,-100 -145,-151 263,627 593,1220 976,1766 753,1072 1712,1959 2782,2563l9 0zm-5514 -2284c1036,1036 2363,1782 3847,2105 -664,-547 -1265,-1197 -1776,-1925 -952,-1355 -1598,-2980 -1777,-4709 -179,-1731 112,-3565 1034,-5332 597,-1145 1458,-2259 2628,-3297 -1528,310 -2894,1067 -3956,2128 -1411,1411 -2284,3361 -2284,5514 0,2154 873,4103 2284,5514zm8570 -8570c-782,-782 -1862,-1266 -3056,-1266 -1193,0 -2274,484 -3056,1266 -782,782 -1266,1862 -1266,3056 0,1193 484,2274 1266,3056 782,782 1862,1266 3056,1266 1193,0 2274,-484 3056,-1266 782,-782 1266,-1862 1266,-3056 0,-1193 -484,-2274 -1266,-3056z"/></g><text x="0" y="60015" fill="#000000" font-size="5px" font-weight="bold" font-family="'Helvetica Neue', Helvetica, Arial-Unicode, Arial, Sans-serif">Created by Olena Panasovska</text><text x="0" y="60020" fill="#000000" font-size="5px" font-weight="bold" font-family="'Helvetica Neue', Helvetica, Arial-Unicode, Arial, Sans-serif">from the Noun Project</text></svg>