<svg xmlns="http://www.w3.org/2000/svg" viewBox="0 0 1000 1250" version="1.1" x="0px" y="0px"><g><path fill="#000000" opacity="1.00" d=" M 632.69 144.74 C 637.56 140.82 644.71 139.92 650.31 142.79 C 654.30 144.88 657.85 147.77 660.94 151.05 C 685.64 176.31 710.50 201.41 735.32 226.55 C 738.50 230.63 742.07 234.83 743.38 239.95 C 750.97 276.28 758.25 312.68 765.81 349.02 C 767.40 354.81 769.26 361.45 766.04 367.05 C 744.87 403.75 723.39 440.28 702.22 476.98 C 727.07 496.02 751.72 515.33 776.53 534.43 C 779.29 536.60 782.33 538.65 784.19 541.74 C 786.40 545.08 786.50 549.20 787.25 553.02 C 788.02 557.06 786.66 561.06 785.75 564.96 C 765.11 648.24 744.60 731.56 724.00 814.86 C 721.45 821.79 716.79 829.28 708.86 830.55 C 665.27 838.63 621.62 846.44 578.01 854.43 C 570.78 856.13 562.04 854.91 557.15 848.82 C 549.29 839.30 541.53 829.69 533.78 820.08 C 519.28 831.48 505.05 843.23 490.58 854.67 C 486.10 858.39 479.80 859.59 474.27 857.77 C 468.69 856.36 464.49 852.23 459.97 848.94 C 454.66 845.01 449.46 840.91 444.08 837.08 C 441.29 838.51 438.31 839.69 435.12 839.78 C 397.75 842.89 360.39 845.86 323.00 848.71 C 313.77 849.74 306.38 842.01 303.79 833.83 C 302.62 827.59 302.71 821.21 301.99 814.93 C 300.54 796.45 299.10 777.97 297.43 759.52 C 250.87 711.11 204.63 662.39 158.11 613.95 C 151.68 607.58 144.34 599.89 145.46 590.06 C 147.90 546.05 150.10 502.04 152.38 458.04 C 152.45 451.00 157.69 444.53 164.40 442.63 C 168.57 441.59 172.84 442.53 176.99 443.20 C 200.35 445.30 223.67 447.69 247.03 449.73 C 251.89 450.35 256.45 452.61 260.18 455.74 C 264.72 459.42 269.39 462.92 273.89 466.65 C 270.71 422.73 266.94 378.86 263.53 334.96 C 263.21 330.32 264.91 325.52 268.25 322.25 C 276.58 315.29 283.27 306.66 290.90 298.98 C 321.11 266.48 351.43 234.08 381.65 201.59 C 384.91 198.24 387.78 194.18 392.24 192.34 C 395.64 190.83 399.49 191.09 403.12 191.36 C 407.53 191.77 411.33 194.55 414.11 197.88 C 434.07 220.51 453.91 243.25 473.86 265.89 C 526.78 225.48 579.76 185.14 632.69 144.74 M 654.94 192.57 C 644.25 238.09 632.78 283.43 622.08 328.94 C 647.94 299.14 674.29 269.76 700.32 240.10 C 701.53 239.26 699.99 238.23 699.51 237.56 C 684.59 222.63 669.95 207.41 654.94 192.57 M 495.80 290.86 C 501.40 297.38 507.18 303.74 512.78 310.26 C 515.26 313.59 519.61 314.21 523.20 315.77 C 543.84 323.80 564.49 331.82 585.12 339.87 C 596.75 291.99 608.39 244.10 619.96 196.21 C 578.60 227.79 537.25 259.39 495.80 290.86 M 412.74 246.68 C 403.33 276.57 393.22 306.25 383.96 336.19 C 415.63 331.52 447.27 326.68 478.97 322.15 C 456.97 296.92 434.80 271.85 412.74 246.68 M 359.36 274.29 C 344.56 290.04 329.89 305.92 315.12 321.70 C 321.94 324.41 328.98 326.54 335.83 329.19 C 340.44 330.76 344.90 332.81 349.67 333.88 C 357.67 308.91 365.79 283.98 373.90 259.05 C 368.75 263.83 364.13 269.14 359.36 274.29 M 649.41 347.87 C 676.49 346.06 703.57 344.30 730.64 342.49 C 725.61 319.13 720.94 295.69 716.15 272.27 C 694.00 297.56 671.74 322.75 649.41 347.87 M 298.09 351.06 C 307.35 465.69 316.50 580.33 325.67 694.96 C 329.09 734.81 331.85 774.70 335.36 814.54 C 350.23 813.41 365.07 811.64 379.97 811.22 C 379.35 811.07 378.73 810.93 378.12 810.80 C 383.39 810.66 388.66 810.32 393.90 809.71 C 397.98 809.18 402.27 809.90 406.20 808.42 C 401.85 805.25 397.59 801.96 393.26 798.77 C 389.53 796.07 386.45 792.27 385.22 787.78 C 372.79 727.57 360.44 667.32 348.07 607.09 C 345.94 597.40 352.03 588.49 358.59 582.00 C 358.32 570.96 356.97 559.98 356.43 548.96 C 351.68 488.35 347.29 427.73 342.66 367.11 C 327.90 361.51 313.00 356.24 298.09 351.06 M 526.76 352.99 C 523.35 383.34 519.34 413.63 516.11 444.00 C 538.16 420.71 560.49 397.70 582.60 374.48 C 563.94 367.44 545.48 359.83 526.76 352.99 M 442.07 361.14 C 420.15 364.24 398.31 367.86 376.38 370.77 C 378.06 399.19 380.78 427.57 382.66 455.99 C 384.95 485.85 387.04 515.74 389.49 545.61 C 406.04 525.50 423.15 505.85 439.87 485.87 C 445.35 479.17 455.00 474.67 463.38 478.73 C 468.44 481.69 472.55 486.03 477.08 489.74 C 482.57 444.32 487.84 398.88 493.29 353.47 C 476.24 356.16 459.15 358.65 442.07 361.14 M 620.31 383.17 C 585.41 419.65 550.44 456.05 515.55 492.53 C 513.75 494.47 511.74 496.18 509.61 497.74 C 508.71 503.29 509.17 509.25 506.44 514.34 C 516.85 523.77 527.89 532.48 538.41 541.78 C 562.73 503.86 586.46 465.54 610.68 427.54 C 615.78 420.23 627.01 418.57 634.02 424.10 C 648.00 434.76 661.76 445.70 675.78 456.32 C 691.25 429.69 706.63 402.99 722.29 376.47 C 688.30 378.62 654.29 380.69 620.31 383.17 M 648.68 477.46 C 657.70 521.35 666.64 565.26 675.74 609.13 C 697.56 589.13 719.36 569.11 741.10 549.03 C 710.28 525.18 679.48 501.32 648.68 477.46 M 205.11 479.26 C 212.56 497.83 220.27 516.30 227.46 534.97 C 230.93 517.40 234.35 499.81 237.91 482.26 C 226.98 481.28 216.06 480.06 205.11 479.26 M 600.63 505.64 C 588.46 524.88 576.43 544.21 564.13 563.37 C 568.79 567.61 573.74 571.53 578.51 575.65 C 582.22 578.62 584.78 583.11 584.96 587.92 C 585.05 593.74 584.66 599.55 584.11 605.35 C 604.57 612.38 625.00 619.50 645.40 626.71 C 639.54 598.48 633.87 570.21 627.96 541.99 C 624.15 521.95 619.49 502.09 615.87 482.02 C 610.30 489.56 605.81 497.83 600.63 505.64 M 254.21 570.25 C 264.24 581.48 274.70 592.30 284.79 603.47 C 284.47 592.25 283.12 581.09 282.40 569.89 C 280.67 550.58 279.34 531.22 277.55 511.92 C 274.28 509.19 270.88 506.62 267.62 503.88 C 262.85 525.94 258.82 548.16 254.21 570.25 M 182.83 512.86 C 181.65 531.76 180.97 550.71 179.69 569.60 C 187.26 566.78 194.83 563.95 202.34 560.99 C 195.73 544.98 189.43 528.86 182.83 512.86 M 475.59 531.94 C 475.44 559.72 475.34 587.50 475.29 615.28 C 495.12 604.24 514.90 593.11 534.80 582.19 C 515.07 565.42 495.29 548.74 475.59 531.94 M 392.58 593.10 C 409.15 600.38 425.54 608.07 442.07 615.46 C 442.20 588.40 442.30 561.35 442.41 534.29 C 425.83 553.91 409.20 573.50 392.58 593.10 M 191.60 600.88 C 225.63 636.30 259.44 671.94 293.50 707.33 C 291.88 690.27 290.77 673.17 289.18 656.11 C 286.84 654.36 284.74 652.32 282.84 650.12 C 263.51 629.44 244.42 608.52 225.00 587.92 C 213.92 592.40 202.56 596.13 191.60 600.88 M 672.52 657.27 C 665.06 707.32 657.88 757.43 650.60 807.51 C 664.91 804.68 679.31 802.27 693.64 799.52 C 710.63 729.81 728.16 660.24 745.07 590.52 C 720.94 612.83 696.67 635.00 672.52 657.27 M 477.24 652.15 C 480.89 686.15 484.45 720.17 488.29 754.15 C 490.44 772.46 491.97 790.85 494.38 809.13 C 508.63 797.37 523.23 786.06 537.46 774.28 C 540.41 733.89 544.19 693.56 546.82 653.15 C 546.94 653.72 547.07 654.30 547.21 654.89 C 547.58 640.38 549.32 625.94 550.38 611.47 C 526.00 625.01 501.68 638.68 477.24 652.15 M 386.00 626.57 C 395.90 674.89 405.86 723.20 415.74 771.52 C 416.10 772.88 416.20 774.53 417.53 775.37 C 431.89 786.26 446.35 797.04 460.72 807.93 C 454.94 756.18 449.60 704.36 443.68 652.62 C 424.39 644.09 405.28 635.14 386.00 626.57 M 581.54 639.39 C 578.30 679.14 575.13 718.91 571.96 758.67 C 570.69 769.29 571.74 780.44 567.33 790.45 C 565.92 794.29 562.55 796.78 559.61 799.40 C 565.55 806.38 571.23 813.58 577.03 820.68 C 590.15 818.46 603.30 816.27 616.32 813.46 C 616.89 806.61 618.21 799.85 619.07 793.04 C 625.64 748.54 632.02 704.02 638.53 659.52 C 619.59 652.67 600.42 646.42 581.54 639.39 Z"/><path fill="#000000" opacity="1.00" d=" M 779.61 158.69 C 785.19 153.62 794.81 154.71 799.14 160.89 C 802.07 164.36 801.98 169.08 801.88 173.36 C 807.00 173.03 812.77 173.33 816.42 177.47 C 822.17 183.00 821.23 193.29 814.68 197.77 C 811.04 200.70 806.24 200.47 801.86 200.36 C 801.95 204.80 802.21 209.71 799.25 213.39 C 794.64 220.10 783.72 220.72 778.43 214.51 C 774.71 210.81 774.67 205.26 774.91 200.38 C 770.13 200.62 764.83 200.34 761.28 196.68 C 754.89 191.11 755.97 179.63 763.33 175.40 C 766.70 172.93 771.00 173.37 774.93 173.34 C 774.42 168.11 775.26 162.18 779.61 158.69 Z"/><path fill="#000000" opacity="1.00" d=" M 213.38 212.46 C 222.48 208.90 233.52 215.39 235.09 224.96 C 237.34 234.61 229.04 245.06 219.07 244.67 C 210.05 245.26 201.90 236.99 202.30 228.02 C 202.14 221.15 206.93 214.66 213.38 212.46 Z"/><path fill="#000000" opacity="1.00" d=" M 141.41 327.43 C 146.36 321.37 156.60 321.35 161.57 327.40 C 165.07 330.93 165.15 336.12 165.00 340.76 C 169.79 340.53 175.13 340.60 178.83 344.14 C 184.91 349.24 184.79 359.59 178.56 364.52 C 174.90 367.97 169.66 367.91 164.97 367.74 C 165.11 372.52 165.25 377.95 161.63 381.62 C 156.82 387.59 146.96 387.89 141.86 382.14 C 137.86 378.49 137.84 372.76 138.05 367.76 C 133.86 367.80 129.26 367.97 125.80 365.19 C 119.21 360.80 118.20 350.40 123.91 344.88 C 127.42 340.86 133.06 340.42 138.04 340.74 C 137.87 336.13 137.93 330.94 141.41 327.43 Z"/><path fill="#000000" opacity="1.00" d=" M 849.41 354.60 C 858.99 351.71 869.74 359.06 870.38 369.06 C 871.65 378.82 862.75 388.04 852.98 387.30 C 844.94 386.90 837.82 380.05 837.39 371.96 C 836.60 364.26 841.96 356.62 849.41 354.60 Z"/><path fill="#000000" opacity="1.00" d=" M 221.57 369.77 C 228.04 367.96 235.59 369.78 239.69 375.33 C 246.13 382.95 243.42 395.97 234.39 400.29 C 226.11 405.09 214.50 400.64 211.27 391.72 C 207.61 383.18 212.71 372.44 221.57 369.77 Z"/><path fill="#000000" opacity="1.00" d=" M 790.46 446.69 C 799.72 444.38 809.73 451.61 810.56 461.08 C 811.86 470.54 803.51 479.89 793.93 479.46 C 785.14 479.72 777.18 471.77 777.46 462.98 C 777.16 455.34 783.07 448.26 790.46 446.69 Z"/><path fill="#000000" opacity="1.00" d=" M 837.67 523.72 C 842.21 516.89 853.21 516.21 858.55 522.45 C 862.10 525.98 862.33 531.25 862.12 535.95 C 867.03 535.73 872.56 535.92 876.25 539.68 C 882.22 544.99 881.69 555.47 875.21 560.14 C 871.56 563.23 866.59 563.05 862.11 562.94 C 862.26 567.71 862.32 573.05 858.87 576.80 C 853.96 582.84 843.90 583.09 838.79 577.18 C 834.93 573.49 834.94 567.89 835.14 562.96 C 829.51 563.42 823.03 562.33 819.73 557.23 C 815.11 551.15 817.21 541.45 823.92 537.83 C 827.24 535.67 831.35 536.00 835.13 535.96 C 835.02 531.77 834.94 527.20 837.67 523.72 Z"/><path fill="#000000" opacity="1.00" d=" M 184.43 725.72 C 194.30 722.55 205.62 730.63 205.54 741.04 C 206.25 750.16 198.04 758.48 188.97 758.25 C 180.62 758.43 172.97 751.39 172.41 743.07 C 171.62 735.39 176.97 727.68 184.43 725.72 Z"/></g><text x="0" y="1015" fill="#000000" font-size="5px" font-weight="bold" font-family="'Helvetica Neue', Helvetica, Arial-Unicode, Arial, Sans-serif">Created by LSE Designs</text><text x="0" y="1020" fill="#000000" font-size="5px" font-weight="bold" font-family="'Helvetica Neue', Helvetica, Arial-Unicode, Arial, Sans-serif">from the Noun Project</text></svg>