<svg xmlns="http://www.w3.org/2000/svg" xmlns:xlink="http://www.w3.org/1999/xlink" version="1.1" x="0px" y="0px" viewBox="0 0 64 80" style="enable-background:new 0 0 64 64;" xml:space="preserve"><g><path d="M43.894,14.59c5.629-0.411,9.533-1.062,10.831-1.635c-2.783-0.573-6.431-1.108-10.832-1.477C43.956,11.978,44,12.483,44,13   C44,13.53,43.96,14.064,43.894,14.59z"/><rect x="30" y="43" width="4" height="8"/><path d="M27.27,33c-0.162,0-0.323-0.013-0.485-0.019L26.28,35h1.939l0.5-2H27.27z"/><polygon points="30.78,33 30.28,35 33.72,35 33.22,33  "/><path d="M37.72,35l-0.505-2.019C37.053,32.987,36.893,33,36.73,33h-1.45l0.5,2H37.72z"/><polygon points="30.618,37 32,39.764 33.382,37  "/><polygon points="34.465,41 37.132,37 35.618,37 33.618,41  "/><path d="M20,13c0-0.517,0.044-1.022,0.107-1.522c-4.449,0.369-8.052,0.879-10.777,1.422c1.361,0.589,5.241,1.251,10.776,1.672   C20.04,14.051,20,13.523,20,13z"/><path d="M32,15c3.6,0,6.906-0.106,9.842-0.276C41.935,14.16,42,13.581,42,13c0-5.514-4.486-10-10-10S22,7.486,22,13   c0,0.574,0.065,1.149,0.159,1.712C25.096,14.889,28.403,15,32,15z M32,5c4.411,0,8,3.589,8,8h-2c0-3.309-2.691-6-6-6V5z"/><path d="M19.037,20.451c-0.041-0.003-0.082-0.007-0.124-0.01l-3.071,2.834c0.876,2.183,2.335,4.051,4.263,5.43   c0.188,0.134,0.383,0.256,0.577,0.379l3.633-3.354L19.037,20.451z M19,26c-0.552,0-1-0.448-1-1c0-0.552,0.448-1,1-1s1,0.448,1,1   C20,25.552,19.552,26,19,26z"/><path d="M14.73,20.027l0.396,1.189l1.109-1.023C15.73,20.14,15.228,20.086,14.73,20.027z"/><polygon points="26.868,37 29.535,41 30.382,41 28.382,37  "/><rect x="21" y="59" width="22" height="2"/><path d="M48.874,21.216l0.384-1.151c-0.487,0.054-0.975,0.105-1.465,0.154L48.874,21.216z"/><path d="M22.566,30.068C24.046,30.681,25.636,31,27.27,31h2.316l-3.854-3.854L22.566,30.068z"/><path d="M27.203,25.789L32,30.586l4.797-4.797L32,21.361L27.203,25.789z M33,26c0,0.552-0.448,1-1,1c-0.552,0-1-0.448-1-1   c0-0.552,0.448-1,1-1C32.552,25,33,25.448,33,26z"/><path d="M44.947,20.467l-5.264,5.264l3.633,3.354c0.194-0.123,0.389-0.245,0.577-0.379c1.928-1.378,3.388-3.247,4.263-5.43   l-3.056-2.821C45.05,20.458,44.998,20.463,44.947,20.467z M46,25c0,0.552-0.448,1-1,1s-1-0.448-1-1c0-0.552,0.448-1,1-1   S46,24.448,46,25z"/><path d="M25.788,24.373l3.684-3.4c-2.137-0.041-4.691-0.135-7.386-0.302L25.788,24.373z"/><path d="M38.268,27.146L34.414,31h2.316c1.633,0,3.223-0.319,4.703-0.932L38.268,27.146z"/><path d="M56.961,13.469c-0.211,0.945-1.508,1.905-8.289,2.692C44.074,16.694,37.998,17,32,17c-5.951,0-12.029-0.323-16.677-0.886   c-6.699-0.812-8.043-1.766-8.278-2.704C4.705,14,3.359,14.582,3.03,15.017C4.048,16.632,15.855,19,32,19   c16.402,0,27.952-2.279,28.97-3.894C60.638,14.652,59.255,14.061,56.961,13.469z"/><path d="M34.52,20.965l3.693,3.408l3.701-3.701C38.96,20.846,36.332,20.927,34.52,20.965z"/><polygon points="34.697,53 29.303,53 23.303,57 40.697,57  "/></g><text x="0" y="79" fill="#000000" font-size="5px" font-weight="bold" font-family="'Helvetica Neue', Helvetica, Arial-Unicode, Arial, Sans-serif">Created by Eucalyp</text><text x="0" y="84" fill="#000000" font-size="5px" font-weight="bold" font-family="'Helvetica Neue', Helvetica, Arial-Unicode, Arial, Sans-serif">from the Noun Project</text></svg>