<svg xmlns="http://www.w3.org/2000/svg" xmlns:xlink="http://www.w3.org/1999/xlink" version="1.1" x="0px" y="0px" viewBox="0 0 512 640" style="enable-background:new 0 0 512 512;" xml:space="preserve"><g><path d="M423.935,1.04h-94.496c-11.286,0-20.478,9.184-20.478,20.478v99.192l-63.562-75.755c-3.524-4.189-8.461-6.757-13.896-7.239   c-5.419-0.432-10.754,1.197-14.943,4.712l-72.389,60.737c-4.189,3.524-6.765,8.461-7.247,13.913   c-0.465,5.452,1.213,10.754,4.721,14.951l63.756,75.978l-97.398-17.178c-11.037-1.928-21.758,5.527-23.703,16.63l-16.406,93.05   c-0.964,5.386,0.249,10.821,3.374,15.292c3.142,4.488,7.829,7.48,13.231,8.427l97.692,17.217L96.533,390.9   c-4.737,2.743-8.112,7.147-9.541,12.433c-1.413,5.286-0.682,10.804,2.045,15.542l47.24,81.83c2.759,4.754,7.181,8.145,12.483,9.558   c1.745,0.465,3.524,0.698,5.302,0.698c3.557,0,7.048-0.931,10.206-2.759l235.084-135.718c4.737-2.743,8.112-7.147,9.541-12.433   c1.413-5.286,0.681-10.804-2.044-15.542l-12.01-20.799c3.435-2.72,6.245-6.191,7.994-10.267h21.104   c11.303,0,20.495-9.192,20.495-20.478V21.518C444.43,10.224,435.238,1.04,423.935,1.04z M86.859,310.832   c-1.812-0.332-3.374-1.33-4.421-2.826c-1.064-1.513-1.463-3.324-1.147-5.136l16.406-93.05c0.665-3.707,4.205-6.217,7.962-5.585   l267.314,47.14c1.795,0.332,3.374,1.33,4.421,2.826c1.047,1.513,1.463,3.324,1.147,5.136l-3.085,17.544   c-2.344,0.272-4.613,0.768-6.731,1.613l-9.133-15.8c-2.743-4.754-7.164-8.161-12.45-9.574c-5.302-1.396-10.804-0.698-15.525,2.061   l-10.202,5.889l0.744-4.227c0.665-3.707-1.812-7.231-5.518-7.879l-43.466-7.663c-3.79-0.781-7.231,1.828-7.879,5.518l-9.158,51.933   l-24.98,14.422l12.379-70.195c0.316-1.779-0.083-3.607-1.114-5.086c-1.047-1.479-2.626-2.493-4.405-2.792l-43.483-7.663   c-1.779-0.366-3.607,0.083-5.086,1.13c-1.479,1.031-2.493,2.61-2.792,4.388l-13.846,78.589c-0.665,3.707,1.812,7.231,5.518,7.879   l32.161,5.682l-9.969,5.756L86.859,310.832z M306.99,225.925l26.438-22.188l19.631,23.404l-6.811,5.709L306.99,225.925z    M391.34,303.053c0,7.081-5.768,12.832-12.849,12.832s-12.849-5.751-12.849-12.832c0-7.081,5.768-12.849,12.849-12.849   S391.34,295.972,391.34,303.053z M307.582,261.182l-1.543,8.765l-34.522,19.929l5.995-33.996L307.582,261.182z M228.943,247.319   l-11.486,65.191l-30.069-5.302l11.486-65.191L228.943,247.319z M395.046,351.323c1.895,3.275,0.765,7.463-2.51,9.358   L157.435,496.416c-1.562,0.881-3.408,1.18-5.169,0.681c-1.779-0.465-3.275-1.612-4.189-3.208l-47.24-81.83   c-0.914-1.579-1.164-3.424-0.681-5.203c0.465-1.762,1.596-3.241,3.191-4.155l162.38-93.748l49.9-28.811   c0.212-0.127,0.433-0.213,0.63-0.364l22.191-12.812c1.546-0.881,3.374-1.213,5.169-0.682c1.779,0.465,3.258,1.612,4.172,3.208   l9.98,17.281c-3.55,4.507-5.758,10.114-5.758,16.279c0,14.594,11.885,26.462,26.479,26.462c1.282,0,2.51-0.202,3.744-0.378   L395.046,351.323z M395.125,282.625c-1.888-1.541-3.921-2.904-6.185-3.882l2.998-17.046c0.964-5.385-0.249-10.821-3.391-15.292   c-3.125-4.488-7.829-7.48-13.214-8.427l-11.581-2.042l3.27-2.745c1.396-1.164,2.261-2.826,2.41-4.621   c0.166-1.812-0.399-3.59-1.562-4.97l-28.39-33.834c-1.164-1.38-2.826-2.244-4.621-2.402c-1.795-0.158-3.59,0.407-4.97,1.571   l-40.401,33.903l-28.375-5.004l54.58-45.803c2.892-2.419,3.258-6.715,0.848-9.591l-28.374-33.826   c-1.164-1.388-2.826-2.252-4.621-2.41c-1.795-0.183-3.59,0.407-4.97,1.562l-61.136,51.304c-2.892,2.418-3.258,6.715-0.848,9.591   l20.989,25.023l-11.32-1.997l-74.18-88.417c-1.18-1.405-1.745-3.183-1.579-5.012c0.15-1.828,1.014-3.482,2.41-4.654l72.389-60.737   c1.413-1.172,3.208-1.77,5.003-1.579c1.828,0.158,3.474,1.014,4.654,2.427l174.481,207.932c1.18,1.413,1.745,3.191,1.579,5.02   c-0.15,1.828-1.014,3.474-2.41,4.654L395.125,282.625z M251.034,208.524l-19.631-23.395l50.697-42.552l19.631,23.395   L251.034,208.524z M375.264,199.731h34.509v30.535h-8.89L375.264,199.731z M430.8,292.963c0,3.773-3.075,6.848-6.865,6.848h-19.294   c-0.266-2.139-0.73-4.205-1.477-6.156l14.189-11.895c4.189-3.524,6.765-8.461,7.247-13.913c0.465-5.452-1.213-10.754-4.721-14.943   l-7.559-9.009h4.268c3.757,0,6.815-3.058,6.815-6.815v-44.156c0-3.757-3.058-6.807-6.815-6.807h-52.747l-18.521-22.074h71.268   c3.757,0,6.815-3.05,6.815-6.807v-44.148c0-3.757-3.058-6.807-6.815-6.807h-79.802c-3.757,0-6.815,3.05-6.815,6.807v32.661   l-7.38-8.795V21.518c0-3.781,3.075-6.865,6.848-6.865h94.496c3.79,0,6.865,3.083,6.865,6.865V292.963z M343.601,150.43v-30.535   h66.172v30.535H343.601z"/><path d="M416.588,26.438h-79.802c-3.757,0-6.815,3.05-6.815,6.807v44.156c0,3.757,3.058,6.807,6.815,6.807h79.802   c3.757,0,6.815-3.05,6.815-6.807V33.245C423.403,29.488,420.345,26.438,416.588,26.438z M409.773,70.595h-66.172V40.052h66.172   V70.595z"/><path d="M236.855,67.453c-1.164-1.388-2.826-2.252-4.621-2.41c-1.795-0.133-3.59,0.399-4.97,1.562l-61.136,51.304   c-2.892,2.418-3.258,6.715-0.848,9.591l28.374,33.826c1.164,1.388,2.826,2.252,4.621,2.41c0.199,0.017,0.399,0.025,0.598,0.025   c1.596,0,3.142-0.557,4.372-1.587l61.136-51.304c2.892-2.418,3.258-6.715,0.848-9.591L236.855,67.453z M199.722,147.363   l-19.631-23.395l50.697-42.552l19.631,23.395L199.722,147.363z"/><path d="M159.397,221.239l-43.483-7.663c-3.823-0.831-7.231,1.812-7.879,5.518l-13.863,78.589   c-0.665,3.707,1.812,7.231,5.518,7.879l43.483,7.679c0.382,0.083,0.781,0.116,1.18,0.116c1.38,0,2.759-0.432,3.906-1.23   c1.479-1.047,2.493-2.626,2.792-4.405l13.863-78.605c0.316-1.779-0.083-3.607-1.114-5.086   C162.754,222.552,161.175,221.539,159.397,221.239z M138.835,298.648l-30.069-5.302l11.486-65.191l30.069,5.302L138.835,298.648z"/><path d="M164.749,383.652c-1.895-3.258-6.05-4.338-9.308-2.493l-38.247,22.074c-1.562,0.914-2.709,2.394-3.175,4.139   s-0.216,3.607,0.681,5.169l39.909,69.114c1.263,2.177,3.557,3.408,5.901,3.408c1.164,0,2.327-0.299,3.408-0.914l38.247-22.074   c1.562-0.914,2.709-2.394,3.175-4.139c0.465-1.745,0.216-3.607-0.682-5.169L164.749,383.652z M163.004,468.956l-33.094-57.329   l26.446-15.276l33.094,57.329L163.004,468.956z"/><path d="M233.896,343.727c-1.895-3.258-6.067-4.338-9.308-2.493l-38.247,22.074c-1.562,0.914-2.709,2.394-3.175,4.139   c-0.465,1.745-0.216,3.607,0.682,5.169l39.909,69.114c1.263,2.177,3.557,3.408,5.901,3.408c1.164,0,2.327-0.299,3.408-0.914   l38.23-22.074c3.258-1.878,4.372-6.05,2.493-9.308L233.896,343.727z M232.151,429.014l-33.094-57.313l26.446-15.276l33.094,57.329   L232.151,429.014z"/><path d="M303.027,303.801c-0.914-1.562-2.394-2.709-4.139-3.175c-1.762-0.449-3.607-0.216-5.169,0.681l-38.23,22.091   c-3.258,1.878-4.372,6.05-2.493,9.308l39.893,69.114c0.914,1.562,2.394,2.709,4.139,3.175c0.582,0.15,1.164,0.233,1.762,0.233   c1.18,0,2.36-0.316,3.408-0.914l38.247-22.091c3.258-1.878,4.372-6.05,2.493-9.308L303.027,303.801z M301.282,389.104   l-33.094-57.313l26.446-15.276l33.094,57.313L301.282,389.104z"/></g><text x="0" y="527" fill="#000000" font-size="5px" font-weight="bold" font-family="'Helvetica Neue', Helvetica, Arial-Unicode, Arial, Sans-serif">Created by Econceptive</text><text x="0" y="532" fill="#000000" font-size="5px" font-weight="bold" font-family="'Helvetica Neue', Helvetica, Arial-Unicode, Arial, Sans-serif">from the Noun Project</text></svg>