<svg xmlns="http://www.w3.org/2000/svg" xmlns:xlink="http://www.w3.org/1999/xlink" version="1.1" x="0px" y="0px" viewBox="0 0 100 125" enable-background="new 0 0 100 100" xml:space="preserve">
  <g><path display="inline" d="M79.386,25.958V1.88h-0.002L78.299,0h-2.17l-1.087,1.88l0,0v1.864c-16.669,1.309-33.416,1.309-50.085,0   V1.88l0,0L23.871,0h-2.17l-1.085,1.88h-0.002v24.078h-6.08v3.379h6.08V44.3L46.93,70.615l-9.845,9.844h-9.883v3.379h6.505   L21.176,96.369v0.001l-0.562,2.095L22.15,100l2.096-0.562v0.002l15.603-15.602h20.304l15.603,15.602v-0.002L77.85,100l1.536-1.535   l-0.562-2.095v-0.001L66.293,83.838h6.504v-3.379h-9.883l-9.844-9.844L79.386,44.3V29.337h6.08v-3.379H79.386z M75.042,26v3.337   v10.64c-16.278,5.275-33.806,5.275-50.085,0v-10.64V26C41.626,27.31,58.373,27.31,75.042,26z M56.773,80.459H43.227L50,73.686   L56.773,80.459z M50,67.545l-6.626-6.627h13.253L50,67.545z M41.443,58.987L27.706,45.25c14.571,4.158,30.017,4.158,44.588,0   L58.557,58.987H41.443z"/></g>
  <g display="none"><path display="inline" d="M97.756,84.123L71.173,57.54c3.723-5.822,5.916-12.712,5.916-20.119C77.089,16.787,60.302,0,39.667,0   C19.033,0,2.244,16.787,2.244,37.421c0,20.634,16.789,37.427,37.423,37.427c5.039,0,9.84-1.015,14.231-2.829L81.88,100   L97.756,84.123z M19.085,37.421c0-11.348,9.234-20.58,20.582-20.58s20.58,9.232,20.58,20.58c0,11.354-9.232,20.586-20.58,20.586   S19.085,48.775,19.085,37.421z"/></g><g display="none"><path display="inline" d="M96.792,44.66L55.341,3.208c-1.426-1.422-3.323-2.207-5.342-2.207c-2.018,0-3.915,0.785-5.338,2.207   L3.209,44.66C1.783,46.085,1,47.98,1,50.003c0,2.016,0.783,3.915,2.209,5.336L44.66,96.791c1.424,1.426,3.321,2.208,5.338,2.208   c2.019,0,3.919-0.782,5.342-2.208L96.792,55.34C99.737,52.398,99.737,47.605,96.792,44.66z M37.743,71.233   c-0.565,0.554-1.097,1.074-1.602,1.577l-7.232-7.232c0.55-0.547,1.107-1.094,1.694-1.664c5.147-5.021,11.313-11.036,13.477-23.072   c-0.525,0.124-1.023,0.265-1.486,0.423l-1.936,0.667c-4.069,1.405-5.402-0.346-2.965-3.891l7.864-11.442l0.002-0.003l4.43-6.447   l4.429,6.451l7.863,11.442c2.436,3.542,1.104,5.296-2.966,3.891l-1.932-0.667c-0.463-0.158-0.963-0.299-1.486-0.423   c2.164,12.036,8.329,18.05,13.479,23.072c0.587,0.57,1.144,1.117,1.69,1.664l-7.229,7.232c-0.507-0.503-1.04-1.023-1.604-1.577   c-3.787-3.693-8.635-8.419-12.246-15.729C46.379,62.814,41.532,67.54,37.743,71.233z"/></g><g display="none"><g display="inline"><path d="M79.839,79.279h10.223v-4.418L100,84.805l-9.938,9.945v-4.418H65.902C71.252,87.594,75.977,83.822,79.839,79.279z"/><path d="M41.186,21.016c-14.209,2.013-25.159,14.241-25.159,28.987c0,10.114,5.157,19.046,12.971,24.31H13.153    c-5.123-6.766-8.178-15.189-8.178-24.31c0-20.647,15.606-37.713,35.631-40.047l-5.248,5.242L41.186,21.016z"/><path d="M5.532,84.805l-5.521-5.525h45.298c16.14,0,29.282-13.131,29.282-29.276c0-14.451-10.529-26.482-24.307-28.851v3.99    l-9.95-9.944l9.95-9.947V9.99c19.899,2.459,35.358,19.457,35.358,40.013c0,22.237-18.094,40.329-40.333,40.329H0L5.532,84.805z"/></g></g><g display="none"><g display="inline"><path d="M44.426,57.316l9.258,9.255v10.276h10.273l3.012,3.011v10.274h9.867V100h23.163V87.111L57.314,44.424    c5.975-11.451,4.157-25.91-5.459-35.528c-11.861-11.861-31.094-11.861-42.959,0c-11.861,11.865-11.861,31.098,0,42.96    C18.513,61.473,32.975,63.291,44.426,57.316z M18.113,18.114c3.761-3.755,9.851-3.755,13.607,0c3.761,3.759,3.761,9.851,0,13.606    c-3.757,3.759-9.847,3.759-13.607,0C14.359,27.964,14.359,21.873,18.113,18.114z"/></g></g><g display="none"><g display="inline"><path d="M50.001,23.267c-11.727,0-21.229,9.501-21.229,21.224c0,2.919,0.591,5.698,1.656,8.23l0,0l9.56,27.857h19.575l9.67-27.146    c1.268-2.72,1.994-5.742,1.994-8.941C71.228,32.768,61.725,23.267,50.001,23.267z"/><rect x="47.79" width="4.416" height="17.32"/><rect x="23.254" y="11.299" transform="matrix(0.4999 0.8661 -0.8661 0.4999 27.6569 -20.886)" width="17.321" height="4.414"/><rect x="10.015" y="24.536" transform="matrix(-0.8659 -0.5002 0.5002 -0.8659 21.4697 59.2448)" width="17.32" height="4.417"/><polygon points="87.724,20.505 72.725,29.164 74.928,32.989 89.929,24.324   "/><rect x="65.876" y="4.846" transform="matrix(0.8663 0.4995 -0.4995 0.8663 15.8505 -32.2056)" width="4.42" height="17.321"/><rect x="40.714" y="83.219" width="17.323" height="3.835"/><rect x="40.714" y="89.69" width="17.323" height="3.836"/><rect x="43.635" y="96.164" width="11.479" height="3.836"/></g></g><g display="none"><polygon display="inline" points="37.383,23.535 19.355,23.535 37.383,5.507  "/><path display="inline" d="M41.891,1v27.042H14.849V99h70.303V1H41.891z M73.71,85.063H26.289v-5.799H73.71V85.063z M73.71,68.761   H26.289v-5.799H73.71V68.761z M73.71,52.028H26.289V46.23H73.71V52.028z"/></g><g display="none"><g display="inline"><path d="M80.41,34.472c-15.332-9.239-25.794-11.5-30.109-9.805c-1.785,0.7-3.566,2.992-5.411,6.049    c-1.917,3.172-3.299,7.986-2.865,10.057c0.255,1.21,3.564,9.105,22.279,19.545c12.187,6.795,21.861,8.521,23.553,7.955    c1.721-0.568,4.078-1.847,7.265-6.301C98.068,57.852,99,53.188,99,51.402C99,49.623,92.82,41.95,80.41,34.472z M94.797,52.549    c-1.719,3.059-14.131-1.523-21.77-5.728c-7.643-4.203-23.853-15.219-20.053-19.289c2.672-2.866,13.938,0.764,26.162,8.403    C91.361,43.574,96.518,49.496,94.797,52.549z"/><path d="M48.677,53.545c-2.624,0.997-9.263,2.157-17.522,2.157c-9.201,0-24.491-2.157-24.491-8.403    c0-7.249,22.567-10.217,32.607-9.214c0.096-0.717,0.334-1.767,0.334-1.767s-1.576-0.191-4.677-0.191    c-22.68,0-30.223,6.444-31.799,8.784c-1.576,2.34-2.102,7.399-2.102,10.218c0,2.819-0.61,8.516,3.917,13.467    c5.107,5.584,16.614,7.256,26.02,7.256c9.405,0,16.232-0.764,25.924-5.254c0.56-1.297,0.572-2.695,0.572-3.244    C57.461,62.003,51.686,54.555,48.677,53.545z"/></g></g><g display="none"><path display="inline" d="M90.479,35.714h-2.864L77.364,18.627c-0.644-1.076-2.208-1.96-3.462-1.96H26.099   c-1.261,0-2.822,0.885-3.467,1.96l-10.25,17.087H9.518C4.281,35.714,0,40.002,0,45.238v2.679v23.812h9.518v11.604h14.293V71.729   h52.373v11.604h14.295V71.729H100V47.917v-2.679C100,40.002,95.715,35.714,90.479,35.714z M26.808,21.958h46.384l9.69,16.143   c-4.514,1.35-14.438,3.438-32.624,3.438c-18.292,0-28.457-2.136-33.103-3.507L26.808,21.958z M16.666,59.523   c-3.941,0-7.148-3.196-7.148-7.14c0-3.945,3.207-7.146,7.148-7.146c3.948,0,7.146,3.2,7.146,7.146   C23.812,56.327,20.614,59.523,16.666,59.523z M66.666,60.579H33.331c-0.579,0-1.055-0.471-1.055-1.056   c0-0.587,0.476-1.055,1.055-1.055h33.335c0.578,0,1.056,0.468,1.056,1.055C67.722,60.108,67.244,60.579,66.666,60.579z    M66.666,55.819H33.331c-0.579,0-1.055-0.474-1.055-1.057c0-0.584,0.476-1.059,1.055-1.059h33.335c0.578,0,1.056,0.475,1.056,1.059   C67.722,55.346,67.244,55.819,66.666,55.819z M83.334,59.523c-3.952,0-7.149-3.196-7.149-7.14c0-3.945,3.197-7.146,7.149-7.146   c3.948,0,7.146,3.2,7.146,7.146C90.479,56.327,87.282,59.523,83.334,59.523z"/></g><g display="none"><g display="inline"><g><path d="M77.547,69.98V41.969c-1.656,0.146-3.432,0.279-5.328,0.397v29.553C74.137,71.342,75.92,70.693,77.547,69.98z"/></g><g><path d="M25.553,42.202V71.12c6.612,2.348,15.182,3.769,24.552,3.769c2.221,0,4.393-0.084,6.51-0.235V42.94     c-2.123,0.033-4.293,0.051-6.51,0.051C40.869,42.991,32.359,42.696,25.553,42.202z"/></g><g><g><path d="M17.899,38.676c7.445,0.959,19.451,1.542,32.206,1.542c12.612,0,24.538-0.572,31.993-1.513      c0.545-4.557,2.662-7.591,5.533-7.744C83.752,13.81,68.43,1,50.105,1C31.771,1,16.443,13.823,12.574,30.987      C15.331,31.274,17.363,34.245,17.899,38.676z M66.18,9.963c1.211-1.251,4.48-0.05,7.303,2.68      c2.824,2.731,4.133,5.961,2.922,7.214c-1.209,1.25-4.48,0.049-7.305-2.682C66.277,14.444,64.969,11.214,66.18,9.963z"/></g></g><g><g><path d="M75.035,73.897c-5.184,1.769-11.473,3.025-18.373,3.522c-0.35,0.023-0.691,0.056-1.041,0.075      c-0.248,0.016-0.5,0.022-0.746,0.035c-0.701,0.036-1.404,0.071-2.117,0.092c-0.037,0.001-0.074,0.001-0.109,0.003      c-0.873,0.023-1.756,0.036-2.646,0.037c-0.89-0.001-1.773-0.014-2.646-0.037c-0.036-0.002-0.074-0.002-0.111-0.003      c-0.714-0.021-1.416-0.056-2.117-0.092c-0.247-0.013-0.499-0.02-0.745-0.035c-0.351-0.02-0.693-0.052-1.042-0.075      c-6.901-0.497-13.189-1.754-18.373-3.522c-4-1.395-7.365-3.133-9.927-5.136l-0.309-0.076      c2.482,10.095,9.561,18.531,16.084,23.998c2.366,2.295,4.904,4.15,7.549,5.204c0.179,0.092,0.369,0.205,0.539,0.291      c1.631,0.558,6.367,0.832,11.096,0.821c4.73,0.011,9.464-0.264,11.095-0.821c0.17-0.086,0.361-0.199,0.539-0.291      c2.645-1.054,5.184-2.909,7.549-5.204c6.525-5.467,13.604-13.903,16.086-23.998l-0.311,0.076      C82.398,70.765,79.033,72.503,75.035,73.897z M46.334,91.596c0,0.512-0.414,0.926-0.923,0.926s-0.924-0.414-0.924-0.926v-4.833      c0-0.511,0.415-0.925,0.924-0.925s0.923,0.414,0.923,0.925V91.596z M50.929,92.993c0,0.513-0.415,0.927-0.924,0.927      c-0.51,0-0.924-0.414-0.924-0.927v-6.581c0-0.509,0.415-0.924,0.924-0.924c0.509,0,0.924,0.415,0.924,0.924V92.993z       M55.523,91.596c0,0.512-0.416,0.926-0.924,0.926c-0.51,0-0.924-0.414-0.924-0.926v-4.833c0-0.511,0.414-0.925,0.924-0.925      c0.508,0,0.924,0.414,0.924,0.925V91.596z"/></g></g><g><g><path d="M87.854,33.705c-1.723,0-3.121,3.312-3.121,7.396c0,0.013,0.002,0.021,0.002,0.034c-0.748,0.118-1.576,0.23-2.451,0.339      v25.958c3.602-2.411,5.688-5.255,5.688-8.307c0,0,3.004-15.327,3.004-18.024C90.975,37.016,89.576,33.705,87.854,33.705z       M88.07,41.508c-0.334,0-0.605-0.776-0.605-1.734s0.271-1.733,0.605-1.733c0.336,0,0.607,0.776,0.607,1.733      S88.406,41.508,88.07,41.508z"/></g></g><g><g><path d="M20.352,68.867V41.75c-1.918-0.199-3.635-0.415-5.085-0.647c0-0.001,0-0.001,0-0.001c0-4.084-1.398-7.396-3.121-7.396      c-1.723,0-3.12,3.312-3.12,7.396c0,3.14,3.213,18.024,3.213,18.024C12.239,62.805,15.276,66.186,20.352,68.867z M11.882,41.508      c-0.334,0-0.606-0.776-0.606-1.734s0.272-1.733,0.606-1.733s0.607,0.776,0.607,1.733S12.216,41.508,11.882,41.508z"/></g></g></g></g><g display="none"><g display="inline"><path d="M70.002,0H30c-3.684,0-6.666,2.981-6.666,6.667v86.667c0,3.686,2.981,6.667,6.666,6.667h40    c3.685,0,6.666-2.981,6.666-6.667V6.667C76.668,2.981,73.687,0,70.002,0z M43.229,6.042h13.542c1.211,0,2.188,0.983,2.188,2.188    c0,1.211-0.977,2.188-2.188,2.188H43.229c-1.211,0-2.188-0.977-2.188-2.188C41.042,7.024,42.019,6.042,43.229,6.042z     M50.001,93.743c-2.982,0-5.404-2.422-5.404-5.41c0-2.981,2.421-5.403,5.404-5.403s5.404,2.422,5.404,5.403    C55.405,91.321,52.983,93.743,50.001,93.743z M69.663,78.334H30.338v-62.5h39.323v62.5H69.663z"/></g></g><g display="none"><g display="inline"><path d="M72.411,3.139c-1.412-1.171-3.168-1.711-4.703-2.084C64.725,0.328,53.238,0,50.161,0h-0.322    c-3.077,0-14.562,0.328-17.546,1.055c-1.536,0.373-3.295,0.913-4.702,2.084c-1.708,1.417-2.573,3.5-2.573,6.199v81.593    c0,5.494,4.404,7.077,6.294,7.504C33.398,98.902,38.288,100,49.8,100H50.2c11.512,0,16.402-1.098,18.489-1.565    c1.89-0.427,6.295-2.01,6.295-7.504V9.338C74.983,6.64,74.118,4.556,72.411,3.139z M66.542,5.617c1.321,0,2.392,1.067,2.392,2.395    c0,1.321-1.07,2.396-2.392,2.396s-2.394-1.076-2.394-2.396C64.148,6.685,65.227,5.617,66.542,5.617z M40.745,7.018h17.674    c0.58,0,1.038,0.462,1.038,1.035s-0.458,1.035-1.038,1.035H40.745c-0.579,0-1.038-0.465-1.038-1.035    C39.708,7.48,40.167,7.018,40.745,7.018z M53.923,94.332c-1.001,0.241-3.073,0.271-3.974,0.271c-0.107,0-0.197-0.003-0.265-0.003    s-0.161,0.003-0.266,0.003c-0.897,0-2.973-0.029-3.975-0.271c-1.345-0.326-1.762-1.825-1.762-2.335c0-0.357,0-1.304,1.432-1.304    h4.41h0.322h4.41c1.43,0,1.43,0.946,1.43,1.304C55.685,92.507,55.269,94.006,53.923,94.332z M68.634,86.117h-37.54V14.056H68.63    v72.062H68.634z"/></g></g><g display="none"><path display="inline" d="M67.951,28.871v22.05l-22.052-22.05v25.746h-7.043V0h-9.231v54.616h-7.047V0h-9.23v54.616H6.304V100   h87.384V54.616h0.008L67.951,28.871z M89.581,65.962H75.942v-7.239h13.639V65.962z M54.096,70.064h13.642v7.243H54.096V70.064z    M45.892,77.308H32.253v-7.243h13.638V77.308z M54.096,65.962v-7.239h13.642v7.239H54.096z M45.892,58.723v7.239H32.253v-7.239   H45.892z M24.048,58.723v7.239H10.411v-7.239H24.048z M10.411,70.064h13.638v7.243H10.411V70.064z M75.942,77.308v-7.243h13.639   v7.243H75.942z"/></g><g display="none"><g display="inline"><path d="M12.962,48.147V100h74.076V48.147H12.962z M53.704,76.751v12.137h-7.409V76.751c-2.202-1.288-3.704-3.646-3.704-6.381    c0-4.087,3.313-7.407,7.41-7.407c4.087,0,7.407,3.32,7.407,7.407C57.408,73.104,55.903,75.463,53.704,76.751z"/><path d="M35.18,25.93c0.04-3.1-0.003-14.815,14.813-14.815c14.821,0,14.771,11.762,14.814,14.815v11.11h11.118V25.926    c0,0-0.007-25.926-25.925-25.926C24.077,0,24.07,25.926,24.07,25.926V37.04h11.11V25.93z"/></g></g><text x="0" y="115" fill="#000000" font-size="5px" font-weight="bold" font-family="'Helvetica Neue', Helvetica, Arial-Unicode, Arial, Sans-serif">Created by Jeremy J Bristol</text><text x="0" y="120" fill="#000000" font-size="5px" font-weight="bold" font-family="'Helvetica Neue', Helvetica, Arial-Unicode, Arial, Sans-serif">from the Noun Project</text></svg>
