<svg xmlns="http://www.w3.org/2000/svg" viewBox="0 0 1000 1250" version="1.1" x="0px" y="0px"><g><path fill="#000000" opacity="1.00" d=" M 629.11 137.62 C 632.45 136.94 635.97 136.94 639.29 137.75 C 643.02 138.93 645.44 142.19 648.15 144.80 C 650.11 142.81 652.00 140.71 654.31 139.10 C 656.60 137.42 659.54 137.32 662.23 136.76 C 671.75 136.74 679.62 146.71 676.72 155.93 C 675.83 160.19 672.08 162.68 669.66 165.95 C 672.41 169.46 676.45 172.31 677.20 177.03 C 679.41 185.15 673.18 194.12 664.89 195.11 C 658.09 196.82 652.24 191.96 648.16 187.13 C 644.23 191.45 639.38 196.04 633.05 195.52 C 624.29 195.46 617.03 186.59 618.87 177.98 C 619.40 172.87 623.42 169.34 626.98 166.10 C 623.60 162.74 619.80 159.12 619.31 154.09 C 618.09 147.15 622.54 139.94 629.11 137.62 Z"/><path fill="#000000" opacity="1.00" d=" M 734.66 148.95 C 742.75 146.13 752.16 151.65 753.85 159.97 C 756.53 169.72 746.73 180.46 736.75 178.09 C 728.90 176.93 722.92 168.74 724.41 160.91 C 725.25 155.41 729.33 150.61 734.66 148.95 Z"/><path fill="#000000" opacity="1.00" d=" M 562.24 213.11 C 559.58 203.16 569.88 192.67 579.86 195.30 C 588.49 196.78 594.38 206.84 590.99 215.04 C 589.24 221.05 583.25 224.23 577.48 225.27 C 570.46 224.99 563.61 220.21 562.24 213.11 Z"/><path fill="#000000" opacity="1.00" d=" M 657.90 251.56 C 658.87 242.57 669.17 236.31 677.59 239.58 C 681.28 241.32 685.01 243.21 688.08 245.94 C 698.61 256.46 709.10 267.01 719.65 277.49 C 720.56 279.01 722.19 278.42 723.53 277.86 C 741.55 270.43 759.66 263.19 777.64 255.67 C 781.92 253.71 787.19 253.74 791.41 255.88 C 795.31 258.33 798.62 262.24 799.16 266.95 C 799.84 271.10 798.40 275.19 796.60 278.86 C 789.17 296.65 782.22 314.65 774.73 332.42 C 785.16 343.26 795.98 353.72 806.55 364.43 C 808.97 367.12 810.62 370.40 812.29 373.60 C 815.76 380.65 812.27 390.04 805.03 393.10 C 801.29 395.15 796.93 394.52 792.86 394.73 C 779.86 395.99 766.76 394.94 753.76 396.21 C 749.64 396.47 745.49 396.07 741.39 396.54 C 732.11 407.94 723.39 419.84 714.28 431.40 C 710.80 435.77 705.87 439.74 700.03 439.77 C 693.53 440.21 687.17 435.64 685.37 429.41 C 683.90 424.42 683.08 419.26 681.47 414.30 C 676.25 420.76 670.29 426.56 664.53 432.51 C 625.55 474.20 585.94 515.29 546.71 556.74 C 540.90 563.24 534.60 569.28 528.60 575.60 C 515.25 590.23 501.23 604.23 487.77 618.76 C 447.06 661.44 406.46 704.23 365.80 746.97 C 360.97 752.05 355.99 756.99 351.35 762.27 C 343.77 770.41 335.67 778.06 328.37 786.45 C 315.02 800.14 301.97 814.12 288.81 827.98 C 279.70 837.13 271.10 846.77 262.15 856.06 C 258.88 861.22 253.31 865.41 246.89 864.65 C 241.73 864.72 237.87 860.87 234.56 857.41 C 219.98 842.73 205.26 828.19 190.72 813.48 C 186.16 809.05 184.92 801.78 187.82 796.12 C 189.72 791.75 194.41 789.90 197.45 786.52 C 203.86 779.91 210.92 773.97 217.48 767.53 C 229.91 755.25 242.88 743.55 255.40 731.38 C 265.29 721.62 275.78 712.50 285.52 702.59 C 299.89 689.31 313.89 675.63 328.11 662.18 C 335.00 656.05 341.41 649.42 348.11 643.08 C 359.34 632.99 369.84 622.15 380.99 611.97 C 387.19 605.84 393.76 600.10 399.93 593.93 C 409.30 584.61 419.31 575.97 428.59 566.56 C 442.56 553.59 456.22 540.30 470.06 527.19 C 477.15 520.88 483.79 514.10 490.63 507.51 C 505.03 494.34 518.84 480.52 533.18 467.27 C 538.40 462.47 543.39 457.43 548.50 452.52 C 570.75 431.78 592.40 410.40 614.90 389.93 C 621.97 383.56 628.07 376.01 635.96 370.62 C 630.48 368.15 624.00 368.46 618.93 365.04 C 612.69 360.91 610.51 351.76 614.47 345.35 C 618.22 339.23 624.62 335.57 630.03 331.12 C 638.65 324.67 646.90 317.74 655.69 311.53 C 656.93 291.58 656.91 271.53 657.90 251.56 M 686.75 286.85 C 686.50 296.56 686.06 306.26 685.87 315.97 C 685.74 320.91 684.54 326.29 680.70 329.73 C 674.34 335.20 667.20 339.73 661.04 345.43 C 669.00 347.13 676.87 349.25 684.83 350.97 C 692.94 352.39 699.90 359.28 701.39 367.39 C 703.21 375.50 705.29 383.56 707.06 391.69 C 711.81 385.57 716.53 379.42 721.25 373.27 C 724.77 368.33 731.16 366.21 737.04 366.49 C 746.45 366.44 755.84 365.93 765.24 365.62 C 759.12 358.81 752.34 352.62 745.92 346.09 C 741.86 341.76 741.18 334.93 743.58 329.62 C 748.16 318.74 752.31 307.69 757.05 296.88 C 745.55 300.77 734.56 306.04 723.16 310.20 C 716.72 311.95 709.60 309.78 704.96 305.07 C 698.89 298.99 692.82 292.91 686.75 286.85 M 669.99 378.34 C 665.45 384.01 659.52 388.33 654.46 393.51 C 637.77 409.47 620.97 425.32 604.05 441.04 C 591.00 453.68 577.79 466.15 564.56 478.60 C 554.81 488.49 544.26 497.53 534.46 507.38 C 522.32 518.93 510.06 530.35 498.02 542.02 C 491.18 548.86 483.72 555.05 476.98 562.00 C 455.72 582.38 434.15 602.45 413.00 622.96 C 387.74 646.52 363.07 670.72 337.72 694.19 C 343.45 700.92 350.18 706.70 356.20 713.17 C 359.11 711.11 361.31 708.27 363.71 705.66 C 431.32 634.62 498.89 563.54 566.47 492.47 C 580.87 477.53 594.94 462.28 609.43 447.43 C 614.68 441.68 619.97 435.96 625.47 430.46 C 639.57 414.91 654.46 400.11 668.59 384.60 C 670.17 382.86 671.97 381.35 673.84 379.91 C 672.91 378.66 671.38 378.58 669.99 378.34 M 227.94 798.85 C 226.21 800.39 224.39 801.89 223.20 803.92 C 231.52 811.55 239.42 819.67 247.22 827.83 C 256.23 819.28 264.25 809.76 273.07 801.03 C 281.75 792.07 290.01 782.72 298.89 773.97 C 311.11 760.88 323.47 747.93 335.89 735.04 C 329.28 728.37 322.62 721.76 315.99 715.11 C 286.59 742.98 257.31 770.95 227.94 798.85 Z"/><path fill="#000000" opacity="1.00" d=" M 572.83 289.68 C 574.56 282.27 582.46 277.84 589.76 278.59 C 595.09 280.03 600.04 283.59 601.57 289.12 C 604.68 297.67 598.00 307.73 589.01 308.47 C 578.98 310.25 569.64 299.31 572.83 289.68 Z"/><path fill="#000000" opacity="1.00" d=" M 490.46 364.65 C 493.58 362.98 497.27 363.04 500.68 363.60 C 505.00 364.54 508.02 367.96 510.94 371.02 C 514.48 367.41 518.40 363.01 523.95 363.31 C 533.05 362.15 541.44 371.07 539.89 380.08 C 539.60 385.14 535.81 388.91 532.16 391.98 C 534.59 394.86 537.83 397.23 539.24 400.85 C 541.21 405.62 540.67 411.52 537.39 415.59 C 533.41 420.91 525.65 423.24 519.53 420.43 C 516.49 419.36 514.49 416.75 512.18 414.68 C 510.79 412.95 509.19 415.35 508.11 416.23 C 505.08 419.79 500.59 422.25 495.80 421.68 C 487.31 421.81 480.31 413.34 481.53 405.03 C 481.82 399.58 486.11 395.80 489.71 392.23 C 486.96 389.34 483.68 386.58 482.61 382.56 C 480.27 375.76 483.89 367.55 490.46 364.65 Z"/><path fill="#000000" opacity="1.00" d=" M 761.39 426.40 C 769.31 423.34 778.94 428.89 780.73 437.10 C 783.20 445.65 776.10 455.54 767.12 455.59 C 760.42 456.16 753.67 451.65 751.87 445.13 C 749.20 437.62 753.95 428.84 761.39 426.40 Z"/><path fill="#000000" opacity="1.00" d=" M 671.58 473.66 C 676.77 472.59 682.59 473.75 686.15 477.91 C 693.46 484.61 690.87 498.07 681.82 501.87 C 673.77 506.17 662.87 500.77 660.93 491.98 C 658.68 484.27 663.95 475.68 671.58 473.66 Z"/><path fill="#000000" opacity="1.00" d=" M 779.76 489.94 C 783.58 485.12 789.64 480.52 796.13 482.20 C 804.27 483.17 810.27 491.84 808.45 499.82 C 807.75 504.54 804.24 508.01 800.80 510.98 C 804.90 514.63 809.16 519.09 809.11 524.98 C 809.62 533.92 800.92 541.89 792.06 540.35 C 786.79 539.75 782.99 535.85 779.63 532.13 C 776.74 535.33 773.70 538.77 769.46 540.15 C 765.81 540.97 761.97 540.60 758.49 539.26 C 753.03 536.27 749.38 530.15 750.22 523.85 C 750.56 518.40 754.87 514.64 758.39 510.98 C 755.78 508.32 752.82 505.75 751.57 502.13 C 748.91 495.32 752.15 486.58 758.94 483.61 C 762.32 481.86 766.32 481.88 769.98 482.59 C 774.12 483.60 776.92 487.01 779.76 489.94 Z"/></g><text x="0" y="1015" fill="#000000" font-size="5px" font-weight="bold" font-family="'Helvetica Neue', Helvetica, Arial-Unicode, Arial, Sans-serif">Created by LSE Designs</text><text x="0" y="1020" fill="#000000" font-size="5px" font-weight="bold" font-family="'Helvetica Neue', Helvetica, Arial-Unicode, Arial, Sans-serif">from the Noun Project</text></svg>