<svg xmlns="http://www.w3.org/2000/svg" xmlns:xlink="http://www.w3.org/1999/xlink" xml:space="preserve" version="1.1" style="shape-rendering:geometricPrecision;text-rendering:geometricPrecision;image-rendering:optimizeQuality;" viewBox="0 0 50000 62500" x="0px" y="0px" fill-rule="evenodd" clip-rule="evenodd"><defs><style type="text/css">
   
    .fil0 {fill:black;fill-rule:nonzero}
   
  </style></defs><g><path class="fil0" d="M21034.88 27257.35c485.22,754.83 1153.87,1711.77 2890.79,2324.98 309.56,109.17 143.58,579.89 -166.02,470.7 -1664.15,-587.52 -2363.74,-1325.03 -3281.59,-2741.38 -387.1,17.34 -771.46,-7.1 -1145.89,-67.03 -1189.2,413.98 -3128.51,651.88 -5073.37,890.41 -2475.49,303.6 -4960.03,608.32 -5768.69,1244.36 -2102.21,1653.49 -1227.43,4554.12 1288.49,5098.55 1010.62,218.72 2967.39,-115.28 4031.37,-678.01 740.09,-391.39 1042.82,-918.11 1053.52,-1688.04 19.33,-1391.47 -1531.26,-2499.54 -2797.76,-2185.96 -317.29,84.77 -446.17,-397.65 -128.9,-482.42 1126.4,-254.06 2386.36,247.16 2952.8,1129.46 -104.45,-439.85 -254.15,-956.8 -484.91,-1340.47 -100.84,-168.57 155.79,-322.1 256.64,-153.52 477.51,793.92 720.56,2148.38 700.84,3059.55 -15.09,697.29 -239.52,1308.07 -818.15,1776.42 476.39,318.52 2263.58,100.42 4128.43,-227.77 -543.88,-564.04 -1180.8,-1489.31 -1562.86,-2165.64 -96.34,-171.14 163.85,-317.56 260.16,-146.48 264.07,467.47 1264,1967.89 1665.32,2238.32 34.64,23.33 1823.04,-343.35 2025.15,-384.2 -615.1,-579.89 -1292.4,-1640.32 -1604.63,-2415.94 -73.21,-182.65 204.52,-293.99 277.74,-111.32 298.33,741.1 1064.74,1958.75 1696.93,2452.27 345.36,-70.14 690.69,-141.57 1036.49,-209.4 2858.83,-560.84 4303.2,2531.12 2476.75,4194.59 1817.51,275.14 2404.53,2533.02 1199.25,3858.43 699.01,3.09 1382.02,287.59 1754.21,901.99 689.66,1138.53 -119.63,2345.07 -1043.82,3084.23 -901.29,720.91 -2253.57,1561.94 -3539.61,2225.35 -6.83,4.69 -13.95,9.08 -21.36,13.15 -104.33,57.31 -172.78,138.83 -215.19,228.86 -58.06,123.23 -71.18,266.14 -60.81,391.34 11.32,137.52 -90.99,258.21 -228.51,269.53 -137.52,11.32 -258.21,-90.99 -269.53,-228.51 -7.45,-89.96 -6.67,-186.96 5.71,-285.92 -468.75,218.65 -912.57,402.94 -1303.1,536.42 1396.12,364.88 3617.46,479.32 5971.31,347.54 2257.24,-126.36 4625.47,-480.14 6496.96,-1057.67 637.38,-196.67 1177.12,-433.43 1749.32,-809.1 364.27,-239.14 642.06,-483.6 827.99,-719.27 202.7,-256.58 593.33,52.01 390.62,308.6 -130.26,165.11 -294.53,331.19 -491.31,494.69 578.78,-98.36 1246.36,-171.59 1955.76,-203.8 1184.48,-53.79 2492.69,5.65 3707.43,251.9 321.11,64.21 223.5,552.5 -97.66,488.28 -1170.89,-237.36 -2437.92,-294.38 -3588.29,-242.14 -2090.32,86.28 -2655.67,399.75 -4328.67,913.16 -1911.61,586.69 -4312.1,945.6 -6594.81,1073.39 -2838.67,158.92 -5510.94,-41.04 -6856.31,-605.44 -2138.03,419.7 -3929.14,-1070.58 -3796.65,-3166.29 19.8,-313.63 95.12,-254.96 -205.37,-275.13 -1550.16,-104.07 -2871.5,-1171.33 -3405.85,-2633.86 -275.74,-754.73 -363.48,-1808.11 -79.05,-2577.78 116.21,-314.45 193.05,-207.35 -145.26,-325.29 -1110.4,-387.06 -1895.72,-1320.97 -2134.99,-2479.8 -126.24,-611.4 -94.37,-1326.26 229.68,-1875.12 -418.57,19.39 -813.89,-1.63 -1152.48,-74.9 -2926.68,-633.34 -3925.52,-4065.03 -1491.63,-5979.41 918.76,-722.63 3472.41,-1035.83 6016.75,-1347.88 1516.75,-186.02 3030.05,-371.66 4158.18,-635.86 -904.6,-305.25 -1799.18,-847.12 -2421.7,-1578.38 -835.79,-119.15 -1627.63,-465.9 -2348.58,-955.55 -1153.29,-783.3 -2125.01,-1933.98 -2799.99,-3096.58 -696.01,-1198.86 -1113.85,-2792.67 263.92,-3689.41 986.51,-642.06 2388.71,211.68 3675.76,995.33 831.05,506.01 1609.42,979.92 2075.29,936.91 524.22,-48.38 2572.41,533.14 5000.02,1310.41 3816.6,1222 8608.71,2930.44 9800.48,3408.15 1449.31,580.93 2801.29,1276.94 4131.08,2071.53 2802.09,1674.25 3881.48,2279.42 7222.93,2393.74 327.54,10.27 311.94,508.31 -15.62,498.04 -1982.38,-67.82 -3164.44,-182.79 -5006.58,-1068.38 447.98,519.66 842.35,1105.9 1076.54,1694.64 120.75,304.47 -342.18,488.02 -462.9,183.6 -524.73,-1319.18 -1825.91,-2527.97 -3019.9,-3244.39 -1324.7,-794.94 -2668.15,-1487.51 -4111.09,-2065.88 -1187.05,-475.82 -5962.48,-2178.22 -9767.28,-3396.45 -2373.22,-759.86 -4353.72,-1330.35 -4802.76,-1288.91 -630.14,58.18 -1476.42,-457.08 -2379.97,-1007.23 -1158.67,-705.48 -2420.99,-1474.05 -3144.52,-1003.15 -1119.13,728.38 -650.63,2079.46 -103.76,3021.45 641.86,1105.54 1561.36,2196.69 2647.65,2934.48 894.4,607.46 1901.95,974.15 2957.74,905.77 327.56,-20.56 358.8,477.49 31.26,498.04 -245.59,15.91 -194.98,7.9 12.09,175.49 1137.47,920.53 2739.91,1360.07 4183.36,1112.88 323.7,-55.23 407.68,436.95 83.98,492.18 -32.99,5.65 -66.01,10.95 -99.01,15.95zm-1715.73 -21156.71c-92.99,-92.99 48.41,-234.39 141.4,-141.4 622.18,622.18 1470.73,2057.41 680.38,2847.78 -92.99,92.99 -234.39,-48.41 -141.4,-141.4 693.28,-693.3 -147.4,-2032 -680.38,-2564.98zm982.29 4921.98c-596.27,596.15 -1551.1,700.14 -2568.54,443.46 -2160.59,-545.06 -4364.19,-2735.8 -4918.82,-4894.11 -249.27,-970.04 -179.69,-1894.46 381.57,-2475.18l1162.74 -1203.06c570.16,-589.93 1533.08,-654.52 2528.39,-404.3 2178.08,547.55 4364.23,2733.71 4911.78,4911.79 250.65,997 174.24,1950.37 -407.03,2531.53l-1090.09 1089.87zm-6656.59 -6677.31c-469.69,484.97 -567.99,1248.85 -348.35,2103.62 508.16,1977.48 2577.97,4033.39 4557.5,4532.77 864.25,218.03 1638.14,120.58 2125.51,-342.61 -405.9,47.73 -850.73,10.8 -1313.32,-105.49 -2178.07,-547.55 -4364.24,-2733.72 -4911.79,-4911.79 -112.79,-448.64 -150.89,-880.58 -109.55,-1276.5zm5142.44 5703.91c882.49,221.85 1671.28,116.13 2157.15,-369.74 485.87,-485.87 591.6,-1274.68 369.74,-2157.16 -502.26,-1997.9 -2550.6,-4046.25 -4548.5,-4548.51 -882.49,-221.85 -1671.29,-116.13 -2157.16,369.74 -485.87,485.87 -591.59,1274.67 -369.74,2157.16 502.26,1997.89 2550.62,4046.25 4548.51,4548.51zm21519.08 30398.22c-50.84,190.35 -340.32,113.06 -289.46,-77.34 203.84,-762.28 321.64,-1579.32 368.83,-2366.53 11.55,-196.51 310.37,-178.96 298.82,17.58 -48.23,804.47 -169.88,1647.35 -378.19,2426.29zm-1492.67 725.86c-82.45,178.8 -354.35,53.43 -271.88,-125.4 555.66,-1202.94 798.39,-3427.74 654.65,-4743.92 -20.8,-195.79 276.87,-227.38 297.66,-31.64 149.6,1369.7 -102.12,3649.01 -680.43,4900.96zm-12057.82 -4556.16c-186.5,-63.18 -90.44,-346.8 96.1,-283.6 1971.73,674.95 5121.3,210.46 6820.54,-1007.27 160.33,-114.83 334.91,128.94 174.6,243.76 -1776.93,1273.41 -5028.81,1753.1 -7091.24,1047.11zm-5900.22 11110.64c1685.89,-547.08 4402.51,-2065.12 5693.09,-3155.24 696.45,-588.27 1451.18,-1533.81 922.46,-2414.92 -941.34,-1553.89 -4055.54,233.64 -5206.77,756.16 -1575.65,715.16 -3222.24,1517.62 -4589.49,1883.97 -94.91,25.43 -189.34,47.38 -283.22,65.91 -309.25,61.05 -292.99,-26.17 -312.11,302.75 -125.01,2147.72 1742.72,3221.19 3776.04,2561.37zm3072.94 -10003.47c-1361.14,529.96 -3399.37,1024.95 -5351.98,1372.16 -1812.13,322.25 -3560.22,517.59 -4636.57,496.53 -344.01,-6.72 -490.9,43.07 -578.22,230.64 -280.97,603.48 -154.47,1725.29 70.17,2327.07 633.93,1698.18 2345.72,2638.45 4114.05,2164.62 1322.03,-354.19 2942.15,-1135.23 4492.06,-1840.17 1511.6,-687.5 4772.42,-1669.9 4138.59,-3608.77 -277.88,-850.02 -1154.4,-1490.2 -2248.1,-1142.08zm-9789.23 -3536.78c-726.37,410.42 -1778.4,670.49 -2595.68,785.21 -539.39,378.67 -581.39,1253.45 -459.47,1843.9 243.47,1179.08 1123.91,2044.68 2327.46,2237.94 861.18,138.27 2913.3,-65.17 5079,-450.29 2038.73,-362.53 4165.13,-885.55 5483.27,-1436.28 2181.62,-911.47 1424.1,-4289.26 -1411.47,-3732.98 -1712.95,336.05 -7311.05,1646.61 -8423.11,752.5z"/></g><text x="0" y="50015" fill="#000000" font-size="5px" font-weight="bold" font-family="'Helvetica Neue', Helvetica, Arial-Unicode, Arial, Sans-serif">Created by Oleksandr Panasovskyi</text><text x="0" y="50020" fill="#000000" font-size="5px" font-weight="bold" font-family="'Helvetica Neue', Helvetica, Arial-Unicode, Arial, Sans-serif">from the Noun Project</text></svg>