<svg xmlns="http://www.w3.org/2000/svg" viewBox="0 0 1000 1250" version="1.1" x="0px" y="0px"><g><path fill="#000000" opacity="1.00" d=" M 709.86 191.17 C 714.52 190.29 719.29 190.75 724.01 190.45 C 731.17 190.60 738.28 189.11 745.46 189.71 C 750.11 190.49 753.60 194.05 756.47 197.54 C 758.62 200.16 759.38 203.63 759.31 206.96 C 758.10 237.65 756.64 268.34 755.44 299.03 C 755.37 305.08 752.99 311.50 747.48 314.60 C 719.73 331.16 692.02 347.79 664.24 364.30 C 663.28 364.85 662.11 365.58 662.30 366.88 C 662.08 375.23 660.58 383.59 657.29 391.31 C 653.00 402.38 644.92 411.53 635.65 418.75 C 631.26 421.42 626.81 424.19 621.93 425.86 C 621.03 436.41 617.13 446.94 609.48 454.47 C 603.92 460.38 596.51 464.18 588.75 466.29 C 585.92 466.63 583.06 466.72 580.26 467.23 C 574.80 467.31 569.37 466.24 564.21 464.52 C 560.11 463.18 556.79 460.05 552.50 459.23 C 501.02 511.15 449.12 562.68 397.48 614.45 C 337.14 674.78 276.81 735.11 216.48 795.45 C 211.12 800.15 205.68 805.18 198.84 807.61 C 188.04 811.78 175.49 811.47 165.12 806.18 C 147.68 798.46 137.42 777.67 141.69 759.11 C 143.70 749.27 149.72 740.77 156.92 733.97 C 262.72 628.12 368.57 522.31 474.39 416.47 C 480.34 410.62 486.11 404.58 492.18 398.84 C 490.78 394.88 487.77 391.76 486.37 387.79 C 482.34 379.14 481.78 369.18 483.93 359.95 C 488.24 341.67 506.31 327.37 525.21 328.30 C 527.50 324.20 529.44 319.91 532.03 315.98 C 540.51 304.37 552.62 295.25 566.58 291.42 C 571.77 289.45 577.42 289.83 582.72 288.44 C 588.95 276.94 596.09 265.96 602.64 254.64 C 612.25 238.57 621.86 222.50 631.46 206.42 C 633.80 202.45 636.02 197.99 640.32 195.79 C 647.35 192.28 655.39 194.02 662.90 193.00 C 670.59 192.01 678.54 193.29 686.11 191.65 C 686.69 191.89 687.29 192.13 687.89 192.37 C 688.75 191.91 689.67 191.68 690.65 191.68 C 697.05 191.59 703.45 191.39 709.86 191.17 M 673.47 222.46 C 676.74 229.67 679.90 236.96 683.67 243.94 C 691.10 236.31 698.58 228.72 706.30 221.38 C 695.32 221.13 684.43 222.63 673.47 222.46 M 615.82 291.02 C 614.93 292.67 613.54 294.15 613.28 296.07 C 614.86 298.01 617.35 298.99 618.91 300.98 C 623.33 306.26 623.59 314.78 619.00 320.05 C 614.99 325.26 607.95 326.60 603.69 331.56 C 601.44 334.35 599.13 337.12 597.15 340.11 C 593.76 346.09 592.18 352.90 591.35 359.67 C 596.93 359.30 602.38 357.80 607.56 355.72 C 611.88 354.05 615.23 350.72 618.88 347.97 C 624.32 343.80 625.71 336.40 630.99 332.09 C 632.89 330.37 635.43 329.71 637.74 328.72 C 643.57 328.25 649.80 330.32 653.02 335.47 C 653.34 335.47 653.96 335.49 654.28 335.50 C 661.87 330.61 669.77 326.22 677.48 321.52 C 689.63 314.42 701.47 306.72 713.90 300.11 C 713.76 299.79 713.50 299.14 713.37 298.81 C 702.25 294.71 691.37 289.97 680.20 286.00 C 675.74 284.47 671.30 282.41 667.86 279.12 C 665.07 276.51 663.94 272.77 662.30 269.44 C 657.30 259.00 652.53 248.46 647.50 238.04 C 636.91 255.68 626.41 273.38 615.82 291.02 M 706.26 263.98 C 713.17 266.32 719.81 269.37 726.65 271.92 C 726.98 261.95 727.39 251.97 727.85 241.99 C 720.76 249.43 713.08 256.31 706.26 263.98 M 553.96 338.84 C 557.44 340.97 559.89 344.32 562.92 347.00 C 563.74 340.63 566.79 334.93 569.02 329.00 C 570.29 325.72 572.50 322.97 574.49 320.11 C 565.65 323.36 557.06 329.62 553.96 338.84 M 521.44 358.63 C 514.60 360.33 510.54 368.76 513.56 375.14 C 515.68 379.26 518.18 383.28 521.60 386.45 C 536.83 401.53 551.88 416.79 567.10 431.88 C 570.93 434.73 575.42 437.92 580.46 437.24 C 586.18 436.75 591.01 431.71 591.60 426.07 C 592.63 420.47 588.44 415.87 585.18 411.87 C 573.04 399.67 560.83 387.52 548.67 375.34 C 543.28 370.02 538.20 364.31 531.86 360.08 C 528.98 357.71 524.89 358.17 521.44 358.63 M 630.87 376.22 C 627.60 379.82 623.11 381.83 618.63 383.48 C 614.15 385.08 609.92 387.80 605.00 387.72 C 604.86 388.05 604.58 388.71 604.44 389.04 C 607.57 391.27 610.15 394.20 612.09 397.51 C 621.22 393.86 628.19 385.62 630.87 376.22 M 211.05 722.07 C 198.81 734.51 186.12 746.50 174.30 759.34 C 171.24 762.48 169.83 767.27 171.43 771.47 C 173.00 777.82 180.49 781.79 186.64 779.93 C 192.84 777.60 197.15 772.26 201.79 767.79 C 284.30 685.30 366.79 602.80 449.28 520.30 C 476.41 493.31 503.28 466.05 530.57 439.22 C 530.58 438.81 530.61 437.98 530.63 437.56 C 524.69 431.82 518.94 425.90 513.07 420.10 C 412.34 520.70 311.73 621.42 211.05 722.07 Z"/><path fill="#000000" opacity="1.00" d=" M 554.09 198.04 C 563.80 195.72 573.76 205.16 571.94 215.00 C 570.78 223.93 560.61 230.33 552.13 226.83 C 544.71 224.69 540.44 215.94 542.65 208.69 C 544.10 203.39 548.68 199.09 554.09 198.04 Z"/><path fill="#000000" opacity="1.00" d=" M 455.33 221.93 C 453.30 212.21 463.21 202.21 472.96 204.85 C 477.82 205.56 481.57 209.06 484.36 212.88 C 487.39 209.72 490.50 206.16 495.02 205.28 C 498.05 204.13 501.20 205.31 504.26 205.65 C 509.08 208.11 513.04 212.56 513.52 218.13 C 514.51 224.52 510.35 230.07 505.72 233.92 C 508.49 236.57 511.75 239.17 512.79 243.05 C 514.75 248.28 513.22 254.41 509.46 258.44 C 504.99 263.10 497.40 264.14 491.73 261.14 C 488.79 259.87 486.78 257.29 484.71 254.97 C 481.03 259.01 476.74 263.28 470.90 263.46 C 461.99 264.42 453.94 255.75 455.10 246.97 C 455.36 241.47 459.48 237.43 463.33 234.00 C 459.98 230.49 456.01 227.03 455.33 221.93 Z"/><path fill="#000000" opacity="1.00" d=" M 831.22 225.05 C 839.22 222.75 848.01 228.96 849.17 237.05 C 851.10 245.60 843.67 254.78 834.91 254.64 C 826.17 255.36 818.30 246.68 819.54 238.08 C 820.13 231.85 825.08 226.29 831.22 225.05 Z"/><path fill="#000000" opacity="1.00" d=" M 506.42 288.69 C 516.28 286.22 526.35 296.10 524.23 305.98 C 523.05 314.59 513.19 320.87 504.97 317.67 C 497.98 315.71 493.33 308.16 494.66 301.04 C 495.55 295.02 500.54 290.02 506.42 288.69 Z"/><path fill="#000000" opacity="1.00" d=" M 643.66 288.92 C 653.94 286.05 664.37 297.16 661.37 307.26 C 659.59 315.77 649.43 321.08 641.45 317.57 C 633.47 314.93 629.46 304.72 633.26 297.29 C 635.07 292.96 639.19 290.02 643.66 288.92 Z"/><path fill="#000000" opacity="1.00" d=" M 812.28 302.14 C 815.31 301.10 818.64 301.22 821.76 301.82 C 825.92 303.12 828.78 306.62 831.68 309.67 C 833.99 307.34 836.13 304.62 839.19 303.24 C 844.85 300.44 852.51 301.57 856.70 306.45 C 860.86 310.59 861.92 317.34 859.56 322.67 C 858.22 326.05 855.31 328.39 852.89 330.97 C 855.20 333.07 857.75 335.10 859.21 337.94 C 861.66 342.75 861.24 348.85 858.22 353.32 C 854.09 359.76 844.59 361.66 838.14 357.71 C 835.70 356.30 834.06 353.92 831.91 352.16 C 828.45 354.88 825.70 358.94 821.05 359.78 C 811.48 363.15 800.99 353.77 802.27 343.98 C 802.48 338.42 806.66 334.38 810.46 330.84 C 807.76 327.68 804.18 325.05 803.01 320.87 C 800.39 313.40 805.00 304.79 812.28 302.14 Z"/><path fill="#000000" opacity="1.00" d=" M 689.11 391.99 C 688.66 383.50 696.65 375.99 705.05 376.58 C 710.19 377.39 715.47 380.10 717.58 385.13 C 721.33 392.33 717.85 402.22 710.31 405.31 C 707.01 407.05 703.22 406.57 699.67 406.34 C 693.93 403.89 688.98 398.53 689.11 391.99 Z"/><path fill="#000000" opacity="1.00" d=" M 782.78 387.81 C 784.50 387.39 786.27 387.13 788.00 386.71 C 792.47 387.51 797.10 389.26 799.80 393.12 C 804.47 399.10 803.36 408.57 797.50 413.36 C 794.77 416.16 790.81 416.64 787.16 417.21 C 780.51 416.51 774.19 411.65 773.02 404.87 C 771.45 397.78 775.91 390.08 782.78 387.81 Z"/><path fill="#000000" opacity="1.00" d=" M 636.95 466.07 C 635.54 455.81 647.39 446.45 656.93 450.85 C 660.92 451.91 663.46 455.30 666.20 458.12 C 669.62 454.53 673.49 450.29 678.88 450.34 C 687.27 449.30 695.52 456.48 695.38 465.01 C 695.62 470.81 691.79 475.57 687.61 479.11 C 689.95 482.13 693.40 484.45 694.48 488.30 C 697.49 495.85 692.87 505.36 684.98 507.51 C 681.63 508.90 678.02 508.18 674.65 507.29 C 671.41 505.60 668.72 503.09 666.37 500.32 C 662.86 504.16 658.82 508.65 653.17 508.67 C 644.80 509.72 636.56 502.51 636.75 494.01 C 636.33 487.75 640.94 483.03 645.17 479.11 C 641.17 475.75 637.13 471.63 636.95 466.07 Z"/></g><text x="0" y="1015" fill="#000000" font-size="5px" font-weight="bold" font-family="'Helvetica Neue', Helvetica, Arial-Unicode, Arial, Sans-serif">Created by LSE Designs</text><text x="0" y="1020" fill="#000000" font-size="5px" font-weight="bold" font-family="'Helvetica Neue', Helvetica, Arial-Unicode, Arial, Sans-serif">from the Noun Project</text></svg>