<svg xmlns="http://www.w3.org/2000/svg" viewBox="0 0 1000 1250" version="1.1" x="0px" y="0px"><g><path fill="#000000" opacity="1.00" d=" M 445.40 107.62 C 461.34 104.06 477.66 102.10 494.00 102.10 C 518.17 101.57 542.71 103.69 565.79 111.24 C 575.56 114.51 585.29 118.91 592.66 126.30 C 596.59 130.38 599.20 135.59 600.94 140.94 C 601.78 146.59 602.02 152.43 600.89 158.07 C 597.81 178.51 594.81 198.97 591.72 219.41 C 605.03 221.16 617.81 228.35 625.46 239.50 C 629.35 244.89 632.08 251.09 633.61 257.56 C 636.45 271.30 632.16 285.75 623.80 296.79 C 617.04 304.06 608.62 310.01 598.95 312.62 C 594.66 313.87 590.17 314.08 585.74 314.39 C 585.77 336.94 585.75 359.49 585.75 382.03 C 603.70 388.41 621.45 395.53 638.01 405.05 C 698.63 438.86 745.64 496.92 764.38 563.93 C 774.90 600.54 777.05 639.59 770.57 677.13 C 767.47 691.66 764.70 706.38 759.29 720.28 C 754.05 735.22 747.26 749.58 739.54 763.39 C 726.65 784.25 712.26 804.49 694.18 821.21 C 664.81 849.68 628.97 871.42 590.17 884.35 C 565.78 893.21 539.86 896.74 514.08 898.35 C 500.04 899.81 485.95 898.33 471.94 897.39 C 451.75 895.65 431.63 892.03 412.47 885.36 C 349.67 865.30 294.17 822.08 260.92 764.97 C 252.00 750.94 245.68 735.49 239.86 719.97 C 225.14 678.54 221.26 633.29 228.93 589.99 C 232.19 570.63 238.07 551.78 245.50 533.63 C 256.33 508.62 270.96 485.28 288.66 464.57 C 321.94 425.85 366.39 397.00 415.15 381.92 C 415.22 359.44 415.07 336.96 415.22 314.48 C 410.47 314.13 405.64 314.10 401.01 312.87 C 390.52 310.27 381.33 303.79 374.31 295.73 C 368.75 287.21 364.26 277.37 364.70 266.99 C 364.04 257.62 367.67 248.46 372.69 240.71 C 380.42 228.75 393.88 220.92 407.96 219.36 C 404.72 197.53 401.41 175.70 398.23 153.86 C 397.29 147.50 396.91 140.65 399.83 134.71 C 403.74 126.63 411.28 121.10 419.06 117.05 C 427.08 112.07 436.47 110.27 445.40 107.62 M 454.99 136.19 C 446.11 138.32 437.14 140.65 429.31 145.53 C 446.25 154.91 465.99 156.87 484.95 158.58 C 506.26 159.62 527.85 158.58 548.64 153.50 C 555.72 151.52 562.93 149.44 569.18 145.44 C 566.51 143.91 563.77 142.50 560.88 141.44 C 539.32 133.26 515.88 131.53 493.00 132.08 C 480.23 132.09 467.50 133.71 454.99 136.19 M 432.32 179.50 C 434.30 192.66 436.27 205.82 438.20 218.99 C 479.34 219.01 520.49 218.99 561.64 219.00 C 563.32 205.69 565.43 192.43 567.49 179.16 C 541.96 187.71 514.71 189.48 487.97 188.74 C 469.16 187.73 450.27 185.45 432.32 179.50 M 395.22 262.95 C 393.10 270.38 397.50 278.37 403.99 282.02 C 407.87 284.37 412.56 284.30 416.95 284.41 C 427.99 284.40 439.03 284.40 450.07 284.39 C 455.13 284.27 460.17 286.85 462.91 291.13 C 467.46 297.65 465.48 307.47 458.83 311.77 C 454.88 314.70 449.78 314.45 445.13 314.36 C 445.10 339.57 445.13 364.79 445.11 390.01 C 445.23 395.66 441.83 401.26 436.62 403.54 C 433.16 404.93 430.96 408.29 427.38 409.43 C 421.72 411.44 415.92 413.07 410.33 415.28 C 375.37 428.34 343.43 449.51 317.99 476.83 C 295.09 501.55 277.07 530.95 266.44 562.99 C 282.53 556.95 299.23 552.72 316.08 549.48 C 335.26 545.78 354.61 542.98 374.03 540.96 C 420.50 535.86 467.28 534.08 514.01 534.24 C 562.92 534.52 611.88 537.05 660.41 543.40 C 684.16 546.63 707.86 550.77 730.92 557.42 C 716.78 518.14 691.75 483.03 659.79 456.25 C 635.14 435.96 606.64 420.23 576.10 410.82 C 570.78 408.78 564.24 408.32 560.79 403.15 C 558.07 398.57 555.55 393.43 555.78 387.96 C 555.83 363.42 555.79 338.88 555.80 314.34 C 550.77 314.28 545.26 315.08 540.80 312.19 C 534.42 308.46 531.70 299.69 535.02 293.04 C 537.30 288.02 542.55 284.51 548.08 284.42 C 561.03 284.24 573.99 284.66 586.93 284.22 C 595.42 284.19 602.88 277.19 604.22 268.96 C 604.99 261.87 601.10 254.53 594.70 251.34 C 590.25 248.73 584.94 248.95 579.98 248.95 C 524.63 249.02 469.28 248.91 413.93 249.00 C 405.50 248.73 397.03 254.54 395.22 262.95 M 458.06 565.02 C 415.16 566.72 372.23 569.99 329.91 577.40 C 311.30 580.93 292.56 584.78 274.97 591.96 C 270.83 593.68 266.69 595.58 263.39 598.70 C 276.48 603.88 290.18 607.45 303.92 610.44 C 331.33 616.00 359.11 619.55 386.96 621.96 C 440.83 626.51 494.99 627.29 549.00 625.36 C 594.62 623.38 640.34 619.73 685.16 610.69 C 703.73 606.62 722.94 602.49 739.12 592.00 C 724.34 585.84 708.65 582.46 693.07 579.07 C 670.26 574.67 647.20 571.65 624.08 569.44 C 568.92 564.25 513.42 563.16 458.06 565.02 M 680.12 642.23 C 653.66 647.11 626.88 650.10 600.08 652.33 C 546.49 656.62 492.65 657.24 438.94 655.27 C 390.36 653.18 341.68 649.05 294.01 639.07 C 280.88 635.97 267.70 632.78 255.17 627.72 C 253.87 666.82 263.45 705.96 281.42 740.61 C 289.30 754.65 297.97 768.30 308.38 780.61 C 318.07 792.83 329.66 803.35 341.50 813.44 C 356.09 825.03 371.72 835.42 388.58 843.43 C 402.37 850.56 417.12 855.56 431.93 860.08 C 454.71 866.52 478.48 868.39 502.05 869.03 C 513.71 868.45 525.37 867.53 536.97 866.15 C 571.14 861.88 603.91 849.13 633.18 831.19 C 658.71 814.83 681.89 794.35 699.53 769.57 C 706.45 759.61 713.50 749.64 718.74 738.66 C 727.68 721.19 734.75 702.66 738.60 683.38 C 743.39 663.99 744.85 643.89 744.03 623.97 C 723.80 633.29 701.91 638.14 680.12 642.23 Z"/><path fill="#000000" opacity="1.00" d=" M 489.27 284.35 C 496.17 284.02 503.10 284.27 510.02 284.20 C 515.41 284.02 520.74 286.98 523.37 291.69 C 527.42 298.27 525.13 307.65 518.60 311.73 C 513.42 315.30 506.86 313.89 500.98 314.15 C 494.99 313.80 488.33 315.44 482.99 311.93 C 476.82 308.25 474.20 299.82 477.19 293.28 C 479.23 288.43 484.01 284.84 489.27 284.35 Z"/><path fill="#000000" opacity="1.00" d=" M 476.46 422.53 C 481.23 421.61 486.17 421.76 491.02 421.87 C 499.94 422.51 506.57 432.41 503.74 440.92 C 502.01 447.28 495.70 451.93 489.11 451.73 C 483.73 451.69 477.81 452.91 472.98 449.87 C 466.72 446.37 463.89 438.08 466.63 431.46 C 468.29 427.17 472.03 423.78 476.46 422.53 Z"/><path fill="#000000" opacity="1.00" d=" M 435.48 428.61 C 442.32 427.28 449.65 431.50 452.00 438.05 C 454.85 444.96 451.43 453.62 444.68 456.79 C 441.50 458.21 438.04 458.80 434.74 459.82 C 398.57 470.53 365.62 492.70 343.21 523.18 C 340.43 527.04 335.78 529.48 331.00 529.40 C 325.52 529.46 320.19 526.19 317.73 521.30 C 315.16 516.47 315.56 510.20 318.81 505.78 C 346.90 467.28 389.31 439.90 435.48 428.61 Z"/><path fill="#000000" opacity="1.00" d=" M 350.41 666.54 C 369.52 662.55 390.84 669.41 403.38 684.54 C 411.70 693.64 416.28 705.83 417.07 718.05 C 417.07 730.21 414.15 742.85 406.66 752.65 C 398.69 763.52 386.72 771.48 373.49 774.26 C 356.10 778.27 336.99 773.21 323.68 761.36 C 313.07 751.89 306.25 738.17 305.55 723.93 C 305.13 716.62 306.52 709.33 308.30 702.28 C 313.10 691.31 320.22 680.89 330.58 674.49 C 336.62 670.66 343.44 668.10 350.41 666.54 M 354.29 696.48 C 344.34 698.79 336.55 707.95 335.66 718.09 C 334.27 727.62 339.63 737.52 348.03 742.08 C 358.41 748.23 373.01 746.15 380.88 736.87 C 385.27 732.40 386.81 726.01 387.09 719.94 C 386.88 711.75 382.27 703.94 375.44 699.50 C 369.08 696.05 361.36 694.10 354.29 696.48 Z"/><path fill="#000000" opacity="1.00" d=" M 691.42 681.63 C 697.81 679.86 705.11 682.92 708.28 688.75 C 710.59 692.71 710.77 697.69 709.07 701.92 C 696.23 740.12 671.69 774.23 639.72 798.74 C 634.12 803.12 625.46 802.47 620.45 797.48 C 615.90 793.19 614.54 785.96 617.28 780.33 C 619.05 776.31 622.88 773.90 626.15 771.21 C 650.93 750.89 669.90 723.61 680.27 693.29 C 681.76 687.85 685.78 682.96 691.42 681.63 Z"/><path fill="#000000" opacity="1.00" d=" M 479.44 754.59 C 486.61 753.21 493.93 754.55 500.95 756.11 C 506.53 757.40 511.03 761.12 515.59 764.35 C 522.52 769.08 526.15 777.01 529.76 784.29 C 532.70 793.70 532.98 804.13 529.62 813.48 C 525.46 826.01 515.36 836.43 502.85 840.74 C 481.08 849.69 453.45 838.14 444.84 816.16 C 438.98 802.61 440.56 786.06 449.10 773.98 C 455.84 763.53 467.46 757.07 479.44 754.59 M 483.42 784.53 C 477.78 785.88 472.68 790.15 471.62 796.04 C 469.90 803.33 474.90 811.10 482.05 813.01 C 490.51 815.97 500.99 810.15 501.97 800.98 C 503.60 790.97 493.08 781.90 483.42 784.53 Z"/></g><text x="0" y="1015" fill="#000000" font-size="5px" font-weight="bold" font-family="'Helvetica Neue', Helvetica, Arial-Unicode, Arial, Sans-serif">Created by LSE Designs</text><text x="0" y="1020" fill="#000000" font-size="5px" font-weight="bold" font-family="'Helvetica Neue', Helvetica, Arial-Unicode, Arial, Sans-serif">from the Noun Project</text></svg>