<svg xmlns="http://www.w3.org/2000/svg" viewBox="0 0 1000 1250" version="1.1" x="0px" y="0px"><g><path fill="#000000" opacity="1.00" d=" M 391.99 75.98 C 397.32 73.92 402.96 75.88 407.89 78.09 C 424.75 85.23 438.04 100.29 443.01 117.91 C 449.38 137.88 444.31 160.80 430.66 176.60 C 426.67 181.33 422.11 185.84 416.44 188.49 C 416.46 195.44 416.39 202.39 416.48 209.34 C 432.67 209.34 448.86 209.28 465.06 209.32 C 474.93 209.20 484.69 212.03 493.24 216.91 C 506.54 224.80 516.48 238.52 518.79 253.92 C 519.37 263.30 518.87 272.70 519.32 282.07 C 519.09 294.03 512.96 305.42 503.78 312.96 C 504.35 332.44 503.90 351.95 504.02 371.44 C 519.83 371.16 535.63 371.40 551.44 371.32 C 551.48 358.91 551.38 346.51 551.48 334.11 C 551.65 326.95 557.76 320.59 564.88 320.03 C 570.92 319.30 577.13 322.72 579.81 328.16 C 581.92 332.09 581.34 336.68 581.40 340.97 C 581.42 351.10 581.34 361.22 581.45 371.35 C 600.30 371.29 619.15 371.34 638.00 371.32 C 647.68 371.76 657.69 372.91 666.27 377.80 C 679.07 384.43 688.38 397.01 691.63 410.99 C 693.22 417.20 692.92 423.63 692.65 429.97 C 692.62 459.98 692.64 489.99 692.64 520.00 C 692.76 537.66 692.34 555.33 692.93 572.99 C 691.98 586.78 686.62 600.23 677.87 610.95 C 678.08 656.00 677.89 701.06 677.96 746.12 C 702.97 746.13 727.98 746.12 752.99 746.12 C 748.03 731.19 747.30 714.74 751.39 699.51 C 755.66 681.23 767.34 665.35 781.88 653.79 C 794.15 644.80 808.84 639.04 824.05 637.88 C 852.41 635.01 881.67 648.66 898.00 671.97 C 909.83 688.20 915.52 709.11 912.83 729.09 C 912.29 736.25 910.66 743.35 907.64 749.89 C 900.47 769.98 884.34 786.31 864.99 794.98 C 850.06 801.92 833.06 803.43 816.89 801.17 C 804.18 798.20 791.70 793.38 781.22 785.47 C 772.29 809.20 754.22 829.62 731.06 840.19 C 723.49 844.05 715.28 846.42 707.01 848.20 C 707.66 876.99 691.45 905.24 666.54 919.58 C 661.39 922.37 656.11 925.79 650.05 925.89 C 510.36 925.98 370.67 925.98 230.99 925.89 C 224.88 925.80 219.57 922.35 214.38 919.53 C 189.77 905.32 173.66 877.54 173.98 849.08 C 137.98 845.49 105.21 819.96 93.13 785.82 C 90.73 777.68 87.72 769.57 87.54 760.99 C 87.60 754.76 92.08 748.93 98.04 747.19 C 102.26 746.07 106.67 746.20 111.00 746.13 C 120.62 746.12 130.25 746.10 139.87 746.14 C 137.34 741.10 138.19 735.40 138.09 729.98 C 138.03 709.73 138.19 689.48 138.01 669.23 C 132.98 663.35 128.74 656.62 126.57 649.14 C 124.50 642.63 124.22 635.74 123.65 628.99 C 123.64 612.31 123.62 595.62 123.66 578.93 C 124.45 571.47 125.76 563.90 129.07 557.10 C 137.89 538.96 156.73 525.77 177.04 524.94 C 196.14 525.31 215.25 525.05 234.35 525.12 C 234.31 516.35 234.30 507.59 234.35 498.82 C 216.89 489.42 204.27 471.57 201.71 451.86 C 199.58 435.74 203.68 418.73 213.76 405.85 C 220.10 397.03 229.17 390.55 238.85 385.82 C 242.62 384.04 247.06 383.52 251.04 384.89 C 270.28 390.85 286.09 406.79 291.76 426.12 C 298.42 446.06 293.61 469.11 280.08 485.09 C 275.72 490.21 270.86 495.50 264.33 497.74 C 264.21 506.87 264.31 515.99 264.27 525.12 C 279.81 525.13 295.35 525.12 310.88 525.12 C 310.90 470.06 310.86 415.00 310.90 359.94 C 311.05 358.60 310.66 357.33 309.56 356.51 C 297.50 345.74 290.45 329.99 289.06 314.01 C 289.19 296.36 289.09 278.70 289.13 261.05 C 289.55 251.00 291.07 240.48 296.83 231.97 C 302.19 222.36 311.66 215.51 321.94 211.97 C 330.38 209.40 339.30 209.49 348.03 209.31 C 360.84 209.33 373.66 209.32 386.48 209.32 C 386.46 202.95 386.54 196.58 386.43 190.22 C 374.05 184.05 363.87 173.52 358.12 160.93 C 351.79 148.04 350.61 132.89 354.08 119.01 C 358.71 99.61 373.64 83.41 391.99 75.98 M 383.01 141.98 C 385.12 151.33 391.83 159.11 400.19 163.56 C 409.54 157.69 415.87 147.17 415.74 136.01 C 415.78 123.88 408.65 112.17 397.89 106.57 C 385.91 113.53 379.66 128.56 383.01 141.98 M 342.27 239.43 C 337.01 239.81 331.20 239.32 326.78 242.76 C 320.67 247.00 319.26 254.93 319.12 261.87 C 319.01 277.24 319.13 292.61 319.06 307.98 C 318.88 318.63 323.21 329.67 331.84 336.23 C 345.78 348.04 368.98 347.08 381.18 333.17 C 390.39 323.58 391.52 309.54 391.24 296.93 C 390.69 287.10 392.38 276.55 398.65 268.64 C 404.55 260.36 413.92 254.90 423.87 253.17 C 435.14 251.34 447.19 254.86 455.56 262.66 C 460.72 267.52 465.30 273.67 465.99 280.94 C 466.76 287.60 473.41 293.05 480.13 291.61 C 485.08 290.78 489.37 286.21 489.25 281.08 C 489.09 274.05 489.19 267.02 489.18 259.99 C 489.27 256.17 487.16 252.83 485.23 249.71 C 481.04 242.92 472.85 239.19 465.01 239.37 C 424.10 239.26 383.18 239.13 342.27 239.43 M 421.80 289.11 C 420.52 295.64 421.65 302.35 421.04 308.94 C 420.14 317.05 419.48 325.37 416.10 332.91 C 407.79 354.35 387.55 370.99 364.56 373.73 C 356.72 375.56 348.65 374.70 340.81 373.41 C 340.88 424.35 340.81 475.30 340.84 526.25 C 347.50 527.93 354.17 530.18 359.77 534.28 C 373.29 542.76 382.19 557.60 384.76 573.20 C 385.61 585.81 385.25 598.47 385.16 611.11 C 385.85 630.54 377.23 649.86 362.92 662.91 C 362.91 685.63 362.92 708.35 362.91 731.07 C 362.84 736.12 363.51 741.37 361.46 746.16 C 393.52 746.09 425.58 746.12 457.64 746.11 C 457.66 670.71 457.62 595.31 457.66 519.91 C 458.10 516.94 455.68 514.88 454.30 512.57 C 449.34 505.36 447.88 496.49 446.54 488.03 C 446.55 468.37 446.43 448.71 446.60 429.05 C 446.69 413.29 455.03 398.81 465.99 388.00 C 468.54 385.82 471.31 383.93 474.06 382.02 C 474.11 361.89 474.07 341.77 474.08 321.64 C 457.33 320.17 441.82 307.69 437.84 291.18 C 437.21 288.94 437.35 286.17 435.25 284.69 C 430.90 280.71 422.81 283.19 421.80 289.11 M 513.31 401.45 C 507.91 402.23 502.33 402.23 497.16 404.14 C 488.91 407.52 481.26 413.57 478.11 422.16 C 475.99 427.16 476.49 432.66 476.48 437.95 C 476.47 453.31 476.49 468.66 476.46 484.02 C 476.36 487.82 477.76 491.42 479.05 494.92 C 480.11 498.22 483.31 500.13 486.19 501.67 C 493.90 505.10 503.73 499.32 504.35 490.90 C 504.54 484.27 504.39 477.64 504.45 471.01 C 504.57 463.90 503.71 456.63 505.75 449.70 C 509.61 434.01 523.01 421.17 538.83 417.92 C 552.88 414.81 568.41 419.19 578.55 429.47 C 585.71 436.30 589.92 445.76 591.39 455.46 C 592.36 465.28 591.89 475.17 592.00 485.02 C 591.92 514.00 592.17 542.99 591.84 571.96 C 592.67 584.38 600.74 595.79 611.97 601.05 C 625.51 607.76 643.17 604.56 653.35 593.35 C 660.60 585.90 663.58 575.22 662.72 565.01 C 662.69 519.02 662.60 473.03 662.77 427.04 C 663.89 419.32 661.38 410.89 655.01 406.07 C 649.41 401.51 641.85 401.55 635.01 401.26 C 594.45 401.41 553.86 401.04 513.31 401.45 M 234.13 456.97 C 237.00 463.91 242.99 468.89 249.24 472.74 C 253.50 469.22 258.07 465.71 260.63 460.67 C 265.50 452.02 266.11 441.09 261.98 432.03 C 259.21 424.90 253.51 419.25 246.91 415.57 C 232.97 423.53 227.04 442.54 234.13 456.97 M 534.36 460.97 C 534.46 469.98 534.19 479.01 534.64 488.01 C 534.95 501.16 529.14 514.56 518.74 522.75 C 510.11 529.88 498.73 533.32 487.59 532.50 C 487.61 603.71 487.58 674.91 487.61 746.12 C 541.07 746.12 594.53 746.13 648.00 746.12 C 648.01 707.85 648.00 669.57 648.00 631.30 C 627.39 638.01 603.52 634.08 586.64 620.32 C 572.00 609.14 562.90 591.28 561.86 572.95 C 562.26 539.30 561.93 505.63 562.06 471.98 C 562.10 467.48 561.85 462.99 561.27 458.53 C 560.52 452.09 554.56 446.70 548.01 446.91 C 540.53 446.71 534.20 453.63 534.36 460.97 M 177.22 555.25 C 163.69 556.76 153.67 569.79 153.58 583.01 C 153.65 598.00 153.52 612.99 153.65 627.99 C 154.20 633.92 154.09 640.35 157.60 645.47 C 163.07 654.73 175.56 658.65 185.43 654.51 C 192.95 651.54 198.56 644.12 199.06 636.01 C 199.50 627.32 198.90 618.62 199.26 609.94 C 199.69 597.03 207.40 584.95 218.24 578.17 C 224.76 574.29 232.38 572.37 239.95 572.46 C 252.59 572.77 264.97 579.57 271.70 590.33 C 276.63 597.50 278.64 606.29 278.86 614.90 C 279.58 628.90 288.83 641.81 301.70 647.27 C 312.91 652.20 326.55 651.39 337.01 644.94 C 347.79 638.53 354.81 626.44 355.27 613.92 C 355.53 606.94 355.21 599.95 355.32 592.96 C 355.27 584.92 355.91 576.37 352.15 568.97 C 347.62 560.27 337.85 554.48 328.01 555.04 C 277.75 555.24 227.46 554.82 177.22 555.25 M 229.35 610.05 C 228.88 620.03 229.49 630.06 228.92 640.05 C 227.09 657.37 215.66 673.28 200.00 680.82 C 190.19 685.78 178.83 687.05 168.03 685.45 C 168.05 702.96 168.02 720.48 168.05 737.99 C 168.17 740.83 167.32 743.55 166.25 746.15 C 222.31 746.10 278.37 746.10 334.43 746.16 C 333.62 743.83 332.91 741.44 332.96 738.96 C 332.96 718.88 332.96 698.79 332.96 678.71 C 314.63 682.76 294.57 679.60 279.01 668.87 C 267.17 661.01 257.78 649.42 253.06 635.96 C 249.77 628.03 249.26 619.39 247.98 611.00 C 247.54 607.52 245.38 603.98 241.87 602.95 C 236.64 600.98 230.54 604.74 229.35 610.05 M 820.48 668.60 C 803.64 671.79 789.57 684.28 782.71 699.75 C 777.76 712.07 777.22 726.34 782.27 738.73 C 786.19 749.37 793.87 758.69 803.66 764.44 C 811.98 769.06 821.34 772.51 830.99 772.16 C 849.09 772.57 866.77 762.46 876.06 747.01 C 883.44 733.84 885.90 717.55 880.77 703.14 C 874.64 684.71 857.45 670.34 838.07 668.25 C 832.23 667.43 826.25 667.31 820.48 668.60 M 121.76 776.11 C 126.54 788.78 134.90 800.25 146.41 807.58 C 158.11 815.74 172.60 820.80 186.96 819.00 C 211.97 818.83 236.98 818.96 261.99 818.93 C 269.99 818.72 277.14 826.00 276.84 833.99 C 277.03 841.89 269.96 849.04 262.04 848.87 C 242.67 848.90 223.29 848.86 203.92 848.88 C 203.64 867.93 215.18 886.26 231.94 895.03 C 233.14 895.74 234.51 896.03 235.91 895.98 C 297.94 895.92 359.97 896.00 422.00 895.93 C 497.02 895.87 572.05 896.13 647.05 895.85 C 664.55 888.06 676.75 869.49 677.06 850.31 C 635.37 850.33 593.68 850.30 551.99 850.32 C 545.72 850.61 539.61 846.54 537.47 840.66 C 534.86 833.97 537.75 825.70 544.10 822.29 C 547.98 819.90 552.66 820.36 557.01 820.35 C 597.35 820.38 637.69 820.35 678.03 820.37 C 684.72 820.68 691.34 819.60 697.99 819.10 C 712.93 817.45 726.80 809.87 737.49 799.49 C 744.22 793.02 748.78 784.69 752.24 776.11 C 542.08 776.06 331.92 776.06 121.76 776.11 Z"/><path fill="#000000" opacity="1.00" d=" M 427.34 822.45 C 429.45 821.74 431.71 821.71 433.93 821.70 C 454.28 821.77 474.64 821.68 494.99 821.74 C 503.01 821.59 510.07 829.00 509.66 836.99 C 509.73 844.76 502.80 851.72 495.02 851.64 C 474.01 851.72 453.01 851.66 432.00 851.67 C 424.88 851.84 418.30 846.17 417.26 839.16 C 415.92 832.09 420.50 824.60 427.34 822.45 Z"/></g><text x="0" y="1015" fill="#000000" font-size="5px" font-weight="bold" font-family="'Helvetica Neue', Helvetica, Arial-Unicode, Arial, Sans-serif">Created by LSE Designs</text><text x="0" y="1020" fill="#000000" font-size="5px" font-weight="bold" font-family="'Helvetica Neue', Helvetica, Arial-Unicode, Arial, Sans-serif">from the Noun Project</text></svg>