<svg xmlns="http://www.w3.org/2000/svg" xmlns:xlink="http://www.w3.org/1999/xlink" xmlns:xodm="http://www.corel.com/coreldraw/odm/2003" xml:space="preserve" version="1.1" style="shape-rendering:geometricPrecision;text-rendering:geometricPrecision;image-rendering:optimizeQuality;" viewBox="0 0 39028.39 45618.424999999996" x="0px" y="0px" fill-rule="evenodd" clip-rule="evenodd"><defs><style type="text/css">
   
    .fil0 {fill:black;fill-rule:nonzero}
   
  </style></defs><g><path class="fil0" d="M23934.33 18290.34c-2760.94,-510.7 -5814.38,-77.84 -8582.04,900.1 449.54,1376.39 1062.41,2657.78 1834.02,3833.08 766.67,1167.79 1689.59,2229.54 2764.16,3174.41 2055.84,-2180.2 3386.23,-4984.11 3983.87,-7907.59zm6042.37 2283.15c3432.08,1882.89 5435.46,4143.82 6340.48,6321.88 425.47,1023.94 608.84,2030.82 584.26,2973.25 -24.8,950.57 -263.33,1879.79 -731.86,2709.22 480.11,-528.46 888.47,-1116.02 1220.79,-1748.94 899.2,-1712.58 1241.8,-3758.3 943.44,-5866.43 -631.01,-4458.59 -3822.19,-7925.04 -7639.66,-10046.91 -15.24,1948.43 -257.25,3845.96 -717.46,5657.93zm3529.47 13919.1c1041.66,-468.46 1861.78,-1242.91 2379.76,-2212.71 381.81,-714.83 600.28,-1536.37 623.35,-2420.49 23.17,-888.54 -151.04,-1841.03 -555.04,-2813.31 -725.94,-1747.07 -2191.86,-3553.95 -4584.2,-5167.46 1393.85,1433.56 2105.54,2794.02 2279.99,3987.3 269.41,1842.89 -171.81,3466.45 -1538.94,4778.77 -2222.01,2132.93 -5847.85,2519.36 -8762.49,2048.57 -3648.91,-589.39 -7621.8,-2633.78 -10746.46,-6615.38 1936.02,3054.5 4523.41,5645.5 7801.77,7230.7 2580.35,1247.65 5582.66,2034.94 8383.42,2056.34 1696.09,12.96 3316.17,-255.05 4718.86,-872.34zm-22959.89 -12418.94c3208.57,6415.65 8297.89,9494.56 12863.83,10232.07 2784.23,449.72 6302.8,96.74 8428.77,-1944 582.13,-558.79 1015.33,-1217.02 1261.23,-1958.74 -401.44,586.55 -991.13,1061.06 -1726,1396.91 -2035.71,930.35 -4519.12,626.32 -6734.83,-168.56 -1769.02,-634.63 -3428.17,-1585.59 -4860.52,-2802.94 -1209.24,-1027.73 -2239.85,-2192.89 -3086.11,-3481.92 -794.76,-1210.55 -1427.4,-2531.7 -1893.22,-3952.11 -1540.63,592.81 -3045.07,1372.51 -4390.93,2333.05 45.07,115.67 91,231.09 137.78,346.24zm4556.09 8114.97c-4161.72,1968.58 -7579.8,2233.41 -10070.61,1481.48 -2050.05,-618.86 -3727.41,-2024.69 -4390.87,-4104.53 116.47,1058.7 429.86,2137.78 968.34,3224.57 1613.65,3256.77 4310.07,4912.15 8096.81,5099.33 3124.9,154.46 6586.73,-792.26 9644.84,-2459.09 -1558.9,-851.89 -2980.56,-1956.27 -4248.5,-3241.76zm-14138.42 -6135.61c-310.96,1173.88 -284.89,2340.52 50.83,3394.12 623.2,1955.77 2204.21,3265.06 4129.24,3846.19 1984.29,599.01 4588.72,525.03 7718.42,-595.83 -1001.06,155.28 -1965.7,167.28 -2835.31,44.06 -2430.2,-344.34 -4649.55,-2133.74 -5349.11,-4512.45 -399.49,-1358.41 -345.29,-2896.3 182.16,-4442.28 2309.02,-6767.79 10848.31,-9244.19 17235.91,-9470.48 -3526.33,-322.84 -7326.64,380.28 -10740.7,1806.57 -1018.49,425.5 -2036.36,933.04 -3016.92,1514.56 -3181.16,1886.57 -6302.32,4768.96 -7374.53,8415.54zm23224.44 -11357.85c-6715.43,-145.01 -16467.98,1925.24 -18956.03,9217.77 -501.14,1468.84 -554.21,2924.64 -177.55,4205.43 239.99,816.04 655.3,1562.04 1240.93,2195.93 -769.15,-1849.41 313.74,-3767.06 1545.81,-5122.78 3666.67,-4034.67 10929.4,-6455.51 16201.35,-5480.12 283.24,-1659.84 334.48,-3359.26 145.48,-5016.24zm-10087.5 -1761.39c390.81,-3382.65 1620.45,-5666.27 3185.21,-7099.52 1977.34,-1811.15 4885.19,-2510.04 7440.64,-1606.7 -1498.02,-1051.12 -3312.71,-1663.99 -5447.09,-1638.5 -3412.87,40.74 -6279.28,1554.04 -8178.2,4408.24 -1790.23,2690.84 -2526.09,6261.45 -2312.86,9702.81 753.9,-410.57 1536.82,-785.77 2340.73,-1121.62 896.31,-374.46 1819.03,-700.09 2756.7,-971.93 36.33,-596.74 109.61,-1154.19 214.87,-1672.79zm3449.73 -6810.39c-1073.42,983.2 -1982.82,2389.79 -2552.32,4309.39 461.9,-823.41 1037.98,-1457 1677.94,-1901.39 1169.67,-812.22 2871.43,-1222.66 4271.33,-1050.39 2660.25,327.39 4777.12,2353.5 6065.04,4590.78 1707.11,2965.48 2210.16,6546.03 1771.38,9910.48 -289.55,2219.68 -956.45,4378.04 -1908.91,6401.44 2289.65,-3656.3 3366.94,-8034.74 3222.04,-12334.62 -114.03,-3383.79 -1075.31,-7015.27 -3178.16,-9713.27 -2339.93,-3002.19 -6761.74,-2599.95 -9368.34,-212.43zm10860.69 15669.65c453.63,-3686.13 -302.65,-7031.54 -1738.57,-9525.94 -1223.84,-2125.97 -3240.88,-4083.87 -5772.85,-4395.48 -293.27,-36.09 -589.1,-48.88 -886.28,-37.24 456.26,95.89 906.06,267.11 1336.93,513.43 1627.28,930.3 2988.36,2936.19 3387.86,5995.7 261.65,2003.81 181.07,4073.07 -227.72,6070.91 -617.59,3018.28 -1993.14,5909.65 -4110.32,8164.7 1342.46,1094.04 2825.72,1909.09 4451.52,2501.24 1722.07,-2323.67 3239.4,-6686.82 3559.43,-9287.33zm-13804.54 9875.53c-2016.34,-2189.33 -3592.51,-4816.11 -4687.85,-7577.67 -621.05,479.93 -1173.81,982.92 -1641.37,1497.41 -1055.48,1161.41 -2139.2,2946.45 -1430.28,4547.28 512.13,1156.44 1840.65,1821.14 3260.6,2022.33 1334.55,189.09 2913.96,37.13 4498.89,-489.35zm15192.81 -8439.5c-851.17,2971.04 -2311.14,5721.16 -4343.16,8056.8 2253.49,704.4 4269.51,620.35 5673.16,-21.14 697.09,-318.58 1238.95,-774.34 1576.51,-1337.19 333.97,-556.87 470.09,-1225.32 360.3,-1976.24 -199.31,-1363.26 -1197.52,-2990.25 -3266.81,-4722.23zm-15312.2 -8788.9c3205.98,-844.97 6557.01,-1055.09 9607.64,-425.26 -433.23,-2627.45 -1627.35,-4348.85 -3037.44,-5154.98 -1307.19,-747.3 -2802.72,-706.43 -4044.54,155.9 -1304.21,905.65 -2318.01,2707.67 -2525.66,5424.35zm-6268.49 2580.17c-280.02,-3646.44 477.81,-7472.31 2391.22,-10348.3 2013.67,-3026.69 5044.34,-4628.07 8662.63,-4671.22 3519.53,-42.03 6218.7,1546.36 8109.9,3972.83 2213.16,2839.53 3235.98,6700.81 3307.76,10268.71 4112.24,2202.08 7552.65,5874.17 8227.06,10639.39 315.7,2230.7 -49.46,4400.42 -1005.73,6221.69 -528.17,1005.92 -1236.65,1905.24 -2110.4,2649.74 -1841.23,1568.87 -4345.05,2220.43 -7016.32,2200.02 -2953.81,-22.57 -6117.8,-866.92 -8808.55,-2198 -3230.99,1834.95 -6947.1,2888.18 -10298.11,2722.54 -4009.27,-198.18 -6889.3,-1978.3 -8598.7,-5431.18 -567.74,-1146.78 -898.89,-2288.52 -1022.99,-3411.38 -31.43,-284.41 -49.58,-567.61 -54.93,-849.37 -98.04,-5168.11 4027.53,-9335.4 8217.16,-11765.46z"/></g><text x="0" y="36509.74" fill="#000000" font-size="5px" font-weight="bold" font-family="'Helvetica Neue', Helvetica, Arial-Unicode, Arial, Sans-serif">Created by Oleksandr Panasovskyi</text><text x="0" y="36514.74" fill="#000000" font-size="5px" font-weight="bold" font-family="'Helvetica Neue', Helvetica, Arial-Unicode, Arial, Sans-serif">from the Noun Project</text></svg>
