<?xml version="1.0" encoding="UTF-8"?>
<svg width="512px" height="512px" viewBox="0 0 512 512" version="1.1" xmlns="http://www.w3.org/2000/svg" xmlns:xlink="http://www.w3.org/1999/xlink">
    <title>Icon Template 512pt</title>
    <defs>
        <radialGradient cx="49.8850086%" cy="50%" fx="49.8850086%" fy="50%" r="69.5682167%" id="radialGradient-1">
            <stop stop-color="#C7198F" offset="0%"></stop>
            <stop stop-color="#1DC6E2" offset="100%"></stop>
        </radialGradient>
    </defs>
    <g id="Icon-Template-512pt" stroke="none" stroke-width="1" fill="none" fill-rule="evenodd">
        <g id="Template">
            <rect id="BG" fill="url(#radialGradient-1)" x="0" y="0" width="512" height="512"></rect>
            <g id="bagua-white-mono" transform="translate(39.000000, 35.000000)" fill="#FFFFFF" fill-rule="nonzero">
                <path d="M212.728209,201.206588 L227.832509,201.206588 L227.832509,92.4320594 L212.728209,92.4320594 L212.728209,201.206588 Z M242.942657,201.206588 L258.046956,201.206588 L258.046956,92.4320594 L242.942657,92.4320594 L242.942657,201.206588 Z M275.581885,88.4129964 L384.355507,88.4129964 L384.355507,73.3031953 L275.581885,73.3031953 L275.581885,88.4129964 Z M275.577747,118.62846 L384.351373,118.62846 L384.355507,103.522798 L275.581885,103.522798 L275.577747,118.62846 Z M383.473756,351.66055 L274.700129,351.66055 L274.700129,366.770352 L383.473756,366.770352 L383.473756,351.66055 Z M164.416994,291.194768 L55.643368,291.194768 L55.6475018,306.30043 L164.421129,306.30043 L164.416994,291.194768 Z M57.1972877,148.769921 L165.970909,148.769921 L165.975048,133.664258 L57.2014216,133.664258 L57.1972877,148.769921 Z M165.975048,118.554457 L165.970909,103.448795 L57.1972877,103.448795 L57.2014216,118.554457 L165.975048,118.554457 Z M182.51344,304.713792 L182.51344,347.017498 L197.617739,347.017498 L197.617739,304.713792 L182.51344,304.713792 Z M182.51344,238.243416 L182.51344,280.541272 L197.617739,280.541272 L197.617739,238.243416 L182.51344,238.243416 Z M212.727887,304.713792 L212.727887,347.017498 L227.832186,347.017498 L227.832186,304.713792 L212.727887,304.713792 Z M212.727887,238.243416 L212.727887,280.541272 L227.832186,280.541272 L227.832186,238.243416 L212.727887,238.243416 Z M242.942334,304.713792 L242.942334,347.017498 L258.046634,347.017498 L258.046634,304.713792 L242.942334,304.713792 Z M242.942334,238.243416 L242.942334,280.541272 L258.046634,280.541272 L258.046634,238.243416 L242.942334,238.243416 Z M119.989809,231.808275 L119.989809,274.111981 L135.099957,274.111981 L135.099957,231.808275 L119.989809,231.808275 Z M119.989809,207.641604 L135.099957,207.641604 L135.099957,165.337898 L119.989809,165.337898 L119.989809,207.641604 Z M57.2013868,73.2337821 L57.197253,88.3394494 L99.5005275,88.3435833 L99.5005275,73.2337821 L57.2013868,73.2337821 Z M165.975361,73.2337821 L123.672086,73.2296483 L123.672086,88.3394494 L165.971227,88.3394494 L165.975361,73.2337821 Z M316.999131,291.230184 L274.699991,291.230184 L274.699991,306.339984 L316.999131,306.339984 L316.999131,291.230184 Z M383.473964,291.230184 L341.174823,291.230184 L341.174823,306.339984 L383.473964,306.339984 L383.473964,291.230184 Z M122.118449,366.73511 L164.421724,366.730976 L164.417589,351.625309 L122.118449,351.625309 L122.118449,366.73511 Z M55.6477844,366.730941 L97.9469251,366.730941 L97.9469251,351.62114 L55.6436505,351.625274 L55.6477844,366.730941 Z M317.003443,321.445682 L274.69603,321.445682 L274.700164,336.551349 L316.999304,336.551349 L317.003443,321.445682 Z M341.170828,321.445716 L341.170828,336.555518 L383.474103,336.551384 L383.474103,321.449855 L341.170828,321.445716 Z M122.118587,336.515443 L164.417728,336.515443 L164.421862,321.409775 L122.118587,321.405642 L122.118587,336.515443 Z M97.9470296,336.519577 L97.9470296,321.409775 L55.6478884,321.409775 L55.6437545,336.515443 L97.9470296,336.519577 Z M342.053353,148.839582 L384.356632,148.843715 L384.356632,133.733914 L342.053353,133.738053 L342.053353,148.839582 Z M275.582688,148.84375 L275.582688,133.733949 L317.881829,133.733949 L317.881829,148.84375 L275.582688,148.84375 Z M335.674168,231.807977 L350.778467,231.807977 L350.778467,274.111684 L335.674168,274.111684 L335.674168,231.807977 Z M335.674168,207.641307 L335.674168,165.337601 L350.778467,165.337601 L350.778467,207.641307 L335.674168,207.641307 Z M275.239722,231.808473 L275.239722,274.112179 L290.349869,274.112179 L290.349869,231.808473 L275.239722,231.808473 Z M275.239722,207.641802 L290.349869,207.641802 L290.349869,165.338097 L275.239722,165.338097 L275.239722,207.641802 Z M305.454169,274.112625 L320.564317,274.112625 L320.564317,165.338097 L305.454169,165.338097 L305.454169,274.112625 Z M104.885658,274.112625 L104.885658,165.338097 L89.7755096,165.338097 L89.7755096,274.112625 L104.885658,274.112625 Z M165.314354,274.112625 L165.314354,165.338097 L150.204206,165.338097 L150.204206,274.112625 L165.314354,274.112625 Z M182.512572,201.207183 L197.616872,201.207183 L197.616872,92.4326544 L182.512572,92.4326544 L182.512572,201.207183 Z" id="Shape" transform="translate(220.000000, 220.000000) rotate(-135.000000) translate(-220.000000, -220.000000) "></path>
            </g>
        </g>
    </g>
</svg>