<?xml version="1.0" encoding="UTF-8"?>
<svg width="720px" height="720px" viewBox="0 0 720 720" version="1.1" xmlns="http://www.w3.org/2000/svg" xmlns:xlink="http://www.w3.org/1999/xlink">
    <title>Atmanautica Copy</title>
    <g id="Atmanautica-Copy" stroke="none" stroke-width="1" fill="none" fill-rule="evenodd">
        <g id="bagua" transform="translate(65.913691, 65.663691)" fill="#E21D9D" fill-rule="nonzero">
            <path d="M283.70027,268.949224 L303.70027,268.949224 L303.70027,123.949224 L283.70027,123.949224 L283.70027,268.949224 Z M324.005357,268.242118 L344.005357,268.242118 L344.005357,123.242118 L324.005357,123.242118 L324.005357,268.242118 Z M368.278481,118.060877 L513.278481,118.060877 L513.278481,98.0608768 L368.278481,98.0608768 L368.278481,118.060877 Z M367.571374,158.365963 L512.565864,158.365963 L512.571374,138.365963 L367.576891,138.365963 L367.571374,158.365963 Z M511.864267,469.999044 L366.864267,469.999044 L366.864267,489.999044 L511.864267,489.999044 L511.864267,469.999044 Z M219.823656,388.681764 L74.8291668,388.681764 L74.8346772,408.681764 L219.829167,408.681764 L219.823656,388.681764 Z M76.9504871,198.67105 L221.94497,198.67105 L221.950487,178.67105 L76.9559975,178.67105 L76.9504871,198.67105 Z M221.24338,158.365963 L221.237863,138.365963 L76.2433803,138.365963 L76.2488907,158.365963 L221.24338,158.365963 Z M242.334524,407.097763 L242.334524,463.097763 L262.334524,463.097763 L262.334524,407.097763 L242.334524,407.097763 Z M243.748737,318.002309 L243.748737,374.002309 L263.748737,374.002309 L263.748737,318.002309 L243.748737,318.002309 Z M283.346717,407.097763 L283.346717,463.097763 L303.346717,463.097763 L303.346717,407.097763 L283.346717,407.097763 Z M284.053824,318.709415 L284.053824,374.709415 L304.053824,374.709415 L304.053824,318.709415 L284.053824,318.709415 Z M324.35891,407.097763 L324.35891,463.097763 L344.35891,463.097763 L344.35891,407.097763 L324.35891,407.097763 Z M324.35891,318.002309 L324.35891,374.002309 L344.35891,374.002309 L344.35891,318.002309 L324.35891,318.002309 Z M160.310137,309.517027 L160.310137,365.517027 L180.310137,365.517027 L180.310137,309.517027 L160.310137,309.517027 Z M159.60303,277.12868 L179.60303,277.12868 L179.60303,221.12868 L159.60303,221.12868 L159.60303,277.12868 Z M76.5546788,97.7073234 L76.5492065,117.701852 L132.549207,117.707323 L132.549207,97.7073234 L76.5546788,97.7073234 Z M221.644661,97.7127952 L165.644661,97.7073234 L165.644661,117.707323 L221.639189,117.707323 L221.644661,97.7127952 Z M423.170094,388.32821 L367.170094,388.32821 L367.170094,408.32821 L423.170094,408.32821 L423.170094,388.32821 Z M511.558441,389.035317 L455.558441,389.035317 L455.558441,409.035317 L511.558441,409.035317 L511.558441,389.035317 Z M162.816234,489.64549 L218.816234,489.640019 L218.810762,469.64549 L162.816234,469.64549 L162.816234,489.64549 Z M75.1404652,489.64549 L131.134993,489.64549 L131.134993,469.64549 L75.1349929,469.650962 L75.1404652,489.64549 Z M422.462987,428.633297 L366.462987,428.633297 L366.468459,448.633297 L422.457508,448.633297 L422.462987,428.633297 Z M454.851334,429.340404 L454.851334,449.340404 L510.851334,449.334932 L510.851334,429.345882 L454.851334,429.340404 Z M162.816234,448.633297 L218.810762,448.633297 L218.816234,428.638769 L162.816234,428.633297 L162.816234,448.633297 Z M130.427886,449.340404 L130.427886,429.340404 L74.4333585,429.340404 L74.4278862,449.334932 L130.427886,449.340404 Z M456.972655,198.312025 L512.972655,198.317496 L512.972655,178.317496 L456.972655,178.322975 L456.972655,198.312025 Z M368.584307,199.024603 L368.584307,179.024603 L424.584307,179.024603 L424.584307,199.024603 L368.584307,199.024603 Z M448.809704,309.517027 L468.809704,309.517027 L468.809704,365.517027 L448.809704,365.517027 L448.809704,309.517027 Z M448.102597,277.12868 L448.102597,221.12868 L468.102597,221.12868 L468.102597,277.12868 L448.102597,277.12868 Z M366.785317,309.517027 L366.785317,365.517027 L386.785317,365.517027 L386.785317,309.517027 L366.785317,309.517027 Z M366.785317,276.421573 L386.785317,276.421573 L386.785317,220.421573 L366.785317,220.421573 L366.785317,276.421573 Z M407.443957,365.822853 L427.443957,365.822853 L427.443957,220.822853 L407.443957,220.822853 L407.443957,365.822853 Z M140.358604,365.822853 L140.358604,220.822853 L120.358604,220.822853 L120.358604,365.822853 L140.358604,365.822853 Z M219.554564,365.822853 L219.554564,220.822853 L199.554564,220.822853 L199.554564,365.822853 L219.554564,365.822853 Z M243.395184,268.242118 L263.395184,268.242118 L263.395184,123.242118 L243.395184,123.242118 L243.395184,268.242118 Z" id="Shape" transform="translate(293.853184, 293.853184) rotate(-135.000000) translate(-293.853184, -293.853184) "></path>
        </g>
    </g>
</svg>