<?xml version="1.0" encoding="UTF-8"?>
<svg width="720px" height="720px" viewBox="0 0 720 720" version="1.1" xmlns="http://www.w3.org/2000/svg" xmlns:xlink="http://www.w3.org/1999/xlink">
    <title>Atmanautica Copy 3</title>
    <defs>
        <radialGradient cx="49.8850096%" cy="50%" fx="49.8850096%" fy="50%" r="77.9040253%" gradientTransform="translate(0.498850,0.500000),scale(0.892999,1.000000),translate(-0.498850,-0.500000)" id="radialGradient-1">
            <stop stop-color="#1DC6E2" offset="0%"></stop>
            <stop stop-color="#C7198F" offset="100%"></stop>
        </radialGradient>
    </defs>
    <g id="Atmanautica-Copy-3" stroke="none" stroke-width="1" fill="none" fill-rule="evenodd">
        <g id="bagua" transform="translate(69.000000, 79.000000)" fill="url(#radialGradient-1)" fill-rule="nonzero">
            <path d="M271.71194,256.995688 L291.00425,256.995688 L291.00425,118.060949 L271.71194,118.060949 L271.71194,256.995688 Z M310.30403,256.995688 L329.596339,256.995688 L329.596339,118.060949 L310.30403,118.060949 L310.30403,256.995688 Z M351.993226,112.927509 L490.926806,112.927509 L490.926806,93.6281722 L351.993226,93.6281722 L351.993226,112.927509 Z M351.98794,151.520897 L490.921526,151.520897 L490.926806,132.226846 L351.993226,132.226846 L351.98794,151.520897 Z M489.80057,449.16643 L350.866983,449.16643 L350.866983,468.465767 L489.80057,468.465767 L489.80057,449.16643 Z M210.005343,371.935136 L71.0717564,371.935136 L71.0770364,391.229186 L210.010623,391.229186 L210.005343,371.935136 Z M73.0565356,190.019762 L211.990116,190.019762 L211.995402,170.725712 L73.0618157,170.725712 L73.0565356,190.019762 Z M211.995402,151.426375 L211.990116,132.132324 L73.0565356,132.132324 L73.0618157,151.426375 L211.995402,151.426375 Z M233.119439,389.202616 L233.119439,443.235986 L252.411748,443.235986 L252.411748,389.202616 L233.119439,389.202616 Z M233.119439,304.301817 L233.119439,358.327716 L252.411748,358.327716 L252.411748,304.301817 L233.119439,304.301817 Z M271.711529,389.202616 L271.711529,443.235986 L291.003838,443.235986 L291.003838,389.202616 L271.711529,389.202616 Z M271.711529,304.301817 L271.711529,358.327716 L291.003838,358.327716 L291.003838,304.301817 L271.711529,304.301817 Z M310.303618,389.202616 L310.303618,443.235986 L329.595928,443.235986 L329.595928,389.202616 L310.303618,389.202616 Z M310.303618,304.301817 L310.303618,358.327716 L329.595928,358.327716 L329.595928,304.301817 L310.303618,304.301817 Z M153.25971,296.082388 L153.25971,350.115758 L172.55949,350.115758 L172.55949,296.082388 L153.25971,296.082388 Z M153.25971,265.214958 L172.55949,265.214958 L172.55949,211.181588 L153.25971,211.181588 L153.25971,265.214958 Z M73.0617714,93.5395127 L73.0564913,112.83357 L127.08931,112.83885 L127.08931,93.5395127 L73.0617714,93.5395127 Z M211.995801,93.5395127 L157.962982,93.5342326 L157.962982,112.83357 L211.990521,112.83357 L211.995801,93.5395127 Z M404.894345,371.980371 L350.866806,371.980371 L350.866806,391.279708 L404.894345,391.279708 L404.894345,371.980371 Z M489.800836,371.980371 L435.773297,371.980371 L435.773297,391.279708 L489.800836,391.279708 L489.800836,371.980371 Z M155.978564,468.420754 L210.011383,468.415474 L210.006103,449.121417 L155.978564,449.121417 L155.978564,468.420754 Z M71.0773973,468.41543 L125.104936,468.41543 L125.104936,449.116093 L71.0721172,449.121373 L71.0773973,468.41543 Z M404.899853,410.573803 L350.861747,410.573803 L350.867027,429.86786 L404.894566,429.86786 L404.899853,410.573803 Z M435.768194,410.573847 L435.768194,429.873184 L489.801013,429.867904 L489.801013,410.579133 L435.768194,410.573847 Z M155.978741,429.821998 L210.00628,429.821998 L210.01156,410.527941 L155.978741,410.522661 L155.978741,429.821998 Z M125.105069,429.827278 L125.105069,410.527941 L71.0775303,410.527941 L71.0722502,429.821998 L125.105069,429.827278 Z M436.895418,190.108738 L490.928244,190.114018 L490.928244,170.814681 L436.895418,170.819968 L436.895418,190.108738 Z M351.994252,190.114063 L351.994252,170.814726 L406.021791,170.814726 L406.021791,190.114063 L351.994252,190.114063 Z M428.74746,296.082008 L448.039769,296.082008 L448.039769,350.115378 L428.74746,350.115378 L428.74746,296.082008 Z M428.74746,265.214578 L428.74746,211.181209 L448.039769,211.181209 L448.039769,265.214578 L428.74746,265.214578 Z M351.55619,296.082641 L351.55619,350.116011 L370.85597,350.116011 L370.85597,296.082641 L351.55619,296.082641 Z M351.55619,265.215212 L370.85597,265.215212 L370.85597,211.181842 L351.55619,211.181842 L351.55619,265.215212 Z M390.14828,350.116581 L409.44806,350.116581 L409.44806,211.181842 L390.14828,211.181842 L390.14828,350.116581 Z M133.96759,350.116581 L133.96759,211.181842 L114.66781,211.181842 L114.66781,350.116581 L133.96759,350.116581 Z M211.151516,350.116581 L211.151516,211.181842 L191.851736,211.181842 L191.851736,350.116581 L211.151516,350.116581 Z M233.118331,256.996447 L252.41064,256.996447 L252.41064,118.061708 L233.118331,118.061708 L233.118331,256.996447 Z" id="Shape" transform="translate(281.000000, 281.000000) rotate(-135.000000) translate(-281.000000, -281.000000) "></path>
        </g>
        <g id="bagua" transform="translate(89.000000, 79.000000)" fill="url(#radialGradient-1)" fill-rule="nonzero">
            <path d="M271.71194,256.995688 L291.00425,256.995688 L291.00425,118.060949 L271.71194,118.060949 L271.71194,256.995688 Z M310.30403,256.995688 L329.596339,256.995688 L329.596339,118.060949 L310.30403,118.060949 L310.30403,256.995688 Z M351.993226,112.927509 L490.926806,112.927509 L490.926806,93.6281722 L351.993226,93.6281722 L351.993226,112.927509 Z M351.98794,151.520897 L490.921526,151.520897 L490.926806,132.226846 L351.993226,132.226846 L351.98794,151.520897 Z M489.80057,449.16643 L350.866983,449.16643 L350.866983,468.465767 L489.80057,468.465767 L489.80057,449.16643 Z M210.005343,371.935136 L71.0717564,371.935136 L71.0770364,391.229186 L210.010623,391.229186 L210.005343,371.935136 Z M73.0565356,190.019762 L211.990116,190.019762 L211.995402,170.725712 L73.0618157,170.725712 L73.0565356,190.019762 Z M211.995402,151.426375 L211.990116,132.132324 L73.0565356,132.132324 L73.0618157,151.426375 L211.995402,151.426375 Z M233.119439,389.202616 L233.119439,443.235986 L252.411748,443.235986 L252.411748,389.202616 L233.119439,389.202616 Z M233.119439,304.301817 L233.119439,358.327716 L252.411748,358.327716 L252.411748,304.301817 L233.119439,304.301817 Z M271.711529,389.202616 L271.711529,443.235986 L291.003838,443.235986 L291.003838,389.202616 L271.711529,389.202616 Z M271.711529,304.301817 L271.711529,358.327716 L291.003838,358.327716 L291.003838,304.301817 L271.711529,304.301817 Z M310.303618,389.202616 L310.303618,443.235986 L329.595928,443.235986 L329.595928,389.202616 L310.303618,389.202616 Z M310.303618,304.301817 L310.303618,358.327716 L329.595928,358.327716 L329.595928,304.301817 L310.303618,304.301817 Z M153.25971,296.082388 L153.25971,350.115758 L172.55949,350.115758 L172.55949,296.082388 L153.25971,296.082388 Z M153.25971,265.214958 L172.55949,265.214958 L172.55949,211.181588 L153.25971,211.181588 L153.25971,265.214958 Z M73.0617714,93.5395127 L73.0564913,112.83357 L127.08931,112.83885 L127.08931,93.5395127 L73.0617714,93.5395127 Z M211.995801,93.5395127 L157.962982,93.5342326 L157.962982,112.83357 L211.990521,112.83357 L211.995801,93.5395127 Z M404.894345,371.980371 L350.866806,371.980371 L350.866806,391.279708 L404.894345,391.279708 L404.894345,371.980371 Z M489.800836,371.980371 L435.773297,371.980371 L435.773297,391.279708 L489.800836,391.279708 L489.800836,371.980371 Z M155.978564,468.420754 L210.011383,468.415474 L210.006103,449.121417 L155.978564,449.121417 L155.978564,468.420754 Z M71.0773973,468.41543 L125.104936,468.41543 L125.104936,449.116093 L71.0721172,449.121373 L71.0773973,468.41543 Z M404.899853,410.573803 L350.861747,410.573803 L350.867027,429.86786 L404.894566,429.86786 L404.899853,410.573803 Z M435.768194,410.573847 L435.768194,429.873184 L489.801013,429.867904 L489.801013,410.579133 L435.768194,410.573847 Z M155.978741,429.821998 L210.00628,429.821998 L210.01156,410.527941 L155.978741,410.522661 L155.978741,429.821998 Z M125.105069,429.827278 L125.105069,410.527941 L71.0775303,410.527941 L71.0722502,429.821998 L125.105069,429.827278 Z M436.895418,190.108738 L490.928244,190.114018 L490.928244,170.814681 L436.895418,170.819968 L436.895418,190.108738 Z M351.994252,190.114063 L351.994252,170.814726 L406.021791,170.814726 L406.021791,190.114063 L351.994252,190.114063 Z M428.74746,296.082008 L448.039769,296.082008 L448.039769,350.115378 L428.74746,350.115378 L428.74746,296.082008 Z M428.74746,265.214578 L428.74746,211.181209 L448.039769,211.181209 L448.039769,265.214578 L428.74746,265.214578 Z M351.55619,296.082641 L351.55619,350.116011 L370.85597,350.116011 L370.85597,296.082641 L351.55619,296.082641 Z M351.55619,265.215212 L370.85597,265.215212 L370.85597,211.181842 L351.55619,211.181842 L351.55619,265.215212 Z M390.14828,350.116581 L409.44806,350.116581 L409.44806,211.181842 L390.14828,211.181842 L390.14828,350.116581 Z M133.96759,350.116581 L133.96759,211.181842 L114.66781,211.181842 L114.66781,350.116581 L133.96759,350.116581 Z M211.151516,350.116581 L211.151516,211.181842 L191.851736,211.181842 L191.851736,350.116581 L211.151516,350.116581 Z M233.118331,256.996447 L252.41064,256.996447 L252.41064,118.061708 L233.118331,118.061708 L233.118331,256.996447 Z" id="Shape" transform="translate(281.000000, 281.000000) rotate(-135.000000) translate(-281.000000, -281.000000) "></path>
        </g>
        <g id="bagua" transform="translate(79.000000, 69.000000)" fill="url(#radialGradient-1)" fill-rule="nonzero">
            <path d="M271.71194,256.995688 L291.00425,256.995688 L291.00425,118.060949 L271.71194,118.060949 L271.71194,256.995688 Z M310.30403,256.995688 L329.596339,256.995688 L329.596339,118.060949 L310.30403,118.060949 L310.30403,256.995688 Z M351.993226,112.927509 L490.926806,112.927509 L490.926806,93.6281722 L351.993226,93.6281722 L351.993226,112.927509 Z M351.98794,151.520897 L490.921526,151.520897 L490.926806,132.226846 L351.993226,132.226846 L351.98794,151.520897 Z M489.80057,449.16643 L350.866983,449.16643 L350.866983,468.465767 L489.80057,468.465767 L489.80057,449.16643 Z M210.005343,371.935136 L71.0717564,371.935136 L71.0770364,391.229186 L210.010623,391.229186 L210.005343,371.935136 Z M73.0565356,190.019762 L211.990116,190.019762 L211.995402,170.725712 L73.0618157,170.725712 L73.0565356,190.019762 Z M211.995402,151.426375 L211.990116,132.132324 L73.0565356,132.132324 L73.0618157,151.426375 L211.995402,151.426375 Z M233.119439,389.202616 L233.119439,443.235986 L252.411748,443.235986 L252.411748,389.202616 L233.119439,389.202616 Z M233.119439,304.301817 L233.119439,358.327716 L252.411748,358.327716 L252.411748,304.301817 L233.119439,304.301817 Z M271.711529,389.202616 L271.711529,443.235986 L291.003838,443.235986 L291.003838,389.202616 L271.711529,389.202616 Z M271.711529,304.301817 L271.711529,358.327716 L291.003838,358.327716 L291.003838,304.301817 L271.711529,304.301817 Z M310.303618,389.202616 L310.303618,443.235986 L329.595928,443.235986 L329.595928,389.202616 L310.303618,389.202616 Z M310.303618,304.301817 L310.303618,358.327716 L329.595928,358.327716 L329.595928,304.301817 L310.303618,304.301817 Z M153.25971,296.082388 L153.25971,350.115758 L172.55949,350.115758 L172.55949,296.082388 L153.25971,296.082388 Z M153.25971,265.214958 L172.55949,265.214958 L172.55949,211.181588 L153.25971,211.181588 L153.25971,265.214958 Z M73.0617714,93.5395127 L73.0564913,112.83357 L127.08931,112.83885 L127.08931,93.5395127 L73.0617714,93.5395127 Z M211.995801,93.5395127 L157.962982,93.5342326 L157.962982,112.83357 L211.990521,112.83357 L211.995801,93.5395127 Z M404.894345,371.980371 L350.866806,371.980371 L350.866806,391.279708 L404.894345,391.279708 L404.894345,371.980371 Z M489.800836,371.980371 L435.773297,371.980371 L435.773297,391.279708 L489.800836,391.279708 L489.800836,371.980371 Z M155.978564,468.420754 L210.011383,468.415474 L210.006103,449.121417 L155.978564,449.121417 L155.978564,468.420754 Z M71.0773973,468.41543 L125.104936,468.41543 L125.104936,449.116093 L71.0721172,449.121373 L71.0773973,468.41543 Z M404.899853,410.573803 L350.861747,410.573803 L350.867027,429.86786 L404.894566,429.86786 L404.899853,410.573803 Z M435.768194,410.573847 L435.768194,429.873184 L489.801013,429.867904 L489.801013,410.579133 L435.768194,410.573847 Z M155.978741,429.821998 L210.00628,429.821998 L210.01156,410.527941 L155.978741,410.522661 L155.978741,429.821998 Z M125.105069,429.827278 L125.105069,410.527941 L71.0775303,410.527941 L71.0722502,429.821998 L125.105069,429.827278 Z M436.895418,190.108738 L490.928244,190.114018 L490.928244,170.814681 L436.895418,170.819968 L436.895418,190.108738 Z M351.994252,190.114063 L351.994252,170.814726 L406.021791,170.814726 L406.021791,190.114063 L351.994252,190.114063 Z M428.74746,296.082008 L448.039769,296.082008 L448.039769,350.115378 L428.74746,350.115378 L428.74746,296.082008 Z M428.74746,265.214578 L428.74746,211.181209 L448.039769,211.181209 L448.039769,265.214578 L428.74746,265.214578 Z M351.55619,296.082641 L351.55619,350.116011 L370.85597,350.116011 L370.85597,296.082641 L351.55619,296.082641 Z M351.55619,265.215212 L370.85597,265.215212 L370.85597,211.181842 L351.55619,211.181842 L351.55619,265.215212 Z M390.14828,350.116581 L409.44806,350.116581 L409.44806,211.181842 L390.14828,211.181842 L390.14828,350.116581 Z M133.96759,350.116581 L133.96759,211.181842 L114.66781,211.181842 L114.66781,350.116581 L133.96759,350.116581 Z M211.151516,350.116581 L211.151516,211.181842 L191.851736,211.181842 L191.851736,350.116581 L211.151516,350.116581 Z M233.118331,256.996447 L252.41064,256.996447 L252.41064,118.061708 L233.118331,118.061708 L233.118331,256.996447 Z" id="Shape" transform="translate(281.000000, 281.000000) rotate(-135.000000) translate(-281.000000, -281.000000) "></path>
        </g>
        <g id="bagua" transform="translate(360.000000, 370.000000) rotate(-180.000000) translate(-360.000000, -370.000000) translate(79.000000, 89.000000)" fill="url(#radialGradient-1)" fill-rule="nonzero">
            <path d="M271.71194,256.995688 L291.00425,256.995688 L291.00425,118.060949 L271.71194,118.060949 L271.71194,256.995688 Z M310.30403,256.995688 L329.596339,256.995688 L329.596339,118.060949 L310.30403,118.060949 L310.30403,256.995688 Z M351.993226,112.927509 L490.926806,112.927509 L490.926806,93.6281722 L351.993226,93.6281722 L351.993226,112.927509 Z M351.98794,151.520897 L490.921526,151.520897 L490.926806,132.226846 L351.993226,132.226846 L351.98794,151.520897 Z M489.80057,449.16643 L350.866983,449.16643 L350.866983,468.465767 L489.80057,468.465767 L489.80057,449.16643 Z M210.005343,371.935136 L71.0717564,371.935136 L71.0770364,391.229186 L210.010623,391.229186 L210.005343,371.935136 Z M73.0565356,190.019762 L211.990116,190.019762 L211.995402,170.725712 L73.0618157,170.725712 L73.0565356,190.019762 Z M211.995402,151.426375 L211.990116,132.132324 L73.0565356,132.132324 L73.0618157,151.426375 L211.995402,151.426375 Z M233.119439,389.202616 L233.119439,443.235986 L252.411748,443.235986 L252.411748,389.202616 L233.119439,389.202616 Z M233.119439,304.301817 L233.119439,358.327716 L252.411748,358.327716 L252.411748,304.301817 L233.119439,304.301817 Z M271.711529,389.202616 L271.711529,443.235986 L291.003838,443.235986 L291.003838,389.202616 L271.711529,389.202616 Z M271.711529,304.301817 L271.711529,358.327716 L291.003838,358.327716 L291.003838,304.301817 L271.711529,304.301817 Z M310.303618,389.202616 L310.303618,443.235986 L329.595928,443.235986 L329.595928,389.202616 L310.303618,389.202616 Z M310.303618,304.301817 L310.303618,358.327716 L329.595928,358.327716 L329.595928,304.301817 L310.303618,304.301817 Z M153.25971,296.082388 L153.25971,350.115758 L172.55949,350.115758 L172.55949,296.082388 L153.25971,296.082388 Z M153.25971,265.214958 L172.55949,265.214958 L172.55949,211.181588 L153.25971,211.181588 L153.25971,265.214958 Z M73.0617714,93.5395127 L73.0564913,112.83357 L127.08931,112.83885 L127.08931,93.5395127 L73.0617714,93.5395127 Z M211.995801,93.5395127 L157.962982,93.5342326 L157.962982,112.83357 L211.990521,112.83357 L211.995801,93.5395127 Z M404.894345,371.980371 L350.866806,371.980371 L350.866806,391.279708 L404.894345,391.279708 L404.894345,371.980371 Z M489.800836,371.980371 L435.773297,371.980371 L435.773297,391.279708 L489.800836,391.279708 L489.800836,371.980371 Z M155.978564,468.420754 L210.011383,468.415474 L210.006103,449.121417 L155.978564,449.121417 L155.978564,468.420754 Z M71.0773973,468.41543 L125.104936,468.41543 L125.104936,449.116093 L71.0721172,449.121373 L71.0773973,468.41543 Z M404.899853,410.573803 L350.861747,410.573803 L350.867027,429.86786 L404.894566,429.86786 L404.899853,410.573803 Z M435.768194,410.573847 L435.768194,429.873184 L489.801013,429.867904 L489.801013,410.579133 L435.768194,410.573847 Z M155.978741,429.821998 L210.00628,429.821998 L210.01156,410.527941 L155.978741,410.522661 L155.978741,429.821998 Z M125.105069,429.827278 L125.105069,410.527941 L71.0775303,410.527941 L71.0722502,429.821998 L125.105069,429.827278 Z M436.895418,190.108738 L490.928244,190.114018 L490.928244,170.814681 L436.895418,170.819968 L436.895418,190.108738 Z M351.994252,190.114063 L351.994252,170.814726 L406.021791,170.814726 L406.021791,190.114063 L351.994252,190.114063 Z M428.74746,296.082008 L448.039769,296.082008 L448.039769,350.115378 L428.74746,350.115378 L428.74746,296.082008 Z M428.74746,265.214578 L428.74746,211.181209 L448.039769,211.181209 L448.039769,265.214578 L428.74746,265.214578 Z M351.55619,296.082641 L351.55619,350.116011 L370.85597,350.116011 L370.85597,296.082641 L351.55619,296.082641 Z M351.55619,265.215212 L370.85597,265.215212 L370.85597,211.181842 L351.55619,211.181842 L351.55619,265.215212 Z M390.14828,350.116581 L409.44806,350.116581 L409.44806,211.181842 L390.14828,211.181842 L390.14828,350.116581 Z M133.96759,350.116581 L133.96759,211.181842 L114.66781,211.181842 L114.66781,350.116581 L133.96759,350.116581 Z M211.151516,350.116581 L211.151516,211.181842 L191.851736,211.181842 L191.851736,350.116581 L211.151516,350.116581 Z M233.118331,256.996447 L252.41064,256.996447 L252.41064,118.061708 L233.118331,118.061708 L233.118331,256.996447 Z" id="Shape" transform="translate(281.000000, 281.000000) rotate(-135.000000) translate(-281.000000, -281.000000) "></path>
        </g>
    </g>
</svg>