<?xml version="1.0" encoding="UTF-8"?>
<svg width="130px" height="373px" viewBox="0 0 130 373" version="1.1" xmlns="http://www.w3.org/2000/svg" xmlns:xlink="http://www.w3.org/1999/xlink">
    <title>yin</title>
    <g id="yin" stroke="none" stroke-width="1" fill="none" fill-rule="evenodd">
        <path d="M49.015911,356.28 L49,356.28 L49,237 L49.030742,237 C49.5469384,228.62927 56.4992947,222 65,222 C73.5007053,222 80.4530616,228.62927 80.969258,237 L81,237 L81,356.28 L80.984089,356.28 C80.994659,356.518673 81,356.758713 81,357 C81,365.836556 73.836556,373 65,373 C56.163444,373 49,365.836556 49,357 C49,356.758713 49.005341,356.518673 49.0159113,356.279993 L49.015911,356.28 Z" id="Path" fill="#000000"></path>
        <path d="M49.015911,134.28 L49,134.28 L49,15 L49.030742,15 C49.5469384,6.62927028 56.4992947,0 65,0 C73.5007053,0 80.4530616,6.62927028 80.969258,15 L81,15 L81,134.28 L80.984089,134.28 C80.994659,134.518673 81,134.758713 81,135 C81,143.836556 73.836556,151 65,151 C56.163444,151 49,143.836556 49,135 C49,134.758713 49.005341,134.518673 49.0159113,134.279993 L49.015911,134.28 Z" id="Path" fill="#000000"></path>
    </g>
</svg>
