<?xml version="1.0" encoding="UTF-8"?>
<svg width="90px" height="89px" viewBox="0 0 90 89" version="1.1" xmlns="http://www.w3.org/2000/svg" xmlns:xlink="http://www.w3.org/1999/xlink">
    <!-- Generator: Sketch 55.2 (78181) - https://sketchapp.com -->
    <title>bagua</title>
    <desc>Created with Sketch.</desc>
    <defs>
        <radialGradient cx="49.8850096%" cy="50%" fx="49.8850096%" fy="50%" r="69.5682374%" gradientTransform="translate(0.498850,0.500000),scale(0.892999,1.000000),rotate(180.000000),translate(-0.498850,-0.500000)" id="radialGradient-1">
            <stop stop-color="#1DC6E2" offset="0%"></stop>
            <stop stop-color="#C7198F" offset="100%"></stop>
        </radialGradient>
    </defs>
    <g id="Page-1" stroke="none" stroke-width="1" fill="none" fill-rule="evenodd">
        <g id="noun_I-Ching_12507" transform="translate(-115.000000, -148.000000)" fill="url(#radialGradient-1)">
            <path d="M158.691634,166.874058 L158.691634,188.819158 L161.738904,188.819158 L161.738904,166.874058 L158.691634,166.874058 L158.691634,166.874058 Z M164.787354,166.874058 L164.787354,188.819158 L167.834624,188.819158 L167.834624,166.874058 L164.787354,166.874058 L164.787354,166.874058 Z M171.37227,166.063218 L193.317187,166.063218 L193.317187,163.014838 L171.37227,163.014838 L171.37227,166.063218 Z M171.371435,172.159143 L193.316353,172.159143 L193.317187,169.111598 L171.37227,169.111598 L171.371435,172.159143 Z M193.139295,219.173022 L171.194377,219.173022 L171.194377,222.221402 L193.139295,222.221402 L193.139295,219.173022 Z M148.944918,206.97414 L127,206.97414 L127.000834,210.021685 L148.945752,210.021685 L148.944918,206.97414 Z M127.313501,178.240138 L149.258418,178.240138 L149.259253,175.192593 L127.314335,175.192593 L127.313501,178.240138 Z M127.314335,172.144213 L149.259253,172.144213 L149.258418,169.096668 L127.313501,169.096668 L127.314335,172.144213 L127.314335,172.144213 Z M152.595849,209.701583 L152.595849,218.236293 L155.643119,218.236293 L155.643119,209.701583 L152.595849,209.701583 Z M152.595849,196.291283 L152.595849,204.824813 L155.643119,204.824813 L155.643119,196.291283 L152.595849,196.291283 Z M158.691569,209.701583 L158.691569,218.236293 L161.738839,218.236293 L161.738839,209.701583 L158.691569,209.701583 Z M158.691569,196.291283 L158.691569,204.824813 L161.738839,204.824813 L161.738839,196.291283 L158.691569,196.291283 Z M164.787289,209.701583 L164.787289,218.236293 L167.834559,218.236293 L167.834559,209.701583 L164.787289,209.701583 Z M164.787289,196.291283 L164.787289,204.824813 L167.834559,204.824813 L167.834559,196.291283 L164.787289,196.291283 Z M139.981799,194.993003 L139.981799,203.527713 L143.030249,203.527713 L143.030249,194.993003 L139.981799,194.993003 Z M139.981799,190.117413 L143.030249,190.117413 L143.030249,181.582703 L139.981799,181.582703 L139.981799,190.117413 Z M135.848117,163.000834 L127.314328,163.000834 L127.313494,166.04838 L135.848117,166.049214 L135.848117,163.000834 L135.848117,163.000834 Z M149.259316,163.000834 L140.724693,163 L140.724693,166.04838 L149.258482,166.04838 L149.259316,163.000834 Z M179.728138,206.981285 L171.194349,206.981285 L171.194349,210.029665 L179.728138,210.029665 L179.728138,206.981285 Z M193.139337,206.981285 L184.605548,206.981285 L184.605548,210.029665 L193.139337,210.029665 L193.139337,206.981285 Z M140.411249,222.214292 L148.945872,222.213458 L148.945038,219.165912 L140.411249,219.165912 L140.411249,222.214292 Z M127.000891,222.213451 L135.53468,222.213451 L135.53468,219.165071 L127.000057,219.165905 L127.000891,222.213451 Z M179.729008,213.077217 L171.19355,213.077217 L171.194384,216.124763 L179.728173,216.124763 L179.729008,213.077217 Z M193.139365,213.078059 L184.604742,213.077224 L184.604742,216.125604 L193.139365,216.12477 L193.139365,213.078059 L193.139365,213.078059 Z M140.411277,216.117519 L148.945066,216.117519 L148.9459,213.069973 L140.411277,213.069139 L140.411277,216.117519 Z M127.000078,216.117519 L135.534701,216.118353 L135.534701,213.069973 L127.000912,213.069973 L127.000078,216.117519 L127.000078,216.117519 Z M184.78279,178.254192 L193.317414,178.255026 L193.317414,175.206646 L184.78279,175.207481 L184.78279,178.254192 Z M171.372432,178.255033 L171.372432,175.206653 L179.906221,175.206653 L179.906221,178.255033 L171.372432,178.255033 Z M183.495799,194.992943 L186.543069,194.992943 L186.543069,203.527653 L183.495799,203.527653 L183.495799,194.992943 Z M183.495799,190.117353 L183.495799,181.582643 L186.543069,181.582643 L186.543069,190.117353 L183.495799,190.117353 Z M171.303239,194.993043 L171.303239,203.527753 L174.351689,203.527753 L174.351689,194.993043 L171.303239,194.993043 Z M171.303239,181.582743 L171.303239,190.117453 L174.351689,190.117453 L174.351689,181.582743 L171.303239,181.582743 L171.303239,181.582743 Z M177.398959,181.582743 L177.398959,203.527843 L180.447409,203.527843 L180.447409,181.582743 L177.398959,181.582743 L177.398959,181.582743 Z M136.934559,203.527843 L136.934559,181.582743 L133.886109,181.582743 L133.886109,203.527843 L136.934559,203.527843 Z M149.125959,203.527843 L149.125959,181.582743 L146.077509,181.582743 L146.077509,203.527843 L149.125959,203.527843 Z M152.595674,188.819278 L155.642944,188.819278 L155.642944,166.874178 L152.595674,166.874178 L152.595674,188.819278 Z" id="bagua" transform="translate(160.158707, 192.610701) rotate(-135.000000) translate(-160.158707, -192.610701) "></path>
        </g>
    </g>
</svg>